<?xml version="1.0" encoding="utf-8" standalone="no"?>
<!DOCTYPE svg PUBLIC "-//W3C//DTD SVG 1.1//EN"
  "http://www.w3.org/Graphics/SVG/1.1/DTD/svg11.dtd">
<svg xmlns:xlink="http://www.w3.org/1999/xlink" width="244.17072pt" height="148.88736pt" viewBox="0 0 244.17072 148.88736" xmlns="http://www.w3.org/2000/svg" version="1.1">
 <metadata>
  <rdf:RDF xmlns:dc="http://purl.org/dc/elements/1.1/" xmlns:cc="http://creativecommons.org/ns#" xmlns:rdf="http://www.w3.org/1999/02/22-rdf-syntax-ns#">
   <cc:Work>
    <dc:type rdf:resource="http://purl.org/dc/dcmitype/StillImage"/>
    <dc:date>2024-01-13T13:44:47.628844</dc:date>
    <dc:format>image/svg+xml</dc:format>
    <dc:creator>
     <cc:Agent>
      <dc:title>Matplotlib v3.5.3, https://matplotlib.org/</dc:title>
     </cc:Agent>
    </dc:creator>
   </cc:Work>
  </rdf:RDF>
 </metadata>
 <defs>
  <style type="text/css">*{stroke-linejoin: round; stroke-linecap: butt}</style>
 </defs>
 <g id="figure_1">
  <g id="patch_1">
   <path d="M 0 148.88736 
L 244.17072 148.88736 
L 244.17072 0 
L 0 0 
L 0 148.88736 
z
" style="fill: none"/>
  </g>
  <g id="axes_1">
   <g id="patch_2">
    <path d="M 25.265237 126.4727 
L 243.81072 126.4727 
L 243.81072 0.36 
L 25.265237 0.36 
L 25.265237 126.4727 
z
" style="fill: none"/>
   </g>
   <g id="PolyCollection_1">
    <path d="M 27.450692 126.4727 
L 27.450692 -1239012.320587 
L 29.636147 -403062.335392 
L 31.821601 -172407.207636 
L 34.007056 -63544.563641 
L 36.192511 -25350.876017 
L 38.377966 -50.152367 
L 40.563421 124.296922 
L 42.748876 125.735024 
L 44.93433 126.323936 
L 47.119785 126.380329 
L 49.30524 126.428768 
L 51.490695 126.465397 
L 53.67615 126.470721 
L 55.861605 126.4727 
L 58.047059 125.886954 
L 60.232514 126.206903 
L 62.417969 125.975993 
L 64.603424 124.414226 
L 66.788879 117.713684 
L 68.974334 90.463664 
L 71.159788 30.352522 
L 73.345243 115.765501 
L 75.530698 109.80786 
L 77.716153 116.106686 
L 79.901608 46.250989 
L 82.087063 115.575825 
L 84.272517 117.961104 
L 86.457972 125.011189 
L 88.643427 125.101833 
L 90.828882 125.799674 
L 93.014337 126.08069 
L 95.199792 126.34151 
L 97.385246 126.425432 
L 99.570701 126.39575 
L 101.756156 126.461044 
L 103.941611 126.469012 
L 106.127066 126.435623 
L 108.312521 110.053858 
L 110.497975 121.39281 
L 112.68343 124.842768 
L 114.868885 106.053727 
L 117.05434 103.277725 
L 119.239795 110.779103 
L 121.425249 107.125546 
L 123.610704 126.460839 
L 127.981614 126.4727 
L 132.352524 126.4727 
L 136.723433 126.462051 
L 141.094343 126.4727 
L 145.465253 126.4727 
L 149.836162 126.4727 
L 154.207072 126.462958 
L 158.577982 126.4727 
L 162.948891 126.4727 
L 167.319801 126.4727 
L 171.690711 126.4727 
L 176.06162 126.4727 
L 180.43253 126.4727 
L 184.80344 126.4727 
L 189.174349 126.4727 
L 193.545259 126.4727 
L 197.916169 126.4727 
L 202.287078 126.4727 
L 206.657988 126.4727 
L 211.028898 126.4727 
L 215.399807 124.38335 
L 219.770717 126.4727 
L 219.770717 126.4727 
L 219.770717 126.4727 
L 215.399807 126.4727 
L 211.028898 126.4727 
L 206.657988 126.4727 
L 202.287078 126.4727 
L 197.916169 126.4727 
L 193.545259 126.4727 
L 189.174349 126.4727 
L 184.80344 126.4727 
L 180.43253 126.4727 
L 176.06162 126.4727 
L 171.690711 126.4727 
L 167.319801 126.4727 
L 162.948891 126.4727 
L 158.577982 126.4727 
L 154.207072 126.4727 
L 149.836162 126.4727 
L 145.465253 126.4727 
L 141.094343 126.4727 
L 136.723433 126.4727 
L 132.352524 126.4727 
L 127.981614 126.4727 
L 123.610704 126.4727 
L 121.425249 126.4727 
L 119.239795 126.4727 
L 117.05434 126.4727 
L 114.868885 126.4727 
L 112.68343 126.4727 
L 110.497975 126.4727 
L 108.312521 126.4727 
L 106.127066 126.4727 
L 103.941611 126.4727 
L 101.756156 126.4727 
L 99.570701 126.4727 
L 97.385246 126.4727 
L 95.199792 126.4727 
L 93.014337 126.4727 
L 90.828882 126.4727 
L 88.643427 126.4727 
L 86.457972 126.4727 
L 84.272517 126.4727 
L 82.087063 126.4727 
L 79.901608 126.4727 
L 77.716153 126.4727 
L 75.530698 126.4727 
L 73.345243 126.4727 
L 71.159788 126.4727 
L 68.974334 126.4727 
L 66.788879 126.4727 
L 64.603424 126.4727 
L 62.417969 126.4727 
L 60.232514 126.4727 
L 58.047059 126.4727 
L 55.861605 126.4727 
L 53.67615 126.4727 
L 51.490695 126.4727 
L 49.30524 126.4727 
L 47.119785 126.4727 
L 44.93433 126.4727 
L 42.748876 126.4727 
L 40.563421 126.4727 
L 38.377966 126.4727 
L 36.192511 126.4727 
L 34.007056 126.4727 
L 31.821601 126.4727 
L 29.636147 126.4727 
L 27.450692 126.4727 
z
" clip-path="url(#pd65417fcd6)" style="fill: #303030; fill-opacity: 0.5; stroke: #303030; stroke-opacity: 0.5"/>
   </g>
   <g id="PolyCollection_2">
    <path d="M 95.199792 126.4727 
L 95.199792 -16968.049537 
L 99.570701 -32.074807 
L 103.941611 79.816646 
L 108.312521 95.699533 
L 112.68343 106.142021 
L 117.05434 114.361359 
L 121.425249 119.492244 
L 125.796159 120.882615 
L 130.167069 122.025272 
L 134.537978 118.417544 
L 138.908888 112.874489 
L 143.279798 111.836532 
L 147.650707 116.665803 
L 152.021617 124.140487 
L 156.392527 126.30406 
L 160.763436 115.425402 
L 165.134346 123.566587 
L 169.505256 122.135835 
L 173.876165 116.126793 
L 178.247075 113.804224 
L 182.617985 125.917491 
L 186.988894 123.380937 
L 191.359804 125.022446 
L 195.730714 126.4727 
L 200.101623 126.4727 
L 204.472533 126.4727 
L 208.843443 126.4727 
L 213.214352 126.4727 
L 217.585262 126.4727 
L 221.956172 126.4727 
L 221.956172 126.4727 
L 221.956172 126.4727 
L 217.585262 126.4727 
L 213.214352 126.4727 
L 208.843443 126.4727 
L 204.472533 126.4727 
L 200.101623 126.4727 
L 195.730714 126.4727 
L 191.359804 126.4727 
L 186.988894 126.4727 
L 182.617985 126.4727 
L 178.247075 126.4727 
L 173.876165 126.4727 
L 169.505256 126.4727 
L 165.134346 126.4727 
L 160.763436 126.4727 
L 156.392527 126.4727 
L 152.021617 126.4727 
L 147.650707 126.4727 
L 143.279798 126.4727 
L 138.908888 126.4727 
L 134.537978 126.4727 
L 130.167069 126.4727 
L 125.796159 126.4727 
L 121.425249 126.4727 
L 117.05434 126.4727 
L 112.68343 126.4727 
L 108.312521 126.4727 
L 103.941611 126.4727 
L 99.570701 126.4727 
L 95.199792 126.4727 
z
" clip-path="url(#pd65417fcd6)" style="fill: #ff7f50; fill-opacity: 0.5; stroke: #ff7f50; stroke-opacity: 0.5"/>
   </g>
   <g id="PolyCollection_3">
    <path d="M 130.167069 126.4727 
L 130.167069 -91399.49725 
L 132.352524 -36129.269093 
L 134.537978 -15880.56672 
L 136.723433 -260.838654 
L 138.908888 45.977251 
L 141.094343 75.285648 
L 143.279798 101.363858 
L 145.465253 112.430473 
L 147.650707 119.902178 
L 149.836162 110.481341 
L 152.021617 119.508644 
L 154.207072 118.755875 
L 156.392527 122.748869 
L 158.577982 120.784181 
L 160.763436 122.627499 
L 162.948891 125.521638 
L 165.134346 126.264074 
L 167.319801 124.279711 
L 169.505256 96.357987 
L 171.690711 106.977608 
L 173.876165 126.365438 
L 176.06162 126.398981 
L 178.247075 126.466083 
L 180.43253 126.445064 
L 182.617985 126.460446 
L 184.80344 126.416276 
L 186.988894 126.40454 
L 189.174349 125.132006 
L 191.359804 125.895551 
L 193.545259 126.466411 
L 195.730714 117.366816 
L 197.916169 126.166309 
L 200.101623 121.853422 
L 202.287078 125.313425 
L 204.472533 126.470423 
L 206.657988 126.4727 
L 208.843443 126.4727 
L 211.028898 126.4727 
L 213.214352 126.4727 
L 215.399807 126.4727 
L 217.585262 126.4727 
L 219.770717 126.4727 
L 221.956172 126.4727 
L 221.956172 126.4727 
L 221.956172 126.4727 
L 219.770717 126.4727 
L 217.585262 126.4727 
L 215.399807 126.4727 
L 213.214352 126.4727 
L 211.028898 126.4727 
L 208.843443 126.4727 
L 206.657988 126.4727 
L 204.472533 126.4727 
L 202.287078 126.4727 
L 200.101623 126.4727 
L 197.916169 126.4727 
L 195.730714 126.4727 
L 193.545259 126.4727 
L 191.359804 126.4727 
L 189.174349 126.4727 
L 186.988894 126.4727 
L 184.80344 126.4727 
L 182.617985 126.4727 
L 180.43253 126.4727 
L 178.247075 126.4727 
L 176.06162 126.4727 
L 173.876165 126.4727 
L 171.690711 126.4727 
L 169.505256 126.4727 
L 167.319801 126.4727 
L 165.134346 126.4727 
L 162.948891 126.4727 
L 160.763436 126.4727 
L 158.577982 126.4727 
L 156.392527 126.4727 
L 154.207072 126.4727 
L 152.021617 126.4727 
L 149.836162 126.4727 
L 147.650707 126.4727 
L 145.465253 126.4727 
L 143.279798 126.4727 
L 141.094343 126.4727 
L 138.908888 126.4727 
L 136.723433 126.4727 
L 134.537978 126.4727 
L 132.352524 126.4727 
L 130.167069 126.4727 
z
" clip-path="url(#pd65417fcd6)" style="fill: #22b2aa; fill-opacity: 0.5; stroke: #22b2aa; stroke-opacity: 0.5"/>
   </g>
   <g id="matplotlib.axis_1">
    <g id="xtick_1">
     <g id="line2d_1">
      <defs>
       <path id="m65c8aca0c8" d="M 0 0 
L 0 2 
" style="stroke: #000000; stroke-width: 0.35"/>
      </defs>
      <g>
       <use xlink:href="#m65c8aca0c8" x="47.119785" y="126.4727" style="stroke: #000000; stroke-width: 0.35"/>
      </g>
     </g>
     <g id="text_1">
      <!-- $\mathdefault{−120}$ -->
      <g transform="translate(37.475258 137.007502)scale(0.08 -0.08)">
       <defs>
        <path id="CMSY10-0" d="M 4218 1472 
C 4326 1472 4442 1472 4442 1600 
C 4442 1728 4326 1728 4218 1728 
L 755 1728 
C 646 1728 531 1728 531 1600 
C 531 1472 646 1472 755 1472 
L 4218 1472 
z
" transform="scale(0.015625)"/>
        <path id="CMR17-31" d="M 1702 4058 
C 1702 4192 1696 4192 1606 4192 
C 1357 3916 979 3827 621 3827 
C 602 3827 570 3827 563 3808 
C 557 3795 557 3782 557 3648 
C 755 3648 1088 3686 1344 3839 
L 1344 461 
C 1344 236 1331 160 781 160 
L 589 160 
L 589 0 
C 896 0 1216 0 1523 0 
C 1830 0 2150 0 2458 0 
L 2458 160 
L 2266 160 
C 1715 160 1702 230 1702 458 
L 1702 4058 
z
" transform="scale(0.015625)"/>
        <path id="CMR17-32" d="M 2669 989 
L 2554 989 
C 2490 536 2438 459 2413 420 
C 2381 369 1920 369 1830 369 
L 602 369 
C 832 619 1280 1072 1824 1597 
C 2214 1967 2669 2402 2669 3035 
C 2669 3790 2067 4224 1395 4224 
C 691 4224 262 3604 262 3030 
C 262 2780 448 2748 525 2748 
C 589 2748 781 2787 781 3010 
C 781 3207 614 3264 525 3264 
C 486 3264 448 3258 422 3245 
C 544 3790 915 4058 1306 4058 
C 1862 4058 2227 3617 2227 3035 
C 2227 2479 1901 2000 1536 1584 
L 262 146 
L 262 0 
L 2515 0 
L 2669 989 
z
" transform="scale(0.015625)"/>
        <path id="CMR17-30" d="M 2688 2025 
C 2688 2416 2682 3080 2413 3591 
C 2176 4039 1798 4198 1466 4198 
C 1158 4198 768 4058 525 3597 
C 269 3118 243 2524 243 2025 
C 243 1661 250 1106 448 619 
C 723 -39 1216 -128 1466 -128 
C 1760 -128 2208 -7 2470 600 
C 2662 1042 2688 1559 2688 2025 
z
M 1466 -26 
C 1056 -26 813 325 723 812 
C 653 1188 653 1738 653 2096 
C 653 2588 653 2997 736 3387 
C 858 3929 1216 4096 1466 4096 
C 1728 4096 2067 3923 2189 3400 
C 2272 3036 2278 2607 2278 2096 
C 2278 1680 2278 1169 2202 792 
C 2067 95 1690 -26 1466 -26 
z
" transform="scale(0.015625)"/>
       </defs>
       <use xlink:href="#CMSY10-0" transform="scale(0.996264)"/>
       <use xlink:href="#CMR17-31" transform="translate(77.487468 0)scale(0.996264)"/>
       <use xlink:href="#CMR17-32" transform="translate(123.177945 0)scale(0.996264)"/>
       <use xlink:href="#CMR17-30" transform="translate(168.868422 0)scale(0.996264)"/>
      </g>
     </g>
    </g>
    <g id="xtick_2">
     <g id="line2d_2">
      <g>
       <use xlink:href="#m65c8aca0c8" x="90.828882" y="126.4727" style="stroke: #000000; stroke-width: 0.35"/>
      </g>
     </g>
     <g id="text_2">
      <!-- $\mathdefault{−100}$ -->
      <g transform="translate(81.184354 137.007502)scale(0.08 -0.08)">
       <use xlink:href="#CMSY10-0" transform="scale(0.996264)"/>
       <use xlink:href="#CMR17-31" transform="translate(77.487468 0)scale(0.996264)"/>
       <use xlink:href="#CMR17-30" transform="translate(123.177945 0)scale(0.996264)"/>
       <use xlink:href="#CMR17-30" transform="translate(168.868422 0)scale(0.996264)"/>
      </g>
     </g>
    </g>
    <g id="xtick_3">
     <g id="line2d_3">
      <g>
       <use xlink:href="#m65c8aca0c8" x="134.537978" y="126.4727" style="stroke: #000000; stroke-width: 0.35"/>
      </g>
     </g>
     <g id="text_3">
      <!-- $\mathdefault{−80}$ -->
      <g transform="translate(127.010542 137.007502)scale(0.08 -0.08)">
       <defs>
        <path id="CMR17-38" d="M 1741 2264 
C 2144 2467 2554 2773 2554 3263 
C 2554 3841 1990 4179 1472 4179 
C 890 4179 378 3759 378 3180 
C 378 3021 416 2747 666 2505 
C 730 2442 998 2251 1171 2130 
C 883 1983 211 1634 211 934 
C 211 279 838 -128 1459 -128 
C 2144 -128 2720 362 2720 1010 
C 2720 1590 2330 1857 2074 2029 
L 1741 2264 
z
M 902 2822 
C 851 2854 595 3051 595 3351 
C 595 3739 998 4032 1459 4032 
C 1965 4032 2336 3676 2336 3262 
C 2336 2669 1670 2331 1638 2331 
C 1632 2331 1626 2331 1574 2370 
L 902 2822 
z
M 2080 1519 
C 2176 1449 2483 1240 2483 851 
C 2483 381 2010 25 1472 25 
C 890 25 448 438 448 940 
C 448 1443 838 1862 1280 2060 
L 2080 1519 
z
" transform="scale(0.015625)"/>
       </defs>
       <use xlink:href="#CMSY10-0" transform="scale(0.996264)"/>
       <use xlink:href="#CMR17-38" transform="translate(77.487468 0)scale(0.996264)"/>
       <use xlink:href="#CMR17-30" transform="translate(123.177945 0)scale(0.996264)"/>
      </g>
     </g>
    </g>
    <g id="xtick_4">
     <g id="line2d_4">
      <g>
       <use xlink:href="#m65c8aca0c8" x="178.247075" y="126.4727" style="stroke: #000000; stroke-width: 0.35"/>
      </g>
     </g>
     <g id="text_4">
      <!-- $\mathdefault{−60}$ -->
      <g transform="translate(170.719639 137.007502)scale(0.08 -0.08)">
       <defs>
        <path id="CMR17-36" d="M 678 2176 
C 678 3690 1395 4032 1811 4032 
C 1946 4032 2272 4009 2400 3776 
C 2298 3776 2106 3776 2106 3553 
C 2106 3381 2246 3323 2336 3323 
C 2394 3323 2566 3348 2566 3560 
C 2566 3954 2246 4179 1805 4179 
C 1043 4179 243 3390 243 1984 
C 243 253 966 -128 1478 -128 
C 2099 -128 2688 427 2688 1283 
C 2688 2081 2170 2662 1517 2662 
C 1126 2662 838 2407 678 1960 
L 678 2176 
z
M 1478 25 
C 691 25 691 1200 691 1436 
C 691 1896 909 2560 1504 2560 
C 1613 2560 1926 2560 2138 2120 
C 2253 1870 2253 1609 2253 1289 
C 2253 944 2253 690 2118 434 
C 1978 171 1773 25 1478 25 
z
" transform="scale(0.015625)"/>
       </defs>
       <use xlink:href="#CMSY10-0" transform="scale(0.996264)"/>
       <use xlink:href="#CMR17-36" transform="translate(77.487468 0)scale(0.996264)"/>
       <use xlink:href="#CMR17-30" transform="translate(123.177945 0)scale(0.996264)"/>
      </g>
     </g>
    </g>
    <g id="xtick_5">
     <g id="line2d_5">
      <g>
       <use xlink:href="#m65c8aca0c8" x="221.956172" y="126.4727" style="stroke: #000000; stroke-width: 0.35"/>
      </g>
     </g>
     <g id="text_5">
      <!-- $\mathdefault{−40}$ -->
      <g transform="translate(214.428736 137.007502)scale(0.08 -0.08)">
       <defs>
        <path id="CMR17-34" d="M 2150 4122 
C 2150 4256 2144 4256 2029 4256 
L 128 1254 
L 128 1088 
L 1779 1088 
L 1779 457 
C 1779 224 1766 160 1318 160 
L 1197 160 
L 1197 0 
C 1402 0 1747 0 1965 0 
C 2182 0 2528 0 2733 0 
L 2733 160 
L 2611 160 
C 2163 160 2150 224 2150 457 
L 2150 1088 
L 2803 1088 
L 2803 1254 
L 2150 1254 
L 2150 4122 
z
M 1798 3703 
L 1798 1254 
L 256 1254 
L 1798 3703 
z
" transform="scale(0.015625)"/>
       </defs>
       <use xlink:href="#CMSY10-0" transform="scale(0.996264)"/>
       <use xlink:href="#CMR17-34" transform="translate(77.487468 0)scale(0.996264)"/>
       <use xlink:href="#CMR17-30" transform="translate(123.177945 0)scale(0.996264)"/>
      </g>
     </g>
    </g>
    <g id="text_6">
     <!-- chemical potential, (K) -->
     <g transform="translate(91.612219 146.534832)scale(0.08 -0.08)">
      <defs>
       <path id="CMR17-63" d="M 2234 2240 
C 2112 2240 1933 2240 1933 2017 
C 1933 1838 2080 1787 2163 1787 
C 2208 1787 2394 1807 2394 2024 
C 2394 2467 1958 2803 1466 2803 
C 787 2803 211 2178 211 1363 
C 211 516 813 -64 1466 -64 
C 2259 -64 2458 677 2458 748 
C 2458 774 2451 793 2406 793 
C 2362 793 2355 787 2330 703 
C 2163 180 1798 51 1523 51 
C 1114 51 621 427 621 1369 
C 621 2338 1094 2688 1472 2688 
C 1722 2688 2093 2573 2234 2240 
z
" transform="scale(0.015625)"/>
       <path id="CMR17-68" d="M 2656 1933 
C 2656 2259 2592 2790 1837 2790 
C 1312 2790 1056 2368 979 2157 
L 973 2157 
L 973 4396 
L 211 4326 
L 211 4160 
C 589 4160 646 4122 646 3817 
L 646 426 
C 646 184 621 153 211 153 
L 211 -13 
C 365 0 646 0 813 0 
C 979 0 1267 0 1421 -13 
L 1421 153 
C 1011 153 986 178 986 428 
L 986 1658 
C 986 2247 1344 2688 1792 2688 
C 2266 2688 2317 2266 2317 1958 
L 2317 428 
C 2317 184 2291 153 1882 153 
L 1882 -13 
C 2035 0 2317 0 2483 0 
C 2650 0 2938 0 3091 -13 
L 3091 153 
C 2682 153 2656 178 2656 428 
L 2656 1933 
z
" transform="scale(0.015625)"/>
       <path id="CMR17-65" d="M 2438 1472 
C 2464 1498 2464 1511 2464 1576 
C 2464 2238 2118 2816 1389 2816 
C 710 2816 173 2169 173 1383 
C 173 551 781 -64 1459 -64 
C 2176 -64 2458 607 2458 740 
C 2458 784 2419 784 2406 784 
C 2362 784 2355 771 2330 696 
C 2189 265 1837 51 1504 51 
C 1229 51 954 203 781 480 
C 582 803 582 1176 582 1472 
L 2438 1472 
z
M 589 1568 
C 634 2505 1126 2714 1382 2714 
C 1818 2714 2112 2297 2118 1568 
L 589 1568 
z
" transform="scale(0.015625)"/>
       <path id="CMR17-6d" d="M 4326 1933 
C 4326 2252 4269 2790 3507 2790 
C 3072 2790 2771 2496 2656 2151 
L 2650 2151 
C 2573 2676 2195 2790 1837 2790 
C 1331 2790 1069 2400 973 2144 
L 966 2144 
L 966 2790 
L 211 2720 
L 211 2554 
C 589 2554 646 2515 646 2208 
L 646 428 
C 646 184 621 153 211 153 
L 211 -13 
C 365 0 646 0 813 0 
C 979 0 1267 0 1421 -13 
L 1421 153 
C 1011 153 986 178 986 428 
L 986 1658 
C 986 2247 1344 2688 1792 2688 
C 2266 2688 2317 2266 2317 1958 
L 2317 428 
C 2317 184 2291 153 1882 153 
L 1882 -13 
C 2035 0 2317 0 2483 0 
C 2650 0 2938 0 3091 -13 
L 3091 153 
C 2682 153 2656 178 2656 428 
L 2656 1658 
C 2656 2247 3014 2688 3462 2688 
C 3936 2688 3987 2266 3987 1958 
L 3987 428 
C 3987 184 3962 153 3552 153 
L 3552 -13 
C 3706 0 3987 0 4154 0 
C 4320 0 4608 0 4762 -13 
L 4762 153 
C 4352 153 4326 178 4326 428 
L 4326 1933 
z
" transform="scale(0.015625)"/>
       <path id="CMR17-69" d="M 992 3909 
C 992 4049 877 4170 730 4170 
C 589 4170 467 4056 467 3909 
C 467 3769 582 3648 730 3648 
C 870 3648 992 3763 992 3909 
z
M 243 2706 
L 243 2541 
C 602 2541 653 2502 653 2197 
L 653 427 
C 653 184 627 153 218 153 
L 218 -13 
C 371 0 646 0 806 0 
C 960 0 1222 0 1370 -13 
L 1370 153 
C 992 153 979 191 979 420 
L 979 2776 
L 243 2706 
z
" transform="scale(0.015625)"/>
       <path id="CMR17-61" d="M 2304 1653 
C 2304 2072 2304 2294 2035 2543 
C 1798 2752 1523 2816 1306 2816 
C 800 2816 435 2407 435 1971 
C 435 1728 627 1728 666 1728 
C 749 1728 896 1778 896 1954 
C 896 2112 774 2181 666 2181 
C 640 2181 608 2174 589 2168 
C 723 2592 1069 2714 1293 2714 
C 1613 2714 1965 2429 1965 1885 
L 1965 1600 
C 1587 1600 1133 1549 774 1357 
C 371 1133 256 813 256 570 
C 256 77 832 -64 1171 -64 
C 1523 -64 1850 139 1990 511 
C 2003 233 2182 -18 2464 -18 
C 2598 -18 2938 70 2938 567 
L 2938 920 
L 2822 920 
L 2822 562 
C 2822 178 2650 128 2566 128 
C 2304 128 2304 458 2304 738 
L 2304 1653 
z
M 1965 870 
C 1965 317 1568 38 1216 38 
C 896 38 646 275 646 570 
C 646 761 730 1100 1101 1305 
C 1408 1478 1760 1504 1965 1504 
L 1965 870 
z
" transform="scale(0.015625)"/>
       <path id="CMR17-6c" d="M 979 4396 
L 218 4326 
L 218 4160 
C 595 4160 653 4122 653 3817 
L 653 426 
C 653 184 627 153 218 153 
L 218 -13 
C 371 0 653 0 813 0 
C 979 0 1261 0 1414 -13 
L 1414 153 
C 1005 153 979 178 979 426 
L 979 4396 
z
" transform="scale(0.015625)"/>
       <path id="CMR17-70" d="M 1408 -1063 
C 998 -1063 973 -1037 973 -789 
L 973 402 
C 1158 134 1427 -38 1766 -38 
C 2406 -38 3053 523 3053 1388 
C 3053 2191 2496 2802 1837 2802 
C 1453 2802 1139 2592 960 2338 
L 960 2802 
L 198 2732 
L 198 2567 
C 576 2567 634 2528 634 2223 
L 634 -789 
C 634 -1031 608 -1063 198 -1063 
L 198 -1228 
C 352 -1216 634 -1216 800 -1216 
C 966 -1216 1254 -1216 1408 -1228 
L 1408 -1063 
z
M 973 2012 
C 973 2102 973 2235 1222 2471 
C 1254 2497 1472 2688 1792 2688 
C 2259 2688 2643 2108 2643 1382 
C 2643 656 2234 64 1728 64 
C 1498 64 1248 172 1056 472 
C 973 612 973 650 973 752 
L 973 2012 
z
" transform="scale(0.015625)"/>
       <path id="CMR17-6f" d="M 2758 1356 
C 2758 2176 2163 2816 1466 2816 
C 768 2816 173 2176 173 1356 
C 173 551 768 -64 1466 -64 
C 2163 -64 2758 551 2758 1356 
z
M 1466 51 
C 1165 51 909 230 762 480 
C 602 767 582 1126 582 1408 
C 582 1677 595 2010 762 2298 
C 890 2509 1139 2714 1466 2714 
C 1754 2714 1997 2554 2150 2330 
C 2349 2029 2349 1607 2349 1408 
C 2349 1158 2336 775 2163 467 
C 1984 173 1709 51 1466 51 
z
" transform="scale(0.015625)"/>
       <path id="CMR17-74" d="M 966 2560 
L 1862 2560 
L 1862 2725 
L 966 2725 
L 966 3904 
L 851 3904 
C 838 3245 614 2668 70 2668 
L 70 2560 
L 627 2560 
L 627 771 
C 627 650 627 -64 1370 -64 
C 1747 -64 1965 306 1965 777 
L 1965 1140 
L 1850 1140 
L 1850 783 
C 1850 344 1677 51 1408 51 
C 1222 51 966 178 966 758 
L 966 2560 
z
" transform="scale(0.015625)"/>
       <path id="CMR17-6e" d="M 2656 1933 
C 2656 2259 2592 2790 1837 2790 
C 1331 2790 1069 2400 973 2144 
L 966 2144 
L 966 2790 
L 211 2720 
L 211 2554 
C 589 2554 646 2515 646 2208 
L 646 428 
C 646 184 621 153 211 153 
L 211 -13 
C 365 0 646 0 813 0 
C 979 0 1267 0 1421 -13 
L 1421 153 
C 1011 153 986 178 986 428 
L 986 1658 
C 986 2247 1344 2688 1792 2688 
C 2266 2688 2317 2266 2317 1958 
L 2317 428 
C 2317 184 2291 153 1882 153 
L 1882 -13 
C 2035 0 2317 0 2483 0 
C 2650 0 2938 0 3091 -13 
L 3091 153 
C 2682 153 2656 178 2656 428 
L 2656 1933 
z
" transform="scale(0.015625)"/>
       <path id="CMR17-2c" d="M 1011 102 
C 1024 45 1024 25 1024 -77 
C 1024 -463 896 -817 627 -1139 
C 595 -1170 595 -1183 595 -1197 
C 595 -1222 621 -1248 646 -1248 
C 685 -1248 1126 -799 1126 -87 
C 1126 124 1101 522 800 522 
C 659 522 538 427 538 261 
C 538 96 659 0 800 0 
C 877 0 960 32 1011 102 
z
" transform="scale(0.015625)"/>
       <path id="CMR17-28" d="M 1958 -1561 
C 1958 -1555 1958 -1542 1939 -1523 
C 1645 -1224 858 -407 858 1581 
C 858 3569 1632 4379 1946 4697 
C 1946 4704 1958 4717 1958 4736 
C 1958 4755 1939 4768 1914 4768 
C 1843 4768 1299 4296 986 3594 
C 666 2887 576 2199 576 1588 
C 576 1128 621 351 1005 -471 
C 1312 -1135 1837 -1600 1914 -1600 
C 1946 -1600 1958 -1587 1958 -1561 
z
" transform="scale(0.015625)"/>
       <path id="CMR17-4b" d="M 2362 2675 
L 3469 3782 
C 3699 4006 3942 4186 4301 4186 
L 4301 4352 
C 4173 4352 4013 4352 3885 4352 
C 3712 4352 3411 4352 3245 4358 
L 3245 4192 
C 3411 4180 3437 4065 3437 4019 
C 3437 3975 3411 3905 3386 3867 
L 1261 1738 
L 1261 3900 
C 1261 4186 1331 4186 1773 4186 
L 1773 4352 
C 1587 4352 1248 4352 1050 4352 
C 851 4352 512 4352 326 4352 
L 326 4186 
C 768 4186 838 4186 838 3899 
L 838 446 
C 838 160 768 160 326 160 
L 326 0 
C 512 0 851 0 1050 0 
C 1248 0 1587 0 1773 0 
L 1773 160 
C 1331 160 1261 160 1261 447 
L 1261 1579 
L 2080 2390 
L 3290 537 
C 3328 473 3373 390 3373 326 
C 3373 160 3194 160 3110 160 
L 3110 0 
C 3315 0 3610 0 3821 0 
C 3974 0 4237 0 4384 -6 
L 4384 160 
C 4077 160 3981 198 3789 493 
L 2362 2675 
z
" transform="scale(0.015625)"/>
       <path id="CMR17-29" d="M 1683 1581 
C 1683 2040 1638 2817 1254 3639 
C 947 4303 422 4768 346 4768 
C 326 4768 301 4761 301 4729 
C 301 4717 307 4710 314 4697 
C 621 4378 1402 3568 1402 1584 
C 1402 -407 627 -1217 314 -1537 
C 307 -1549 301 -1556 301 -1568 
C 301 -1600 326 -1600 346 -1600 
C 416 -1600 960 -1128 1274 -426 
C 1594 281 1683 969 1683 1581 
z
" transform="scale(0.015625)"/>
      </defs>
      <use xlink:href="#CMR17-63" transform="scale(0.996264)"/>
      <use xlink:href="#CMR17-68" transform="translate(37.883207 0)scale(0.996264)"/>
      <use xlink:href="#CMR17-65" transform="translate(88.778576 0)scale(0.996264)"/>
      <use xlink:href="#CMR17-6d" transform="translate(129.264237 0)scale(0.996264)"/>
      <use xlink:href="#CMR17-69" transform="translate(206.183827 0)scale(0.996264)"/>
      <use xlink:href="#CMR17-63" transform="translate(231.054885 0)scale(0.996264)"/>
      <use xlink:href="#CMR17-61" transform="translate(271.540546 0)scale(0.996264)"/>
      <use xlink:href="#CMR17-6c" transform="translate(317.231023 0)scale(0.996264)"/>
      <use xlink:href="#CMR17-70" transform="translate(372.178048 0)scale(0.996264)"/>
      <use xlink:href="#CMR17-6f" transform="translate(425.675856 0)scale(0.996264)"/>
      <use xlink:href="#CMR17-74" transform="translate(471.366333 0)scale(0.996264)"/>
      <use xlink:href="#CMR17-65" transform="translate(506.647101 0)scale(0.996264)"/>
      <use xlink:href="#CMR17-6e" transform="translate(547.132761 0)scale(0.996264)"/>
      <use xlink:href="#CMR17-74" transform="translate(595.425677 0)scale(0.996264)"/>
      <use xlink:href="#CMR17-69" transform="translate(630.706445 0)scale(0.996264)"/>
      <use xlink:href="#CMR17-61" transform="translate(655.577504 0)scale(0.996264)"/>
      <use xlink:href="#CMR17-6c" transform="translate(701.267981 0)scale(0.996264)"/>
      <use xlink:href="#CMR17-2c" transform="translate(726.139039 0)scale(0.996264)"/>
      <use xlink:href="#CMR17-28" transform="translate(781.086064 0)scale(0.996264)"/>
      <use xlink:href="#CMR17-4b" transform="translate(816.366832 0)scale(0.996264)"/>
      <use xlink:href="#CMR17-29" transform="translate(888.041609 0)scale(0.996264)"/>
     </g>
    </g>
   </g>
   <g id="matplotlib.axis_2">
    <g id="ytick_1">
     <g id="line2d_6">
      <defs>
       <path id="mcd49b9534c" d="M 0 0 
L -2 0 
" style="stroke: #000000; stroke-width: 0.35"/>
      </defs>
      <g>
       <use xlink:href="#mcd49b9534c" x="25.265237" y="101.25016" style="stroke: #000000; stroke-width: 0.35"/>
      </g>
     </g>
     <g id="text_7">
      <!-- $\mathdefault{0.2}$ -->
      <g transform="translate(9.444547 104.017561)scale(0.08 -0.08)">
       <defs>
        <path id="CMMI12-3a" d="M 1178 307 
C 1178 492 1024 619 870 619 
C 685 619 557 466 557 313 
C 557 128 710 0 864 0 
C 1050 0 1178 153 1178 307 
z
" transform="scale(0.015625)"/>
       </defs>
       <use xlink:href="#CMR17-30" transform="scale(0.996264)"/>
       <use xlink:href="#CMMI12-3a" transform="translate(45.690477 0)scale(0.996264)"/>
       <use xlink:href="#CMR17-32" transform="translate(72.787654 0)scale(0.996264)"/>
      </g>
     </g>
    </g>
    <g id="ytick_2">
     <g id="line2d_7">
      <g>
       <use xlink:href="#mcd49b9534c" x="25.265237" y="76.02762" style="stroke: #000000; stroke-width: 0.35"/>
      </g>
     </g>
     <g id="text_8">
      <!-- $\mathdefault{0.4}$ -->
      <g transform="translate(9.444547 78.795021)scale(0.08 -0.08)">
       <use xlink:href="#CMR17-30" transform="scale(0.996264)"/>
       <use xlink:href="#CMMI12-3a" transform="translate(45.690477 0)scale(0.996264)"/>
       <use xlink:href="#CMR17-34" transform="translate(72.787654 0)scale(0.996264)"/>
      </g>
     </g>
    </g>
    <g id="ytick_3">
     <g id="line2d_8">
      <g>
       <use xlink:href="#mcd49b9534c" x="25.265237" y="50.80508" style="stroke: #000000; stroke-width: 0.35"/>
      </g>
     </g>
     <g id="text_9">
      <!-- $\mathdefault{0.6}$ -->
      <g transform="translate(9.444547 53.572481)scale(0.08 -0.08)">
       <use xlink:href="#CMR17-30" transform="scale(0.996264)"/>
       <use xlink:href="#CMMI12-3a" transform="translate(45.690477 0)scale(0.996264)"/>
       <use xlink:href="#CMR17-36" transform="translate(72.787654 0)scale(0.996264)"/>
      </g>
     </g>
    </g>
    <g id="ytick_4">
     <g id="line2d_9">
      <g>
       <use xlink:href="#mcd49b9534c" x="25.265237" y="25.58254" style="stroke: #000000; stroke-width: 0.35"/>
      </g>
     </g>
     <g id="text_10">
      <!-- $\mathdefault{0.8}$ -->
      <g transform="translate(9.444547 28.349941)scale(0.08 -0.08)">
       <use xlink:href="#CMR17-30" transform="scale(0.996264)"/>
       <use xlink:href="#CMMI12-3a" transform="translate(45.690477 0)scale(0.996264)"/>
       <use xlink:href="#CMR17-38" transform="translate(72.787654 0)scale(0.996264)"/>
      </g>
     </g>
    </g>
    <g id="text_11">
     <!-- filling fraction -->
     <g transform="translate(5.894802 89.412987)rotate(-90)scale(0.08 -0.08)">
      <defs>
       <path id="CMR17-c" d="M 2554 2764 
C 2400 2764 1926 2764 1805 2739 
C 1766 2725 1754 2725 1677 2725 
L 947 2725 
L 947 3469 
C 947 4073 1434 4352 1818 4352 
C 1939 4352 2214 4320 2355 4101 
C 2291 4101 2086 4101 2086 3878 
C 2086 3725 2189 3648 2317 3648 
C 2432 3648 2547 3712 2547 3885 
C 2547 4205 2240 4454 1843 4454 
C 1338 4454 634 4168 634 3469 
L 634 2725 
L 122 2725 
L 122 2560 
L 634 2560 
L 634 427 
C 634 184 608 153 198 153 
L 198 -13 
C 352 0 634 0 794 0 
C 960 0 1242 0 1395 -13 
L 1395 153 
C 986 153 960 178 960 427 
L 960 2560 
L 1901 2560 
C 2176 2560 2227 2502 2227 2222 
L 2227 427 
C 2227 184 2202 153 1792 153 
L 1792 -13 
C 1946 0 2227 0 2387 0 
C 2554 0 2835 0 2989 -13 
L 2989 153 
C 2579 153 2554 178 2554 427 
L 2554 2764 
z
" transform="scale(0.015625)"/>
       <path id="CMR17-67" d="M 710 1164 
C 832 1068 1043 960 1299 960 
C 1805 960 2240 1357 2240 1888 
C 2240 2054 2189 2310 1997 2509 
C 2176 2692 2438 2752 2586 2752 
C 2611 2752 2650 2752 2682 2734 
C 2656 2728 2598 2703 2598 2605 
C 2598 2527 2656 2471 2739 2471 
C 2835 2471 2886 2533 2886 2614 
C 2886 2731 2790 2854 2586 2854 
C 2330 2854 2106 2738 1926 2580 
C 1734 2753 1504 2816 1299 2816 
C 794 2816 358 2419 358 1888 
C 358 1522 570 1292 634 1228 
C 442 1004 442 743 442 711 
C 442 545 506 302 723 168 
C 390 85 128 -169 128 -486 
C 128 -943 736 -1280 1466 -1280 
C 2170 -1280 2803 -956 2803 -479 
C 2803 384 1856 384 1363 384 
C 1216 384 954 384 922 391 
C 723 423 589 602 589 826 
C 589 883 589 1024 710 1164 
z
M 1299 1068 
C 736 1068 736 1760 736 1889 
C 736 2016 736 2708 1299 2708 
C 1862 2708 1862 2016 1862 1889 
C 1862 1760 1862 1068 1299 1068 
z
M 1466 -1171 
C 826 -1171 384 -835 384 -486 
C 384 -289 493 -105 634 -4 
C 794 104 858 104 1293 104 
C 1818 104 2547 104 2547 -486 
C 2547 -835 2106 -1171 1466 -1171 
z
" transform="scale(0.015625)"/>
       <path id="CMR17-66" d="M 979 2560 
L 1709 2560 
L 1709 2725 
L 966 2725 
L 966 3494 
C 966 4022 1235 4352 1510 4352 
C 1594 4352 1690 4327 1754 4282 
C 1702 4269 1568 4225 1568 4067 
C 1568 3901 1696 3850 1786 3850 
C 1875 3850 2003 3901 2003 4067 
C 2003 4308 1773 4454 1517 4454 
C 1152 4454 653 4156 653 3481 
L 653 2725 
L 141 2725 
L 141 2560 
L 653 2560 
L 653 427 
C 653 184 627 153 218 153 
L 218 -13 
C 371 0 666 0 832 0 
C 1018 0 1344 0 1517 -13 
L 1517 153 
C 1056 153 979 153 979 439 
L 979 2560 
z
" transform="scale(0.015625)"/>
       <path id="CMR17-72" d="M 960 1497 
C 960 2112 1222 2688 1702 2688 
C 1747 2688 1792 2682 1837 2662 
C 1837 2662 1696 2617 1696 2452 
C 1696 2298 1818 2234 1914 2234 
C 1990 2234 2131 2279 2131 2458 
C 2131 2663 1926 2790 1709 2790 
C 1222 2790 1011 2317 947 2093 
L 941 2093 
L 941 2790 
L 198 2720 
L 198 2554 
C 576 2554 634 2515 634 2208 
L 634 428 
C 634 184 608 153 198 153 
L 198 -13 
C 352 0 646 0 813 0 
C 998 0 1325 0 1498 -13 
L 1498 153 
C 1037 153 960 153 960 440 
L 960 1497 
z
" transform="scale(0.015625)"/>
      </defs>
      <use xlink:href="#CMR17-c" transform="scale(0.996264)"/>
      <use xlink:href="#CMR17-6c" transform="translate(49.742223 0)scale(0.996264)"/>
      <use xlink:href="#CMR17-6c" transform="translate(74.613282 0)scale(0.996264)"/>
      <use xlink:href="#CMR17-69" transform="translate(99.48434 0)scale(0.996264)"/>
      <use xlink:href="#CMR17-6e" transform="translate(124.355399 0)scale(0.996264)"/>
      <use xlink:href="#CMR17-67" transform="translate(175.250769 0)scale(0.996264)"/>
      <use xlink:href="#CMR17-66" transform="translate(251.017212 0)scale(0.996264)"/>
      <use xlink:href="#CMR17-72" transform="translate(278.490724 0)scale(0.996264)"/>
      <use xlink:href="#CMR17-61" transform="translate(313.771492 0)scale(0.996264)"/>
      <use xlink:href="#CMR17-63" transform="translate(359.461969 0)scale(0.996264)"/>
      <use xlink:href="#CMR17-74" transform="translate(399.94763 0)scale(0.996264)"/>
      <use xlink:href="#CMR17-69" transform="translate(435.228398 0)scale(0.996264)"/>
      <use xlink:href="#CMR17-6f" transform="translate(460.099456 0)scale(0.996264)"/>
      <use xlink:href="#CMR17-6e" transform="translate(505.789933 0)scale(0.996264)"/>
     </g>
    </g>
   </g>
   <g id="LineCollection_1">
    <path d="M 27.450692 126.442868 
L 27.450692 126.435653 
" clip-path="url(#pd65417fcd6)" style="fill: none; stroke: #303030; stroke-width: 0.75"/>
    <path d="M 29.636147 126.373665 
L 29.636147 126.359078 
" clip-path="url(#pd65417fcd6)" style="fill: none; stroke: #303030; stroke-width: 0.75"/>
    <path d="M 31.821601 126.2395 
L 31.821601 126.216437 
" clip-path="url(#pd65417fcd6)" style="fill: none; stroke: #303030; stroke-width: 0.75"/>
    <path d="M 34.007056 125.780344 
L 34.007056 125.738542 
" clip-path="url(#pd65417fcd6)" style="fill: none; stroke: #303030; stroke-width: 0.75"/>
    <path d="M 36.192511 124.270728 
L 36.192511 124.18063 
" clip-path="url(#pd65417fcd6)" style="fill: none; stroke: #303030; stroke-width: 0.75"/>
    <path d="M 38.377966 85.476861 
L 38.377966 85.334742 
" clip-path="url(#pd65417fcd6)" style="fill: none; stroke: #303030; stroke-width: 0.75"/>
    <path d="M 40.563421 84.522025 
L 40.563421 84.508773 
" clip-path="url(#pd65417fcd6)" style="fill: none; stroke: #303030; stroke-width: 0.75"/>
    <path d="M 42.748876 84.470469 
L 42.748876 84.462808 
" clip-path="url(#pd65417fcd6)" style="fill: none; stroke: #303030; stroke-width: 0.75"/>
    <path d="M 44.93433 84.442776 
L 44.93433 84.440243 
" clip-path="url(#pd65417fcd6)" style="fill: none; stroke: #303030; stroke-width: 0.75"/>
    <path d="M 47.119785 84.44001 
L 47.119785 84.438168 
" clip-path="url(#pd65417fcd6)" style="fill: none; stroke: #303030; stroke-width: 0.75"/>
    <path d="M 49.30524 84.437816 
L 49.30524 84.436211 
" clip-path="url(#pd65417fcd6)" style="fill: none; stroke: #303030; stroke-width: 0.75"/>
    <path d="M 51.490695 84.435619 
L 51.490695 84.435273 
" clip-path="url(#pd65417fcd6)" style="fill: none; stroke: #303030; stroke-width: 0.75"/>
    <path d="M 53.67615 84.435303 
L 53.67615 84.435134 
" clip-path="url(#pd65417fcd6)" style="fill: none; stroke: #303030; stroke-width: 0.75"/>
    <path d="M 55.861605 84.435134 
L 55.861605 84.435134 
" clip-path="url(#pd65417fcd6)" style="fill: none; stroke: #303030; stroke-width: 0.75"/>
    <path d="M 58.047059 84.414043 
L 58.047059 84.405575 
" clip-path="url(#pd65417fcd6)" style="fill: none; stroke: #303030; stroke-width: 0.75"/>
    <path d="M 60.232514 84.426552 
L 60.232514 84.420869 
" clip-path="url(#pd65417fcd6)" style="fill: none; stroke: #303030; stroke-width: 0.75"/>
    <path d="M 62.417969 84.417473 
L 62.417969 84.409916 
" clip-path="url(#pd65417fcd6)" style="fill: none; stroke: #303030; stroke-width: 0.75"/>
    <path d="M 64.603424 84.351441 
L 64.603424 84.335601 
" clip-path="url(#pd65417fcd6)" style="fill: none; stroke: #303030; stroke-width: 0.75"/>
    <path d="M 66.788879 84.083466 
L 66.788879 84.050222 
" clip-path="url(#pd65417fcd6)" style="fill: none; stroke: #303030; stroke-width: 0.75"/>
    <path d="M 68.974334 83.354175 
L 68.974334 83.285544 
" clip-path="url(#pd65417fcd6)" style="fill: none; stroke: #303030; stroke-width: 0.75"/>
    <path d="M 71.159788 78.211237 
L 71.159788 78.085378 
" clip-path="url(#pd65417fcd6)" style="fill: none; stroke: #303030; stroke-width: 0.75"/>
    <path d="M 73.345243 77.211508 
L 73.345243 77.168802 
" clip-path="url(#pd65417fcd6)" style="fill: none; stroke: #303030; stroke-width: 0.75"/>
    <path d="M 75.530698 75.480107 
L 75.530698 75.424922 
" clip-path="url(#pd65417fcd6)" style="fill: none; stroke: #303030; stroke-width: 0.75"/>
    <path d="M 77.716153 75.403072 
L 77.716153 75.359385 
" clip-path="url(#pd65417fcd6)" style="fill: none; stroke: #303030; stroke-width: 0.75"/>
    <path d="M 79.901608 75.289349 
L 79.901608 75.213119 
" clip-path="url(#pd65417fcd6)" style="fill: none; stroke: #303030; stroke-width: 0.75"/>
    <path d="M 82.087063 71.999636 
L 82.087063 71.96606 
" clip-path="url(#pd65417fcd6)" style="fill: none; stroke: #303030; stroke-width: 0.75"/>
    <path d="M 84.272517 71.798139 
L 84.272517 71.770957 
" clip-path="url(#pd65417fcd6)" style="fill: none; stroke: #303030; stroke-width: 0.75"/>
    <path d="M 86.457972 71.402088 
L 86.457972 71.391 
" clip-path="url(#pd65417fcd6)" style="fill: none; stroke: #303030; stroke-width: 0.75"/>
    <path d="M 88.643427 71.405083 
L 88.643427 71.394382 
" clip-path="url(#pd65417fcd6)" style="fill: none; stroke: #303030; stroke-width: 0.75"/>
    <path d="M 90.828882 71.337997 
L 90.828882 71.330247 
" clip-path="url(#pd65417fcd6)" style="fill: none; stroke: #303030; stroke-width: 0.75"/>
    <path d="M 93.014337 71.322685 
L 93.014337 71.316347 
" clip-path="url(#pd65417fcd6)" style="fill: none; stroke: #303030; stroke-width: 0.75"/>
    <path d="M 95.199792 71.309765 
L 95.199792 71.306442 
" clip-path="url(#pd65417fcd6)" style="fill: none; stroke: #303030; stroke-width: 0.75"/>
    <path d="M 97.385246 71.302736 
L 97.385246 71.301029 
" clip-path="url(#pd65417fcd6)" style="fill: none; stroke: #303030; stroke-width: 0.75"/>
    <path d="M 99.570701 71.305343 
L 99.570701 71.302813 
" clip-path="url(#pd65417fcd6)" style="fill: none; stroke: #303030; stroke-width: 0.75"/>
    <path d="M 101.756156 71.299635 
L 101.756156 71.298871 
" clip-path="url(#pd65417fcd6)" style="fill: none; stroke: #303030; stroke-width: 0.75"/>
    <path d="M 103.941611 71.298858 
L 103.941611 71.298473 
" clip-path="url(#pd65417fcd6)" style="fill: none; stroke: #303030; stroke-width: 0.75"/>
    <path d="M 106.127066 71.297194 
L 106.127066 71.29543 
" clip-path="url(#pd65417fcd6)" style="fill: none; stroke: #303030; stroke-width: 0.75"/>
    <path d="M 108.312521 70.54983 
L 108.312521 70.507323 
" clip-path="url(#pd65417fcd6)" style="fill: none; stroke: #303030; stroke-width: 0.75"/>
    <path d="M 110.497975 71.064308 
L 110.497975 71.041448 
" clip-path="url(#pd65417fcd6)" style="fill: none; stroke: #303030; stroke-width: 0.75"/>
    <path d="M 112.68343 71.175067 
L 112.68343 71.163517 
" clip-path="url(#pd65417fcd6)" style="fill: none; stroke: #303030; stroke-width: 0.75"/>
    <path d="M 114.868885 68.618909 
L 114.868885 68.575505 
" clip-path="url(#pd65417fcd6)" style="fill: none; stroke: #303030; stroke-width: 0.75"/>
    <path d="M 117.05434 69.460016 
L 117.05434 69.41397 
" clip-path="url(#pd65417fcd6)" style="fill: none; stroke: #303030; stroke-width: 0.75"/>
    <path d="M 119.239795 70.268402 
L 119.239795 70.230663 
" clip-path="url(#pd65417fcd6)" style="fill: none; stroke: #303030; stroke-width: 0.75"/>
    <path d="M 121.425249 69.65647 
L 121.425249 69.614828 
" clip-path="url(#pd65417fcd6)" style="fill: none; stroke: #303030; stroke-width: 0.75"/>
    <path d="M 123.610704 67.358889 
L 123.610704 67.357862 
" clip-path="url(#pd65417fcd6)" style="fill: none; stroke: #303030; stroke-width: 0.75"/>
    <path d="M 127.981614 67.620107 
L 127.981614 67.620107 
" clip-path="url(#pd65417fcd6)" style="fill: none; stroke: #303030; stroke-width: 0.75"/>
    <path d="M 132.352524 67.620107 
L 132.352524 67.620107 
" clip-path="url(#pd65417fcd6)" style="fill: none; stroke: #303030; stroke-width: 0.75"/>
    <path d="M 136.723433 63.417976 
L 136.723433 63.416775 
" clip-path="url(#pd65417fcd6)" style="fill: none; stroke: #303030; stroke-width: 0.75"/>
    <path d="M 141.094343 63.41635 
L 141.094343 63.41635 
" clip-path="url(#pd65417fcd6)" style="fill: none; stroke: #303030; stroke-width: 0.75"/>
    <path d="M 145.465253 63.41635 
L 145.465253 63.41635 
" clip-path="url(#pd65417fcd6)" style="fill: none; stroke: #303030; stroke-width: 0.75"/>
    <path d="M 149.836162 63.41635 
L 149.836162 63.41635 
" clip-path="url(#pd65417fcd6)" style="fill: none; stroke: #303030; stroke-width: 0.75"/>
    <path d="M 154.207072 62.016651 
L 154.207072 62.015505 
" clip-path="url(#pd65417fcd6)" style="fill: none; stroke: #303030; stroke-width: 0.75"/>
    <path d="M 158.577982 63.41635 
L 158.577982 63.41635 
" clip-path="url(#pd65417fcd6)" style="fill: none; stroke: #303030; stroke-width: 0.75"/>
    <path d="M 162.948891 63.41635 
L 162.948891 63.41635 
" clip-path="url(#pd65417fcd6)" style="fill: none; stroke: #303030; stroke-width: 0.75"/>
    <path d="M 167.319801 63.41635 
L 167.319801 63.41635 
" clip-path="url(#pd65417fcd6)" style="fill: none; stroke: #303030; stroke-width: 0.75"/>
    <path d="M 171.690711 63.41635 
L 171.690711 63.41635 
" clip-path="url(#pd65417fcd6)" style="fill: none; stroke: #303030; stroke-width: 0.75"/>
    <path d="M 176.06162 62.015098 
L 176.06162 62.015098 
" clip-path="url(#pd65417fcd6)" style="fill: none; stroke: #303030; stroke-width: 0.75"/>
    <path d="M 180.43253 62.015098 
L 180.43253 62.015098 
" clip-path="url(#pd65417fcd6)" style="fill: none; stroke: #303030; stroke-width: 0.75"/>
    <path d="M 184.80344 63.41635 
L 184.80344 63.41635 
" clip-path="url(#pd65417fcd6)" style="fill: none; stroke: #303030; stroke-width: 0.75"/>
    <path d="M 189.174349 62.015098 
L 189.174349 62.015098 
" clip-path="url(#pd65417fcd6)" style="fill: none; stroke: #303030; stroke-width: 0.75"/>
    <path d="M 193.545259 63.41635 
L 193.545259 63.41635 
" clip-path="url(#pd65417fcd6)" style="fill: none; stroke: #303030; stroke-width: 0.75"/>
    <path d="M 197.916169 62.015098 
L 197.916169 62.015098 
" clip-path="url(#pd65417fcd6)" style="fill: none; stroke: #303030; stroke-width: 0.75"/>
    <path d="M 202.287078 63.41635 
L 202.287078 63.41635 
" clip-path="url(#pd65417fcd6)" style="fill: none; stroke: #303030; stroke-width: 0.75"/>
    <path d="M 206.657988 62.015098 
L 206.657988 62.015098 
" clip-path="url(#pd65417fcd6)" style="fill: none; stroke: #303030; stroke-width: 0.75"/>
    <path d="M 211.028898 62.015098 
L 211.028898 62.015098 
" clip-path="url(#pd65417fcd6)" style="fill: none; stroke: #303030; stroke-width: 0.75"/>
    <path d="M 215.399807 63.18194 
L 215.399807 63.159362 
" clip-path="url(#pd65417fcd6)" style="fill: none; stroke: #303030; stroke-width: 0.75"/>
    <path d="M 219.770717 62.015098 
L 219.770717 62.015098 
" clip-path="url(#pd65417fcd6)" style="fill: none; stroke: #303030; stroke-width: 0.75"/>
   </g>
   <g id="LineCollection_2">
    <path d="M 95.199792 123.003778 
L 95.199792 122.946597 
" clip-path="url(#pd65417fcd6)" style="fill: none; stroke: #ff7f50; stroke-width: 0.75"/>
    <path d="M 99.570701 83.181264 
L 99.570701 83.110028 
" clip-path="url(#pd65417fcd6)" style="fill: none; stroke: #ff7f50; stroke-width: 0.75"/>
    <path d="M 103.941611 75.523 
L 103.941611 75.462314 
" clip-path="url(#pd65417fcd6)" style="fill: none; stroke: #ff7f50; stroke-width: 0.75"/>
    <path d="M 108.312521 71.507774 
L 108.312521 71.465146 
" clip-path="url(#pd65417fcd6)" style="fill: none; stroke: #ff7f50; stroke-width: 0.75"/>
    <path d="M 112.68343 67.917979 
L 112.68343 67.873382 
" clip-path="url(#pd65417fcd6)" style="fill: none; stroke: #ff7f50; stroke-width: 0.75"/>
    <path d="M 117.05434 64.477041 
L 117.05434 64.436964 
" clip-path="url(#pd65417fcd6)" style="fill: none; stroke: #ff7f50; stroke-width: 0.75"/>
    <path d="M 121.425249 63.249542 
L 121.425249 63.218855 
" clip-path="url(#pd65417fcd6)" style="fill: none; stroke: #ff7f50; stroke-width: 0.75"/>
    <path d="M 125.796159 62.052036 
L 125.796159 62.02283 
" clip-path="url(#pd65417fcd6)" style="fill: none; stroke: #ff7f50; stroke-width: 0.75"/>
    <path d="M 130.167069 60.720488 
L 130.167069 60.693143 
" clip-path="url(#pd65417fcd6)" style="fill: none; stroke: #ff7f50; stroke-width: 0.75"/>
    <path d="M 134.537978 59.757698 
L 134.537978 59.721143 
" clip-path="url(#pd65417fcd6)" style="fill: none; stroke: #ff7f50; stroke-width: 0.75"/>
    <path d="M 138.908888 58.455127 
L 138.908888 58.408239 
" clip-path="url(#pd65417fcd6)" style="fill: none; stroke: #ff7f50; stroke-width: 0.75"/>
    <path d="M 143.279798 56.963169 
L 143.279798 56.904448 
" clip-path="url(#pd65417fcd6)" style="fill: none; stroke: #ff7f50; stroke-width: 0.75"/>
    <path d="M 147.650707 53.100701 
L 147.650707 53.056368 
" clip-path="url(#pd65417fcd6)" style="fill: none; stroke: #ff7f50; stroke-width: 0.75"/>
    <path d="M 152.021617 53.950651 
L 152.021617 53.926129 
" clip-path="url(#pd65417fcd6)" style="fill: none; stroke: #ff7f50; stroke-width: 0.75"/>
    <path d="M 156.392527 52.232346 
L 156.392527 52.225726 
" clip-path="url(#pd65417fcd6)" style="fill: none; stroke: #ff7f50; stroke-width: 0.75"/>
    <path d="M 160.763436 48.819968 
L 160.763436 48.769138 
" clip-path="url(#pd65417fcd6)" style="fill: none; stroke: #ff7f50; stroke-width: 0.75"/>
    <path d="M 165.134346 51.794199 
L 165.134346 51.766196 
" clip-path="url(#pd65417fcd6)" style="fill: none; stroke: #ff7f50; stroke-width: 0.75"/>
    <path d="M 169.505256 51.11451 
L 169.505256 51.083116 
" clip-path="url(#pd65417fcd6)" style="fill: none; stroke: #ff7f50; stroke-width: 0.75"/>
    <path d="M 173.876165 50.63545 
L 173.876165 50.578428 
" clip-path="url(#pd65417fcd6)" style="fill: none; stroke: #ff7f50; stroke-width: 0.75"/>
    <path d="M 178.247075 47.317743 
L 178.247075 47.252575 
" clip-path="url(#pd65417fcd6)" style="fill: none; stroke: #ff7f50; stroke-width: 0.75"/>
    <path d="M 182.617985 45.302255 
L 182.617985 45.287853 
" clip-path="url(#pd65417fcd6)" style="fill: none; stroke: #ff7f50; stroke-width: 0.75"/>
    <path d="M 186.988894 45.453894 
L 186.988894 45.423847 
" clip-path="url(#pd65417fcd6)" style="fill: none; stroke: #ff7f50; stroke-width: 0.75"/>
    <path d="M 191.359804 45.47429 
L 191.359804 45.45393 
" clip-path="url(#pd65417fcd6)" style="fill: none; stroke: #ff7f50; stroke-width: 0.75"/>
    <path d="M 195.730714 48.002576 
L 195.730714 48.002576 
" clip-path="url(#pd65417fcd6)" style="fill: none; stroke: #ff7f50; stroke-width: 0.75"/>
    <path d="M 200.101623 45.200071 
L 200.101623 45.200071 
" clip-path="url(#pd65417fcd6)" style="fill: none; stroke: #ff7f50; stroke-width: 0.75"/>
    <path d="M 204.472533 45.200071 
L 204.472533 45.200071 
" clip-path="url(#pd65417fcd6)" style="fill: none; stroke: #ff7f50; stroke-width: 0.75"/>
    <path d="M 208.843443 45.200071 
L 208.843443 45.200071 
" clip-path="url(#pd65417fcd6)" style="fill: none; stroke: #ff7f50; stroke-width: 0.75"/>
    <path d="M 213.214352 42.397567 
L 213.214352 42.397567 
" clip-path="url(#pd65417fcd6)" style="fill: none; stroke: #ff7f50; stroke-width: 0.75"/>
    <path d="M 217.585262 45.200071 
L 217.585262 45.200071 
" clip-path="url(#pd65417fcd6)" style="fill: none; stroke: #ff7f50; stroke-width: 0.75"/>
    <path d="M 221.956172 40.996315 
L 221.956172 40.996315 
" clip-path="url(#pd65417fcd6)" style="fill: none; stroke: #ff7f50; stroke-width: 0.75"/>
   </g>
   <g id="LineCollection_3">
    <path d="M 130.167069 126.004986 
L 130.167069 125.98872 
" clip-path="url(#pd65417fcd6)" style="fill: none; stroke: #22b2aa; stroke-opacity: 0.6; stroke-width: 0.75"/>
    <path d="M 132.352524 125.129801 
L 132.352524 125.098954 
" clip-path="url(#pd65417fcd6)" style="fill: none; stroke: #22b2aa; stroke-opacity: 0.6; stroke-width: 0.75"/>
    <path d="M 134.537978 121.415989 
L 134.537978 121.332387 
" clip-path="url(#pd65417fcd6)" style="fill: none; stroke: #22b2aa; stroke-opacity: 0.6; stroke-width: 0.75"/>
    <path d="M 136.723433 72.431464 
L 136.723433 72.289152 
" clip-path="url(#pd65417fcd6)" style="fill: none; stroke: #22b2aa; stroke-opacity: 0.6; stroke-width: 0.75"/>
    <path d="M 138.908888 59.348059 
L 138.908888 59.253681 
" clip-path="url(#pd65417fcd6)" style="fill: none; stroke: #22b2aa; stroke-opacity: 0.6; stroke-width: 0.75"/>
    <path d="M 141.094343 52.819528 
L 141.094343 52.737407 
" clip-path="url(#pd65417fcd6)" style="fill: none; stroke: #22b2aa; stroke-opacity: 0.6; stroke-width: 0.75"/>
    <path d="M 143.279798 46.889799 
L 143.279798 46.815321 
" clip-path="url(#pd65417fcd6)" style="fill: none; stroke: #22b2aa; stroke-opacity: 0.6; stroke-width: 0.75"/>
    <path d="M 145.465253 43.930724 
L 145.465253 43.875911 
" clip-path="url(#pd65417fcd6)" style="fill: none; stroke: #22b2aa; stroke-opacity: 0.6; stroke-width: 0.75"/>
    <path d="M 147.650707 42.666368 
L 147.650707 42.627888 
" clip-path="url(#pd65417fcd6)" style="fill: none; stroke: #22b2aa; stroke-opacity: 0.6; stroke-width: 0.75"/>
    <path d="M 149.836162 40.62598 
L 149.836162 40.560513 
" clip-path="url(#pd65417fcd6)" style="fill: none; stroke: #22b2aa; stroke-opacity: 0.6; stroke-width: 0.75"/>
    <path d="M 152.021617 40.765384 
L 152.021617 40.717369 
" clip-path="url(#pd65417fcd6)" style="fill: none; stroke: #22b2aa; stroke-opacity: 0.6; stroke-width: 0.75"/>
    <path d="M 154.207072 34.666925 
L 154.207072 34.615186 
" clip-path="url(#pd65417fcd6)" style="fill: none; stroke: #22b2aa; stroke-opacity: 0.6; stroke-width: 0.75"/>
    <path d="M 156.392527 36.848914 
L 156.392527 36.815341 
" clip-path="url(#pd65417fcd6)" style="fill: none; stroke: #22b2aa; stroke-opacity: 0.6; stroke-width: 0.75"/>
    <path d="M 158.577982 33.527458 
L 158.577982 33.480334 
" clip-path="url(#pd65417fcd6)" style="fill: none; stroke: #22b2aa; stroke-opacity: 0.6; stroke-width: 0.75"/>
    <path d="M 160.763436 29.099349 
L 160.763436 29.055642 
" clip-path="url(#pd65417fcd6)" style="fill: none; stroke: #22b2aa; stroke-opacity: 0.6; stroke-width: 0.75"/>
    <path d="M 162.948891 25.64184 
L 162.948891 25.618123 
" clip-path="url(#pd65417fcd6)" style="fill: none; stroke: #22b2aa; stroke-opacity: 0.6; stroke-width: 0.75"/>
    <path d="M 165.134346 28.440021 
L 165.134346 28.430739 
" clip-path="url(#pd65417fcd6)" style="fill: none; stroke: #22b2aa; stroke-opacity: 0.6; stroke-width: 0.75"/>
    <path d="M 167.319801 25.254913 
L 167.319801 25.222986 
" clip-path="url(#pd65417fcd6)" style="fill: none; stroke: #22b2aa; stroke-opacity: 0.6; stroke-width: 0.75"/>
    <path d="M 169.505256 20.407591 
L 169.505256 20.280515 
" clip-path="url(#pd65417fcd6)" style="fill: none; stroke: #22b2aa; stroke-opacity: 0.6; stroke-width: 0.75"/>
    <path d="M 171.690711 20.969447 
L 171.690711 20.875067 
" clip-path="url(#pd65417fcd6)" style="fill: none; stroke: #22b2aa; stroke-opacity: 0.6; stroke-width: 0.75"/>
    <path d="M 173.876165 14.410049 
L 173.876165 14.401789 
" clip-path="url(#pd65417fcd6)" style="fill: none; stroke: #22b2aa; stroke-opacity: 0.6; stroke-width: 0.75"/>
    <path d="M 176.06162 14.398907 
L 176.06162 14.391699 
" clip-path="url(#pd65417fcd6)" style="fill: none; stroke: #22b2aa; stroke-opacity: 0.6; stroke-width: 0.75"/>
    <path d="M 178.247075 14.37548 
L 178.247075 14.373596 
" clip-path="url(#pd65417fcd6)" style="fill: none; stroke: #22b2aa; stroke-opacity: 0.6; stroke-width: 0.75"/>
    <path d="M 180.43253 14.383052 
L 180.43253 14.378902 
" clip-path="url(#pd65417fcd6)" style="fill: none; stroke: #22b2aa; stroke-opacity: 0.6; stroke-width: 0.75"/>
    <path d="M 182.617985 14.377636 
L 182.617985 14.374882 
" clip-path="url(#pd65417fcd6)" style="fill: none; stroke: #22b2aa; stroke-opacity: 0.6; stroke-width: 0.75"/>
    <path d="M 184.80344 14.393109 
L 184.80344 14.386675 
" clip-path="url(#pd65417fcd6)" style="fill: none; stroke: #22b2aa; stroke-opacity: 0.6; stroke-width: 0.75"/>
    <path d="M 186.988894 14.361054 
L 186.988894 14.354544 
" clip-path="url(#pd65417fcd6)" style="fill: none; stroke: #22b2aa; stroke-opacity: 0.6; stroke-width: 0.75"/>
    <path d="M 189.174349 14.055114 
L 189.174349 14.023833 
" clip-path="url(#pd65417fcd6)" style="fill: none; stroke: #22b2aa; stroke-opacity: 0.6; stroke-width: 0.75"/>
    <path d="M 191.359804 14.189238 
L 191.359804 14.168038 
" clip-path="url(#pd65417fcd6)" style="fill: none; stroke: #22b2aa; stroke-opacity: 0.6; stroke-width: 0.75"/>
    <path d="M 193.545259 14.375444 
L 193.545259 14.37343 
" clip-path="url(#pd65417fcd6)" style="fill: none; stroke: #22b2aa; stroke-opacity: 0.6; stroke-width: 0.75"/>
    <path d="M 195.730714 6.987294 
L 195.730714 6.896708 
" clip-path="url(#pd65417fcd6)" style="fill: none; stroke: #22b2aa; stroke-opacity: 0.6; stroke-width: 0.75"/>
    <path d="M 197.916169 4.452794 
L 197.916169 4.435196 
" clip-path="url(#pd65417fcd6)" style="fill: none; stroke: #22b2aa; stroke-opacity: 0.6; stroke-width: 0.75"/>
    <path d="M 200.101623 1.184136 
L 200.101623 1.114523 
" clip-path="url(#pd65417fcd6)" style="fill: none; stroke: #22b2aa; stroke-opacity: 0.6; stroke-width: 0.75"/>
    <path d="M 202.287078 0.552098 
L 202.287078 0.516533 
" clip-path="url(#pd65417fcd6)" style="fill: none; stroke: #22b2aa; stroke-opacity: 0.6; stroke-width: 0.75"/>
    <path d="M 204.472533 0.361605 
L 204.472533 0.360149 
" clip-path="url(#pd65417fcd6)" style="fill: none; stroke: #22b2aa; stroke-opacity: 0.6; stroke-width: 0.75"/>
    <path d="M 206.657988 0.36 
L 206.657988 0.36 
" clip-path="url(#pd65417fcd6)" style="fill: none; stroke: #22b2aa; stroke-opacity: 0.6; stroke-width: 0.75"/>
    <path d="M 208.843443 0.36 
L 208.843443 0.36 
" clip-path="url(#pd65417fcd6)" style="fill: none; stroke: #22b2aa; stroke-opacity: 0.6; stroke-width: 0.75"/>
    <path d="M 211.028898 0.36 
L 211.028898 0.36 
" clip-path="url(#pd65417fcd6)" style="fill: none; stroke: #22b2aa; stroke-opacity: 0.6; stroke-width: 0.75"/>
    <path d="M 213.214352 0.36 
L 213.214352 0.36 
" clip-path="url(#pd65417fcd6)" style="fill: none; stroke: #22b2aa; stroke-opacity: 0.6; stroke-width: 0.75"/>
    <path d="M 215.399807 0.36 
L 215.399807 0.36 
" clip-path="url(#pd65417fcd6)" style="fill: none; stroke: #22b2aa; stroke-opacity: 0.6; stroke-width: 0.75"/>
    <path d="M 217.585262 0.36 
L 217.585262 0.36 
" clip-path="url(#pd65417fcd6)" style="fill: none; stroke: #22b2aa; stroke-opacity: 0.6; stroke-width: 0.75"/>
    <path d="M 219.770717 0.36 
L 219.770717 0.36 
" clip-path="url(#pd65417fcd6)" style="fill: none; stroke: #22b2aa; stroke-opacity: 0.6; stroke-width: 0.75"/>
    <path d="M 221.956172 0.36 
L 221.956172 0.36 
" clip-path="url(#pd65417fcd6)" style="fill: none; stroke: #22b2aa; stroke-opacity: 0.6; stroke-width: 0.75"/>
   </g>
   <g id="line2d_10">
    <path d="M 25.265237 84.435134 
L 243.81072 84.435134 
" clip-path="url(#pd65417fcd6)" style="fill: none; stroke: #2ca02c; stroke-opacity: 0.5; stroke-width: 0.75; stroke-linecap: round"/>
   </g>
   <g id="line2d_11">
    <path d="M 25.265237 71.298394 
L 243.81072 71.298394 
" clip-path="url(#pd65417fcd6)" style="fill: none; stroke: #1f77b4; stroke-opacity: 0.5; stroke-width: 0.75; stroke-linecap: round"/>
   </g>
   <g id="line2d_12">
    <path d="M 27.450692 126.43926 
L 29.636147 126.366372 
L 31.821601 126.227969 
L 34.007056 125.759443 
L 36.192511 124.225679 
L 38.377966 85.405802 
L 40.563421 84.515399 
L 42.748876 84.466638 
L 44.93433 84.441509 
L 47.119785 84.439089 
L 49.30524 84.437014 
L 51.490695 84.435446 
L 53.67615 84.435218 
L 55.861605 84.435134 
L 58.047059 84.409809 
L 60.232514 84.423711 
L 62.417969 84.413694 
L 64.603424 84.343521 
L 66.788879 84.066844 
L 68.974334 83.319859 
L 71.159788 78.148308 
L 73.345243 77.190155 
L 75.530698 75.452514 
L 77.716153 75.381228 
L 79.901608 75.251234 
L 82.087063 71.982848 
L 84.272517 71.784548 
L 86.457972 71.396544 
L 88.643427 71.399733 
L 90.828882 71.334122 
L 93.014337 71.319516 
L 95.199792 71.308104 
L 97.385246 71.301882 
L 99.570701 71.304078 
L 101.756156 71.299253 
L 103.941611 71.298666 
L 106.127066 71.296312 
L 108.312521 70.528577 
L 110.497975 71.052878 
L 112.68343 71.169292 
L 114.868885 68.597207 
L 117.05434 69.436993 
L 119.239795 70.249533 
L 121.425249 69.635649 
L 123.610704 67.358376 
L 127.981614 67.620107 
L 132.352524 67.620107 
L 136.723433 63.417376 
L 141.094343 63.41635 
L 145.465253 63.41635 
L 149.836162 63.41635 
L 154.207072 62.016078 
L 158.577982 63.41635 
L 162.948891 63.41635 
L 167.319801 63.41635 
L 171.690711 63.41635 
L 176.06162 62.015098 
L 180.43253 62.015098 
L 184.80344 63.41635 
L 189.174349 62.015098 
L 193.545259 63.41635 
L 197.916169 62.015098 
L 202.287078 63.41635 
L 206.657988 62.015098 
L 211.028898 62.015098 
L 215.399807 63.170651 
L 219.770717 62.015098 
" clip-path="url(#pd65417fcd6)" style="fill: none; stroke: #303030; stroke-width: 0.75; stroke-linecap: round"/>
    <defs>
     <path id="m56302cebbf" d="M 0 1 
C 0.265203 1 0.51958 0.894634 0.707107 0.707107 
C 0.894634 0.51958 1 0.265203 1 0 
C 1 -0.265203 0.894634 -0.51958 0.707107 -0.707107 
C 0.51958 -0.894634 0.265203 -1 0 -1 
C -0.265203 -1 -0.51958 -0.894634 -0.707107 -0.707107 
C -0.894634 -0.51958 -1 -0.265203 -1 0 
C -1 0.265203 -0.894634 0.51958 -0.707107 0.707107 
C -0.51958 0.894634 -0.265203 1 0 1 
z
" style="stroke: #303030; stroke-width: 0.35"/>
    </defs>
    <g clip-path="url(#pd65417fcd6)">
     <use xlink:href="#m56302cebbf" x="27.450692" y="126.43926" style="fill: #303030; stroke: #303030; stroke-width: 0.35"/>
     <use xlink:href="#m56302cebbf" x="29.636147" y="126.366372" style="fill: #303030; stroke: #303030; stroke-width: 0.35"/>
     <use xlink:href="#m56302cebbf" x="31.821601" y="126.227969" style="fill: #303030; stroke: #303030; stroke-width: 0.35"/>
     <use xlink:href="#m56302cebbf" x="34.007056" y="125.759443" style="fill: #303030; stroke: #303030; stroke-width: 0.35"/>
     <use xlink:href="#m56302cebbf" x="36.192511" y="124.225679" style="fill: #303030; stroke: #303030; stroke-width: 0.35"/>
     <use xlink:href="#m56302cebbf" x="38.377966" y="85.405802" style="fill: #303030; stroke: #303030; stroke-width: 0.35"/>
     <use xlink:href="#m56302cebbf" x="40.563421" y="84.515399" style="fill: #303030; stroke: #303030; stroke-width: 0.35"/>
     <use xlink:href="#m56302cebbf" x="42.748876" y="84.466638" style="fill: #303030; stroke: #303030; stroke-width: 0.35"/>
     <use xlink:href="#m56302cebbf" x="44.93433" y="84.441509" style="fill: #303030; stroke: #303030; stroke-width: 0.35"/>
     <use xlink:href="#m56302cebbf" x="47.119785" y="84.439089" style="fill: #303030; stroke: #303030; stroke-width: 0.35"/>
     <use xlink:href="#m56302cebbf" x="49.30524" y="84.437014" style="fill: #303030; stroke: #303030; stroke-width: 0.35"/>
     <use xlink:href="#m56302cebbf" x="51.490695" y="84.435446" style="fill: #303030; stroke: #303030; stroke-width: 0.35"/>
     <use xlink:href="#m56302cebbf" x="53.67615" y="84.435218" style="fill: #303030; stroke: #303030; stroke-width: 0.35"/>
     <use xlink:href="#m56302cebbf" x="55.861605" y="84.435134" style="fill: #303030; stroke: #303030; stroke-width: 0.35"/>
     <use xlink:href="#m56302cebbf" x="58.047059" y="84.409809" style="fill: #303030; stroke: #303030; stroke-width: 0.35"/>
     <use xlink:href="#m56302cebbf" x="60.232514" y="84.423711" style="fill: #303030; stroke: #303030; stroke-width: 0.35"/>
     <use xlink:href="#m56302cebbf" x="62.417969" y="84.413694" style="fill: #303030; stroke: #303030; stroke-width: 0.35"/>
     <use xlink:href="#m56302cebbf" x="64.603424" y="84.343521" style="fill: #303030; stroke: #303030; stroke-width: 0.35"/>
     <use xlink:href="#m56302cebbf" x="66.788879" y="84.066844" style="fill: #303030; stroke: #303030; stroke-width: 0.35"/>
     <use xlink:href="#m56302cebbf" x="68.974334" y="83.319859" style="fill: #303030; stroke: #303030; stroke-width: 0.35"/>
     <use xlink:href="#m56302cebbf" x="71.159788" y="78.148308" style="fill: #303030; stroke: #303030; stroke-width: 0.35"/>
     <use xlink:href="#m56302cebbf" x="73.345243" y="77.190155" style="fill: #303030; stroke: #303030; stroke-width: 0.35"/>
     <use xlink:href="#m56302cebbf" x="75.530698" y="75.452514" style="fill: #303030; stroke: #303030; stroke-width: 0.35"/>
     <use xlink:href="#m56302cebbf" x="77.716153" y="75.381228" style="fill: #303030; stroke: #303030; stroke-width: 0.35"/>
     <use xlink:href="#m56302cebbf" x="79.901608" y="75.251234" style="fill: #303030; stroke: #303030; stroke-width: 0.35"/>
     <use xlink:href="#m56302cebbf" x="82.087063" y="71.982848" style="fill: #303030; stroke: #303030; stroke-width: 0.35"/>
     <use xlink:href="#m56302cebbf" x="84.272517" y="71.784548" style="fill: #303030; stroke: #303030; stroke-width: 0.35"/>
     <use xlink:href="#m56302cebbf" x="86.457972" y="71.396544" style="fill: #303030; stroke: #303030; stroke-width: 0.35"/>
     <use xlink:href="#m56302cebbf" x="88.643427" y="71.399733" style="fill: #303030; stroke: #303030; stroke-width: 0.35"/>
     <use xlink:href="#m56302cebbf" x="90.828882" y="71.334122" style="fill: #303030; stroke: #303030; stroke-width: 0.35"/>
     <use xlink:href="#m56302cebbf" x="93.014337" y="71.319516" style="fill: #303030; stroke: #303030; stroke-width: 0.35"/>
     <use xlink:href="#m56302cebbf" x="95.199792" y="71.308104" style="fill: #303030; stroke: #303030; stroke-width: 0.35"/>
     <use xlink:href="#m56302cebbf" x="97.385246" y="71.301882" style="fill: #303030; stroke: #303030; stroke-width: 0.35"/>
     <use xlink:href="#m56302cebbf" x="99.570701" y="71.304078" style="fill: #303030; stroke: #303030; stroke-width: 0.35"/>
     <use xlink:href="#m56302cebbf" x="101.756156" y="71.299253" style="fill: #303030; stroke: #303030; stroke-width: 0.35"/>
     <use xlink:href="#m56302cebbf" x="103.941611" y="71.298666" style="fill: #303030; stroke: #303030; stroke-width: 0.35"/>
     <use xlink:href="#m56302cebbf" x="106.127066" y="71.296312" style="fill: #303030; stroke: #303030; stroke-width: 0.35"/>
     <use xlink:href="#m56302cebbf" x="108.312521" y="70.528577" style="fill: #303030; stroke: #303030; stroke-width: 0.35"/>
     <use xlink:href="#m56302cebbf" x="110.497975" y="71.052878" style="fill: #303030; stroke: #303030; stroke-width: 0.35"/>
     <use xlink:href="#m56302cebbf" x="112.68343" y="71.169292" style="fill: #303030; stroke: #303030; stroke-width: 0.35"/>
     <use xlink:href="#m56302cebbf" x="114.868885" y="68.597207" style="fill: #303030; stroke: #303030; stroke-width: 0.35"/>
     <use xlink:href="#m56302cebbf" x="117.05434" y="69.436993" style="fill: #303030; stroke: #303030; stroke-width: 0.35"/>
     <use xlink:href="#m56302cebbf" x="119.239795" y="70.249533" style="fill: #303030; stroke: #303030; stroke-width: 0.35"/>
     <use xlink:href="#m56302cebbf" x="121.425249" y="69.635649" style="fill: #303030; stroke: #303030; stroke-width: 0.35"/>
     <use xlink:href="#m56302cebbf" x="123.610704" y="67.358376" style="fill: #303030; stroke: #303030; stroke-width: 0.35"/>
     <use xlink:href="#m56302cebbf" x="127.981614" y="67.620107" style="fill: #303030; stroke: #303030; stroke-width: 0.35"/>
     <use xlink:href="#m56302cebbf" x="132.352524" y="67.620107" style="fill: #303030; stroke: #303030; stroke-width: 0.35"/>
     <use xlink:href="#m56302cebbf" x="136.723433" y="63.417376" style="fill: #303030; stroke: #303030; stroke-width: 0.35"/>
     <use xlink:href="#m56302cebbf" x="141.094343" y="63.41635" style="fill: #303030; stroke: #303030; stroke-width: 0.35"/>
     <use xlink:href="#m56302cebbf" x="145.465253" y="63.41635" style="fill: #303030; stroke: #303030; stroke-width: 0.35"/>
     <use xlink:href="#m56302cebbf" x="149.836162" y="63.41635" style="fill: #303030; stroke: #303030; stroke-width: 0.35"/>
     <use xlink:href="#m56302cebbf" x="154.207072" y="62.016078" style="fill: #303030; stroke: #303030; stroke-width: 0.35"/>
     <use xlink:href="#m56302cebbf" x="158.577982" y="63.41635" style="fill: #303030; stroke: #303030; stroke-width: 0.35"/>
     <use xlink:href="#m56302cebbf" x="162.948891" y="63.41635" style="fill: #303030; stroke: #303030; stroke-width: 0.35"/>
     <use xlink:href="#m56302cebbf" x="167.319801" y="63.41635" style="fill: #303030; stroke: #303030; stroke-width: 0.35"/>
     <use xlink:href="#m56302cebbf" x="171.690711" y="63.41635" style="fill: #303030; stroke: #303030; stroke-width: 0.35"/>
     <use xlink:href="#m56302cebbf" x="176.06162" y="62.015098" style="fill: #303030; stroke: #303030; stroke-width: 0.35"/>
     <use xlink:href="#m56302cebbf" x="180.43253" y="62.015098" style="fill: #303030; stroke: #303030; stroke-width: 0.35"/>
     <use xlink:href="#m56302cebbf" x="184.80344" y="63.41635" style="fill: #303030; stroke: #303030; stroke-width: 0.35"/>
     <use xlink:href="#m56302cebbf" x="189.174349" y="62.015098" style="fill: #303030; stroke: #303030; stroke-width: 0.35"/>
     <use xlink:href="#m56302cebbf" x="193.545259" y="63.41635" style="fill: #303030; stroke: #303030; stroke-width: 0.35"/>
     <use xlink:href="#m56302cebbf" x="197.916169" y="62.015098" style="fill: #303030; stroke: #303030; stroke-width: 0.35"/>
     <use xlink:href="#m56302cebbf" x="202.287078" y="63.41635" style="fill: #303030; stroke: #303030; stroke-width: 0.35"/>
     <use xlink:href="#m56302cebbf" x="206.657988" y="62.015098" style="fill: #303030; stroke: #303030; stroke-width: 0.35"/>
     <use xlink:href="#m56302cebbf" x="211.028898" y="62.015098" style="fill: #303030; stroke: #303030; stroke-width: 0.35"/>
     <use xlink:href="#m56302cebbf" x="215.399807" y="63.170651" style="fill: #303030; stroke: #303030; stroke-width: 0.35"/>
     <use xlink:href="#m56302cebbf" x="219.770717" y="62.015098" style="fill: #303030; stroke: #303030; stroke-width: 0.35"/>
    </g>
   </g>
   <g id="line2d_13">
    <path d="M 95.199792 122.975188 
L 99.570701 83.145646 
L 103.941611 75.492657 
L 108.312521 71.48646 
L 112.68343 67.895681 
L 117.05434 64.457002 
L 121.425249 63.234198 
L 125.796159 62.037433 
L 130.167069 60.706815 
L 134.537978 59.739421 
L 138.908888 58.431683 
L 143.279798 56.933808 
L 147.650707 53.078534 
L 152.021617 53.93839 
L 156.392527 52.229036 
L 160.763436 48.794553 
L 165.134346 51.780197 
L 169.505256 51.098813 
L 173.876165 50.606939 
L 178.247075 47.285159 
L 182.617985 45.295054 
L 186.988894 45.438871 
L 191.359804 45.46411 
L 195.730714 48.002576 
L 200.101623 45.200071 
L 204.472533 45.200071 
L 208.843443 45.200071 
L 213.214352 42.397567 
L 217.585262 45.200071 
L 221.956172 40.996315 
" clip-path="url(#pd65417fcd6)" style="fill: none; stroke: #ff7f50; stroke-width: 0.75; stroke-linecap: round"/>
    <defs>
     <path id="m22401937ee" d="M 0 1 
C 0.265203 1 0.51958 0.894634 0.707107 0.707107 
C 0.894634 0.51958 1 0.265203 1 0 
C 1 -0.265203 0.894634 -0.51958 0.707107 -0.707107 
C 0.51958 -0.894634 0.265203 -1 0 -1 
C -0.265203 -1 -0.51958 -0.894634 -0.707107 -0.707107 
C -0.894634 -0.51958 -1 -0.265203 -1 0 
C -1 0.265203 -0.894634 0.51958 -0.707107 0.707107 
C -0.51958 0.894634 -0.265203 1 0 1 
z
" style="stroke: #ff7f50; stroke-width: 0.35"/>
    </defs>
    <g clip-path="url(#pd65417fcd6)">
     <use xlink:href="#m22401937ee" x="95.199792" y="122.975188" style="fill: #ff7f50; stroke: #ff7f50; stroke-width: 0.35"/>
     <use xlink:href="#m22401937ee" x="99.570701" y="83.145646" style="fill: #ff7f50; stroke: #ff7f50; stroke-width: 0.35"/>
     <use xlink:href="#m22401937ee" x="103.941611" y="75.492657" style="fill: #ff7f50; stroke: #ff7f50; stroke-width: 0.35"/>
     <use xlink:href="#m22401937ee" x="108.312521" y="71.48646" style="fill: #ff7f50; stroke: #ff7f50; stroke-width: 0.35"/>
     <use xlink:href="#m22401937ee" x="112.68343" y="67.895681" style="fill: #ff7f50; stroke: #ff7f50; stroke-width: 0.35"/>
     <use xlink:href="#m22401937ee" x="117.05434" y="64.457002" style="fill: #ff7f50; stroke: #ff7f50; stroke-width: 0.35"/>
     <use xlink:href="#m22401937ee" x="121.425249" y="63.234198" style="fill: #ff7f50; stroke: #ff7f50; stroke-width: 0.35"/>
     <use xlink:href="#m22401937ee" x="125.796159" y="62.037433" style="fill: #ff7f50; stroke: #ff7f50; stroke-width: 0.35"/>
     <use xlink:href="#m22401937ee" x="130.167069" y="60.706815" style="fill: #ff7f50; stroke: #ff7f50; stroke-width: 0.35"/>
     <use xlink:href="#m22401937ee" x="134.537978" y="59.739421" style="fill: #ff7f50; stroke: #ff7f50; stroke-width: 0.35"/>
     <use xlink:href="#m22401937ee" x="138.908888" y="58.431683" style="fill: #ff7f50; stroke: #ff7f50; stroke-width: 0.35"/>
     <use xlink:href="#m22401937ee" x="143.279798" y="56.933808" style="fill: #ff7f50; stroke: #ff7f50; stroke-width: 0.35"/>
     <use xlink:href="#m22401937ee" x="147.650707" y="53.078534" style="fill: #ff7f50; stroke: #ff7f50; stroke-width: 0.35"/>
     <use xlink:href="#m22401937ee" x="152.021617" y="53.93839" style="fill: #ff7f50; stroke: #ff7f50; stroke-width: 0.35"/>
     <use xlink:href="#m22401937ee" x="156.392527" y="52.229036" style="fill: #ff7f50; stroke: #ff7f50; stroke-width: 0.35"/>
     <use xlink:href="#m22401937ee" x="160.763436" y="48.794553" style="fill: #ff7f50; stroke: #ff7f50; stroke-width: 0.35"/>
     <use xlink:href="#m22401937ee" x="165.134346" y="51.780197" style="fill: #ff7f50; stroke: #ff7f50; stroke-width: 0.35"/>
     <use xlink:href="#m22401937ee" x="169.505256" y="51.098813" style="fill: #ff7f50; stroke: #ff7f50; stroke-width: 0.35"/>
     <use xlink:href="#m22401937ee" x="173.876165" y="50.606939" style="fill: #ff7f50; stroke: #ff7f50; stroke-width: 0.35"/>
     <use xlink:href="#m22401937ee" x="178.247075" y="47.285159" style="fill: #ff7f50; stroke: #ff7f50; stroke-width: 0.35"/>
     <use xlink:href="#m22401937ee" x="182.617985" y="45.295054" style="fill: #ff7f50; stroke: #ff7f50; stroke-width: 0.35"/>
     <use xlink:href="#m22401937ee" x="186.988894" y="45.438871" style="fill: #ff7f50; stroke: #ff7f50; stroke-width: 0.35"/>
     <use xlink:href="#m22401937ee" x="191.359804" y="45.46411" style="fill: #ff7f50; stroke: #ff7f50; stroke-width: 0.35"/>
     <use xlink:href="#m22401937ee" x="195.730714" y="48.002576" style="fill: #ff7f50; stroke: #ff7f50; stroke-width: 0.35"/>
     <use xlink:href="#m22401937ee" x="200.101623" y="45.200071" style="fill: #ff7f50; stroke: #ff7f50; stroke-width: 0.35"/>
     <use xlink:href="#m22401937ee" x="204.472533" y="45.200071" style="fill: #ff7f50; stroke: #ff7f50; stroke-width: 0.35"/>
     <use xlink:href="#m22401937ee" x="208.843443" y="45.200071" style="fill: #ff7f50; stroke: #ff7f50; stroke-width: 0.35"/>
     <use xlink:href="#m22401937ee" x="213.214352" y="42.397567" style="fill: #ff7f50; stroke: #ff7f50; stroke-width: 0.35"/>
     <use xlink:href="#m22401937ee" x="217.585262" y="45.200071" style="fill: #ff7f50; stroke: #ff7f50; stroke-width: 0.35"/>
     <use xlink:href="#m22401937ee" x="221.956172" y="40.996315" style="fill: #ff7f50; stroke: #ff7f50; stroke-width: 0.35"/>
    </g>
   </g>
   <g id="line2d_14">
    <path d="M 130.167069 125.996853 
L 132.352524 125.114377 
L 134.537978 121.374188 
L 136.723433 72.360308 
L 138.908888 59.30087 
L 141.094343 52.778468 
L 143.279798 46.85256 
L 145.465253 43.903318 
L 147.650707 42.647128 
L 149.836162 40.593246 
L 152.021617 40.741377 
L 154.207072 34.641055 
L 156.392527 36.832128 
L 158.577982 33.503896 
L 160.763436 29.077496 
L 162.948891 25.629981 
L 165.134346 28.43538 
L 167.319801 25.238949 
L 169.505256 20.344053 
L 171.690711 20.922257 
L 173.876165 14.405919 
L 176.06162 14.395303 
L 178.247075 14.374538 
L 180.43253 14.380977 
L 182.617985 14.376259 
L 184.80344 14.389892 
L 186.988894 14.357799 
L 189.174349 14.039473 
L 191.359804 14.178638 
L 193.545259 14.374437 
L 195.730714 6.942001 
L 197.916169 4.443995 
L 200.101623 1.149329 
L 202.287078 0.534315 
L 204.472533 0.360877 
L 206.657988 0.36 
L 208.843443 0.36 
L 211.028898 0.36 
L 213.214352 0.36 
L 215.399807 0.36 
L 217.585262 0.36 
L 219.770717 0.36 
L 221.956172 0.36 
" clip-path="url(#pd65417fcd6)" style="fill: none; stroke: #22b2aa; stroke-opacity: 0.6; stroke-width: 0.75; stroke-linecap: round"/>
    <defs>
     <path id="m184379e0ab" d="M 0 1 
C 0.265203 1 0.51958 0.894634 0.707107 0.707107 
C 0.894634 0.51958 1 0.265203 1 0 
C 1 -0.265203 0.894634 -0.51958 0.707107 -0.707107 
C 0.51958 -0.894634 0.265203 -1 0 -1 
C -0.265203 -1 -0.51958 -0.894634 -0.707107 -0.707107 
C -0.894634 -0.51958 -1 -0.265203 -1 0 
C -1 0.265203 -0.894634 0.51958 -0.707107 0.707107 
C -0.51958 0.894634 -0.265203 1 0 1 
z
" style="stroke: #22b2aa; stroke-opacity: 0.6; stroke-width: 0.35"/>
    </defs>
    <g clip-path="url(#pd65417fcd6)">
     <use xlink:href="#m184379e0ab" x="130.167069" y="125.996853" style="fill: #22b2aa; fill-opacity: 0.6; stroke: #22b2aa; stroke-opacity: 0.6; stroke-width: 0.35"/>
     <use xlink:href="#m184379e0ab" x="132.352524" y="125.114377" style="fill: #22b2aa; fill-opacity: 0.6; stroke: #22b2aa; stroke-opacity: 0.6; stroke-width: 0.35"/>
     <use xlink:href="#m184379e0ab" x="134.537978" y="121.374188" style="fill: #22b2aa; fill-opacity: 0.6; stroke: #22b2aa; stroke-opacity: 0.6; stroke-width: 0.35"/>
     <use xlink:href="#m184379e0ab" x="136.723433" y="72.360308" style="fill: #22b2aa; fill-opacity: 0.6; stroke: #22b2aa; stroke-opacity: 0.6; stroke-width: 0.35"/>
     <use xlink:href="#m184379e0ab" x="138.908888" y="59.30087" style="fill: #22b2aa; fill-opacity: 0.6; stroke: #22b2aa; stroke-opacity: 0.6; stroke-width: 0.35"/>
     <use xlink:href="#m184379e0ab" x="141.094343" y="52.778468" style="fill: #22b2aa; fill-opacity: 0.6; stroke: #22b2aa; stroke-opacity: 0.6; stroke-width: 0.35"/>
     <use xlink:href="#m184379e0ab" x="143.279798" y="46.85256" style="fill: #22b2aa; fill-opacity: 0.6; stroke: #22b2aa; stroke-opacity: 0.6; stroke-width: 0.35"/>
     <use xlink:href="#m184379e0ab" x="145.465253" y="43.903318" style="fill: #22b2aa; fill-opacity: 0.6; stroke: #22b2aa; stroke-opacity: 0.6; stroke-width: 0.35"/>
     <use xlink:href="#m184379e0ab" x="147.650707" y="42.647128" style="fill: #22b2aa; fill-opacity: 0.6; stroke: #22b2aa; stroke-opacity: 0.6; stroke-width: 0.35"/>
     <use xlink:href="#m184379e0ab" x="149.836162" y="40.593246" style="fill: #22b2aa; fill-opacity: 0.6; stroke: #22b2aa; stroke-opacity: 0.6; stroke-width: 0.35"/>
     <use xlink:href="#m184379e0ab" x="152.021617" y="40.741377" style="fill: #22b2aa; fill-opacity: 0.6; stroke: #22b2aa; stroke-opacity: 0.6; stroke-width: 0.35"/>
     <use xlink:href="#m184379e0ab" x="154.207072" y="34.641055" style="fill: #22b2aa; fill-opacity: 0.6; stroke: #22b2aa; stroke-opacity: 0.6; stroke-width: 0.35"/>
     <use xlink:href="#m184379e0ab" x="156.392527" y="36.832128" style="fill: #22b2aa; fill-opacity: 0.6; stroke: #22b2aa; stroke-opacity: 0.6; stroke-width: 0.35"/>
     <use xlink:href="#m184379e0ab" x="158.577982" y="33.503896" style="fill: #22b2aa; fill-opacity: 0.6; stroke: #22b2aa; stroke-opacity: 0.6; stroke-width: 0.35"/>
     <use xlink:href="#m184379e0ab" x="160.763436" y="29.077496" style="fill: #22b2aa; fill-opacity: 0.6; stroke: #22b2aa; stroke-opacity: 0.6; stroke-width: 0.35"/>
     <use xlink:href="#m184379e0ab" x="162.948891" y="25.629981" style="fill: #22b2aa; fill-opacity: 0.6; stroke: #22b2aa; stroke-opacity: 0.6; stroke-width: 0.35"/>
     <use xlink:href="#m184379e0ab" x="165.134346" y="28.43538" style="fill: #22b2aa; fill-opacity: 0.6; stroke: #22b2aa; stroke-opacity: 0.6; stroke-width: 0.35"/>
     <use xlink:href="#m184379e0ab" x="167.319801" y="25.238949" style="fill: #22b2aa; fill-opacity: 0.6; stroke: #22b2aa; stroke-opacity: 0.6; stroke-width: 0.35"/>
     <use xlink:href="#m184379e0ab" x="169.505256" y="20.344053" style="fill: #22b2aa; fill-opacity: 0.6; stroke: #22b2aa; stroke-opacity: 0.6; stroke-width: 0.35"/>
     <use xlink:href="#m184379e0ab" x="171.690711" y="20.922257" style="fill: #22b2aa; fill-opacity: 0.6; stroke: #22b2aa; stroke-opacity: 0.6; stroke-width: 0.35"/>
     <use xlink:href="#m184379e0ab" x="173.876165" y="14.405919" style="fill: #22b2aa; fill-opacity: 0.6; stroke: #22b2aa; stroke-opacity: 0.6; stroke-width: 0.35"/>
     <use xlink:href="#m184379e0ab" x="176.06162" y="14.395303" style="fill: #22b2aa; fill-opacity: 0.6; stroke: #22b2aa; stroke-opacity: 0.6; stroke-width: 0.35"/>
     <use xlink:href="#m184379e0ab" x="178.247075" y="14.374538" style="fill: #22b2aa; fill-opacity: 0.6; stroke: #22b2aa; stroke-opacity: 0.6; stroke-width: 0.35"/>
     <use xlink:href="#m184379e0ab" x="180.43253" y="14.380977" style="fill: #22b2aa; fill-opacity: 0.6; stroke: #22b2aa; stroke-opacity: 0.6; stroke-width: 0.35"/>
     <use xlink:href="#m184379e0ab" x="182.617985" y="14.376259" style="fill: #22b2aa; fill-opacity: 0.6; stroke: #22b2aa; stroke-opacity: 0.6; stroke-width: 0.35"/>
     <use xlink:href="#m184379e0ab" x="184.80344" y="14.389892" style="fill: #22b2aa; fill-opacity: 0.6; stroke: #22b2aa; stroke-opacity: 0.6; stroke-width: 0.35"/>
     <use xlink:href="#m184379e0ab" x="186.988894" y="14.357799" style="fill: #22b2aa; fill-opacity: 0.6; stroke: #22b2aa; stroke-opacity: 0.6; stroke-width: 0.35"/>
     <use xlink:href="#m184379e0ab" x="189.174349" y="14.039473" style="fill: #22b2aa; fill-opacity: 0.6; stroke: #22b2aa; stroke-opacity: 0.6; stroke-width: 0.35"/>
     <use xlink:href="#m184379e0ab" x="191.359804" y="14.178638" style="fill: #22b2aa; fill-opacity: 0.6; stroke: #22b2aa; stroke-opacity: 0.6; stroke-width: 0.35"/>
     <use xlink:href="#m184379e0ab" x="193.545259" y="14.374437" style="fill: #22b2aa; fill-opacity: 0.6; stroke: #22b2aa; stroke-opacity: 0.6; stroke-width: 0.35"/>
     <use xlink:href="#m184379e0ab" x="195.730714" y="6.942001" style="fill: #22b2aa; fill-opacity: 0.6; stroke: #22b2aa; stroke-opacity: 0.6; stroke-width: 0.35"/>
     <use xlink:href="#m184379e0ab" x="197.916169" y="4.443995" style="fill: #22b2aa; fill-opacity: 0.6; stroke: #22b2aa; stroke-opacity: 0.6; stroke-width: 0.35"/>
     <use xlink:href="#m184379e0ab" x="200.101623" y="1.149329" style="fill: #22b2aa; fill-opacity: 0.6; stroke: #22b2aa; stroke-opacity: 0.6; stroke-width: 0.35"/>
     <use xlink:href="#m184379e0ab" x="202.287078" y="0.534315" style="fill: #22b2aa; fill-opacity: 0.6; stroke: #22b2aa; stroke-opacity: 0.6; stroke-width: 0.35"/>
     <use xlink:href="#m184379e0ab" x="204.472533" y="0.360877" style="fill: #22b2aa; fill-opacity: 0.6; stroke: #22b2aa; stroke-opacity: 0.6; stroke-width: 0.35"/>
     <use xlink:href="#m184379e0ab" x="206.657988" y="0.36" style="fill: #22b2aa; fill-opacity: 0.6; stroke: #22b2aa; stroke-opacity: 0.6; stroke-width: 0.35"/>
     <use xlink:href="#m184379e0ab" x="208.843443" y="0.36" style="fill: #22b2aa; fill-opacity: 0.6; stroke: #22b2aa; stroke-opacity: 0.6; stroke-width: 0.35"/>
     <use xlink:href="#m184379e0ab" x="211.028898" y="0.36" style="fill: #22b2aa; fill-opacity: 0.6; stroke: #22b2aa; stroke-opacity: 0.6; stroke-width: 0.35"/>
     <use xlink:href="#m184379e0ab" x="213.214352" y="0.36" style="fill: #22b2aa; fill-opacity: 0.6; stroke: #22b2aa; stroke-opacity: 0.6; stroke-width: 0.35"/>
     <use xlink:href="#m184379e0ab" x="215.399807" y="0.36" style="fill: #22b2aa; fill-opacity: 0.6; stroke: #22b2aa; stroke-opacity: 0.6; stroke-width: 0.35"/>
     <use xlink:href="#m184379e0ab" x="217.585262" y="0.36" style="fill: #22b2aa; fill-opacity: 0.6; stroke: #22b2aa; stroke-opacity: 0.6; stroke-width: 0.35"/>
     <use xlink:href="#m184379e0ab" x="219.770717" y="0.36" style="fill: #22b2aa; fill-opacity: 0.6; stroke: #22b2aa; stroke-opacity: 0.6; stroke-width: 0.35"/>
     <use xlink:href="#m184379e0ab" x="221.956172" y="0.36" style="fill: #22b2aa; fill-opacity: 0.6; stroke: #22b2aa; stroke-opacity: 0.6; stroke-width: 0.35"/>
    </g>
   </g>
   <g id="patch_3">
    <path d="M 25.265237 126.4727 
L 25.265237 0.36 
" style="fill: none; stroke: #000000; stroke-width: 0.35; stroke-linejoin: miter; stroke-linecap: square"/>
   </g>
   <g id="patch_4">
    <path d="M 243.81072 126.4727 
L 243.81072 0.36 
" style="fill: none; stroke: #000000; stroke-width: 0.35; stroke-linejoin: miter; stroke-linecap: square"/>
   </g>
   <g id="patch_5">
    <path d="M 25.265237 126.4727 
L 243.81072 126.4727 
" style="fill: none; stroke: #000000; stroke-width: 0.35; stroke-linejoin: miter; stroke-linecap: square"/>
   </g>
   <g id="patch_6">
    <path d="M 25.265237 0.36 
L 243.81072 0.36 
" style="fill: none; stroke: #000000; stroke-width: 0.35; stroke-linejoin: miter; stroke-linecap: square"/>
   </g>
   <g id="legend_1">
    <g id="line2d_15">
     <path d="M 205.273989 102.51006 
L 209.273989 102.51006 
L 213.273989 102.51006 
" style="fill: none; stroke: #1f77b4; stroke-opacity: 0.5; stroke-width: 0.75; stroke-linecap: round"/>
    </g>
    <g id="text_12">
     <!-- 7/16 -->
     <g transform="translate(219.673989 105.31006)scale(0.08 -0.08)">
      <defs>
       <path id="CMR17-37" d="M 2886 3941 
L 2886 4081 
L 1382 4081 
C 634 4081 621 4165 595 4288 
L 480 4288 
L 294 3094 
L 410 3094 
C 429 3215 474 3540 550 3661 
C 589 3712 1062 3712 1171 3712 
L 2579 3712 
L 1869 2661 
C 1395 1954 1069 999 1069 165 
C 1069 89 1069 -128 1299 -128 
C 1530 -128 1530 89 1530 171 
L 1530 465 
C 1530 1508 1709 2196 2003 2636 
L 2886 3941 
z
" transform="scale(0.015625)"/>
       <path id="CMR17-2f" d="M 2605 4545 
C 2637 4627 2637 4640 2637 4653 
C 2637 4729 2579 4768 2528 4768 
C 2451 4768 2426 4717 2400 4640 
L 326 -1377 
C 294 -1460 294 -1473 294 -1486 
C 294 -1562 352 -1600 403 -1600 
C 480 -1600 506 -1549 531 -1473 
L 2605 4545 
z
" transform="scale(0.015625)"/>
      </defs>
      <use xlink:href="#CMR17-37" transform="scale(0.996264)"/>
      <use xlink:href="#CMR17-2f" transform="translate(45.690477 0)scale(0.996264)"/>
      <use xlink:href="#CMR17-31" transform="translate(91.380954 0)scale(0.996264)"/>
      <use xlink:href="#CMR17-36" transform="translate(137.071431 0)scale(0.996264)"/>
     </g>
    </g>
    <g id="line2d_16">
     <path d="M 205.273989 114.480172 
L 209.273989 114.480172 
L 213.273989 114.480172 
" style="fill: none; stroke: #2ca02c; stroke-opacity: 0.5; stroke-width: 0.75; stroke-linecap: round"/>
    </g>
    <g id="text_13">
     <!-- 1/3 -->
     <g transform="translate(219.673989 117.280172)scale(0.08 -0.08)">
      <defs>
       <path id="CMR17-33" d="M 1414 2157 
C 1984 2157 2234 1662 2234 1090 
C 2234 320 1824 25 1453 25 
C 1114 25 563 194 390 693 
C 422 680 454 680 486 680 
C 640 680 755 782 755 948 
C 755 1133 614 1216 486 1216 
C 378 1216 211 1165 211 926 
C 211 335 787 -128 1466 -128 
C 2176 -128 2720 430 2720 1085 
C 2720 1707 2208 2157 1600 2227 
C 2086 2328 2554 2756 2554 3329 
C 2554 3820 2048 4179 1472 4179 
C 890 4179 378 3829 378 3329 
C 378 3110 544 3072 627 3072 
C 762 3072 877 3155 877 3321 
C 877 3486 762 3569 627 3569 
C 602 3569 570 3569 544 3557 
C 730 3959 1235 4032 1459 4032 
C 1683 4032 2106 3925 2106 3320 
C 2106 3143 2080 2828 1862 2550 
C 1670 2304 1453 2304 1242 2284 
C 1210 2284 1062 2269 1037 2269 
C 992 2263 966 2257 966 2208 
C 966 2163 973 2157 1101 2157 
L 1414 2157 
z
" transform="scale(0.015625)"/>
      </defs>
      <use xlink:href="#CMR17-31" transform="scale(0.996264)"/>
      <use xlink:href="#CMR17-2f" transform="translate(45.690477 0)scale(0.996264)"/>
      <use xlink:href="#CMR17-33" transform="translate(91.380954 0)scale(0.996264)"/>
     </g>
    </g>
   </g>
   <g id="legend_2">
    <g id="LineCollection_4">
     <path d="M 33.358686 14.36 
L 33.358686 6.36 
" style="fill: none; stroke: #303030; stroke-width: 0.75"/>
    </g>
    <g id="line2d_17">
     <path d="M 29.358686 10.36 
L 37.358686 10.36 
" style="fill: none; stroke: #303030; stroke-width: 0.75; stroke-linecap: round"/>
    </g>
    <g id="line2d_18">
     <g>
      <use xlink:href="#m56302cebbf" x="33.358686" y="10.36" style="fill: #303030; stroke: #303030; stroke-width: 0.35"/>
     </g>
    </g>
    <g id="text_14">
     <!-- $\delta=0.0$ -->
     <g transform="translate(43.758686 13.16)scale(0.08 -0.08)">
      <defs>
       <path id="CMMI12-e" d="M 1664 2795 
C 845 2597 256 1748 256 1001 
C 256 319 717 -64 1229 -64 
C 1984 -64 2496 970 2496 1818 
C 2496 2392 2227 2744 2067 2954 
C 1830 3254 1446 3746 1446 4052 
C 1446 4161 1530 4352 1811 4352 
C 2010 4352 2131 4282 2323 4173 
C 2381 4134 2528 4052 2611 4052 
C 2746 4052 2842 4185 2842 4287 
C 2842 4409 2746 4428 2522 4479 
C 2221 4543 2131 4543 2022 4543 
C 1914 4543 1286 4543 1286 3892 
C 1286 3579 1446 3216 1664 2795 
z
M 1734 2669 
C 1978 2165 2074 1974 2074 1560 
C 2074 1063 1805 63 1235 63 
C 986 63 627 229 627 821 
C 627 1235 864 2439 1734 2669 
z
" transform="scale(0.015625)"/>
       <path id="CMR17-3d" d="M 4115 2017 
C 4211 2017 4307 2017 4307 2125 
C 4307 2240 4198 2240 4090 2240 
L 512 2240 
C 403 2240 294 2240 294 2125 
C 294 2017 390 2017 486 2017 
L 4115 2017 
z
M 4090 896 
C 4198 896 4307 896 4307 1011 
C 4307 1119 4211 1119 4115 1119 
L 486 1119 
C 390 1119 294 1119 294 1011 
C 294 896 403 896 512 896 
L 4090 896 
z
" transform="scale(0.015625)"/>
      </defs>
      <use xlink:href="#CMMI12-e" transform="scale(0.996264)"/>
      <use xlink:href="#CMR17-3d" transform="translate(74.615395 0)scale(0.996264)"/>
      <use xlink:href="#CMR17-30" transform="translate(174.004192 0)scale(0.996264)"/>
      <use xlink:href="#CMMI12-3a" transform="translate(219.694669 0)scale(0.996264)"/>
      <use xlink:href="#CMR17-30" transform="translate(246.791846 0)scale(0.996264)"/>
     </g>
    </g>
    <g id="LineCollection_5">
     <path d="M 89.916515 14.36 
L 89.916515 6.36 
" style="fill: none; stroke: #ff7f50; stroke-width: 0.75"/>
    </g>
    <g id="line2d_19">
     <path d="M 85.916515 10.36 
L 93.916515 10.36 
" style="fill: none; stroke: #ff7f50; stroke-width: 0.75; stroke-linecap: round"/>
    </g>
    <g id="line2d_20">
     <g>
      <use xlink:href="#m22401937ee" x="89.916515" y="10.36" style="fill: #ff7f50; stroke: #ff7f50; stroke-width: 0.35"/>
     </g>
    </g>
    <g id="text_15">
     <!-- $\delta=0.15$ -->
     <g transform="translate(100.316515 13.16)scale(0.08 -0.08)">
      <defs>
       <path id="CMR17-35" d="M 730 3692 
C 794 3666 1056 3584 1325 3584 
C 1920 3584 2246 3911 2432 4100 
C 2432 4157 2432 4192 2394 4192 
C 2387 4192 2374 4192 2323 4163 
C 2099 4058 1837 3973 1517 3973 
C 1325 3973 1037 3999 723 4139 
C 653 4171 640 4171 634 4171 
C 602 4171 595 4164 595 4037 
L 595 2203 
C 595 2089 595 2057 659 2057 
C 691 2057 704 2070 736 2114 
C 941 2401 1222 2522 1542 2522 
C 1766 2522 2246 2382 2246 1289 
C 2246 1085 2246 715 2054 421 
C 1894 159 1645 25 1370 25 
C 947 25 518 320 403 814 
C 429 807 480 795 506 795 
C 589 795 749 840 749 1038 
C 749 1210 627 1280 506 1280 
C 358 1280 262 1190 262 1011 
C 262 454 704 -128 1382 -128 
C 2042 -128 2669 440 2669 1264 
C 2669 2030 2170 2624 1549 2624 
C 1222 2624 947 2503 730 2274 
L 730 3692 
z
" transform="scale(0.015625)"/>
      </defs>
      <use xlink:href="#CMMI12-e" transform="scale(0.996264)"/>
      <use xlink:href="#CMR17-3d" transform="translate(74.615395 0)scale(0.996264)"/>
      <use xlink:href="#CMR17-30" transform="translate(174.004192 0)scale(0.996264)"/>
      <use xlink:href="#CMMI12-3a" transform="translate(219.694669 0)scale(0.996264)"/>
      <use xlink:href="#CMR17-31" transform="translate(246.791846 0)scale(0.996264)"/>
      <use xlink:href="#CMR17-35" transform="translate(292.482323 0)scale(0.996264)"/>
     </g>
    </g>
    <g id="LineCollection_6">
     <path d="M 150.708526 14.36 
L 150.708526 6.36 
" style="fill: none; stroke: #22b2aa; stroke-opacity: 0.6; stroke-width: 0.75"/>
    </g>
    <g id="line2d_21">
     <path d="M 146.708526 10.36 
L 154.708526 10.36 
" style="fill: none; stroke: #22b2aa; stroke-opacity: 0.6; stroke-width: 0.75; stroke-linecap: round"/>
    </g>
    <g id="line2d_22">
     <g>
      <use xlink:href="#m184379e0ab" x="150.708526" y="10.36" style="fill: #22b2aa; fill-opacity: 0.6; stroke: #22b2aa; stroke-opacity: 0.6; stroke-width: 0.35"/>
     </g>
    </g>
    <g id="text_16">
     <!-- $\delta=0.3$ -->
     <g transform="translate(161.108526 13.16)scale(0.08 -0.08)">
      <use xlink:href="#CMMI12-e" transform="scale(0.996264)"/>
      <use xlink:href="#CMR17-3d" transform="translate(74.615395 0)scale(0.996264)"/>
      <use xlink:href="#CMR17-30" transform="translate(174.004192 0)scale(0.996264)"/>
      <use xlink:href="#CMMI12-3a" transform="translate(219.694669 0)scale(0.996264)"/>
      <use xlink:href="#CMR17-33" transform="translate(246.791846 0)scale(0.996264)"/>
     </g>
    </g>
   </g>
   <g id="legend_3">
    <g id="LineCollection_7">
     <path d="M 33.358686 14.36 
L 33.358686 6.36 
" style="fill: none; stroke: #303030; stroke-width: 0.75"/>
    </g>
    <g id="line2d_23">
     <path d="M 29.358686 10.36 
L 37.358686 10.36 
" style="fill: none; stroke: #303030; stroke-width: 0.75; stroke-linecap: round"/>
    </g>
    <g id="line2d_24">
     <g>
      <use xlink:href="#m56302cebbf" x="33.358686" y="10.36" style="fill: #303030; stroke: #303030; stroke-width: 0.35"/>
     </g>
    </g>
    <g id="text_17">
     <!-- $\delta=0.0$ -->
     <g transform="translate(43.758686 13.16)scale(0.08 -0.08)">
      <use xlink:href="#CMMI12-e" transform="scale(0.996264)"/>
      <use xlink:href="#CMR17-3d" transform="translate(74.615395 0)scale(0.996264)"/>
      <use xlink:href="#CMR17-30" transform="translate(174.004192 0)scale(0.996264)"/>
      <use xlink:href="#CMMI12-3a" transform="translate(219.694669 0)scale(0.996264)"/>
      <use xlink:href="#CMR17-30" transform="translate(246.791846 0)scale(0.996264)"/>
     </g>
    </g>
    <g id="LineCollection_8">
     <path d="M 89.916515 14.36 
L 89.916515 6.36 
" style="fill: none; stroke: #ff7f50; stroke-width: 0.75"/>
    </g>
    <g id="line2d_25">
     <path d="M 85.916515 10.36 
L 93.916515 10.36 
" style="fill: none; stroke: #ff7f50; stroke-width: 0.75; stroke-linecap: round"/>
    </g>
    <g id="line2d_26">
     <g>
      <use xlink:href="#m22401937ee" x="89.916515" y="10.36" style="fill: #ff7f50; stroke: #ff7f50; stroke-width: 0.35"/>
     </g>
    </g>
    <g id="text_18">
     <!-- $\delta=0.15$ -->
     <g transform="translate(100.316515 13.16)scale(0.08 -0.08)">
      <use xlink:href="#CMMI12-e" transform="scale(0.996264)"/>
      <use xlink:href="#CMR17-3d" transform="translate(74.615395 0)scale(0.996264)"/>
      <use xlink:href="#CMR17-30" transform="translate(174.004192 0)scale(0.996264)"/>
      <use xlink:href="#CMMI12-3a" transform="translate(219.694669 0)scale(0.996264)"/>
      <use xlink:href="#CMR17-31" transform="translate(246.791846 0)scale(0.996264)"/>
      <use xlink:href="#CMR17-35" transform="translate(292.482323 0)scale(0.996264)"/>
     </g>
    </g>
    <g id="LineCollection_9">
     <path d="M 150.708526 14.36 
L 150.708526 6.36 
" style="fill: none; stroke: #22b2aa; stroke-opacity: 0.6; stroke-width: 0.75"/>
    </g>
    <g id="line2d_27">
     <path d="M 146.708526 10.36 
L 154.708526 10.36 
" style="fill: none; stroke: #22b2aa; stroke-opacity: 0.6; stroke-width: 0.75; stroke-linecap: round"/>
    </g>
    <g id="line2d_28">
     <g>
      <use xlink:href="#m184379e0ab" x="150.708526" y="10.36" style="fill: #22b2aa; fill-opacity: 0.6; stroke: #22b2aa; stroke-opacity: 0.6; stroke-width: 0.35"/>
     </g>
    </g>
    <g id="text_19">
     <!-- $\delta=0.3$ -->
     <g transform="translate(161.108526 13.16)scale(0.08 -0.08)">
      <use xlink:href="#CMMI12-e" transform="scale(0.996264)"/>
      <use xlink:href="#CMR17-3d" transform="translate(74.615395 0)scale(0.996264)"/>
      <use xlink:href="#CMR17-30" transform="translate(174.004192 0)scale(0.996264)"/>
      <use xlink:href="#CMMI12-3a" transform="translate(219.694669 0)scale(0.996264)"/>
      <use xlink:href="#CMR17-33" transform="translate(246.791846 0)scale(0.996264)"/>
     </g>
    </g>
   </g>
  </g>
 </g>
 <defs>
  <clipPath id="pd65417fcd6">
   <rect x="25.265237" y="0.36" width="218.545483" height="126.1127"/>
  </clipPath>
 </defs>
</svg>
