<?xml version="1.0" encoding="utf-8" standalone="no"?>
<!DOCTYPE svg PUBLIC "-//W3C//DTD SVG 1.1//EN"
  "http://www.w3.org/Graphics/SVG/1.1/DTD/svg11.dtd">
<svg xmlns:xlink="http://www.w3.org/1999/xlink" width="244.17072pt" height="148.88736pt" viewBox="0 0 244.17072 148.88736" xmlns="http://www.w3.org/2000/svg" version="1.1">
 <metadata>
  <rdf:RDF xmlns:dc="http://purl.org/dc/elements/1.1/" xmlns:cc="http://creativecommons.org/ns#" xmlns:rdf="http://www.w3.org/1999/02/22-rdf-syntax-ns#">
   <cc:Work>
    <dc:type rdf:resource="http://purl.org/dc/dcmitype/StillImage"/>
    <dc:date>2022-11-01T17:45:24.316271</dc:date>
    <dc:format>image/svg+xml</dc:format>
    <dc:creator>
     <cc:Agent>
      <dc:title>Matplotlib v3.5.2, https://matplotlib.org/</dc:title>
     </cc:Agent>
    </dc:creator>
   </cc:Work>
  </rdf:RDF>
 </metadata>
 <defs>
  <style type="text/css">*{stroke-linejoin: round; stroke-linecap: butt}</style>
 </defs>
 <g id="figure_1">
  <g id="patch_1">
   <path d="M 0 148.88736 
L 244.17072 148.88736 
L 244.17072 0 
L 0 0 
L 0 148.88736 
z
" style="fill: none"/>
  </g>
  <g id="axes_1">
   <g id="patch_2">
    <path d="M 24.912188 127.861422 
L 243.81072 127.861422 
L 243.81072 12.358125 
L 24.912188 12.358125 
L 24.912188 127.861422 
z
" style="fill: none"/>
   </g>
   <g id="PolyCollection_1">
    <path d="M 27.101173 127.861422 
L 27.101173 -1134766.690435 
L 29.290158 -369142.138155 
L 31.479143 -157891.187683 
L 33.668129 -58186.762126 
L 35.857114 -23206.170578 
L 38.046099 -33.90482 
L 40.235085 125.868684 
L 42.42407 127.185804 
L 44.613055 127.725173 
L 46.802041 127.776822 
L 48.991026 127.821186 
L 51.180011 127.854734 
L 53.368997 127.85961 
L 55.557982 127.861422 
L 57.746967 127.324953 
L 59.935953 127.617986 
L 62.124938 127.406501 
L 64.313923 125.97612 
L 66.502909 119.83927 
L 68.691894 94.881695 
L 70.880879 39.827485 
L 73.069865 118.05498 
L 75.25885 112.598534 
L 77.447835 118.367463 
L 79.636821 54.388472 
L 81.825806 117.881262 
L 84.014791 120.065876 
L 86.203777 126.522862 
L 88.392762 126.605881 
L 90.581747 127.245016 
L 92.770733 127.502391 
L 94.959718 127.741268 
L 97.148703 127.818131 
L 99.337689 127.790946 
L 101.526674 127.850747 
L 103.715659 127.858045 
L 105.904645 127.827465 
L 108.09363 112.823837 
L 110.282615 123.208884 
L 112.471601 126.36861 
L 114.660586 109.160223 
L 116.849571 106.617756 
L 119.038556 113.48807 
L 121.227542 110.141874 
L 123.416527 127.850559 
L 127.794498 127.861422 
L 132.172468 127.861422 
L 136.550439 127.851669 
L 140.92841 127.861422 
L 145.30638 127.861422 
L 149.684351 127.861422 
L 154.062322 127.852499 
L 158.440292 127.861422 
L 162.818263 127.861422 
L 167.196234 127.861422 
L 171.574204 127.861422 
L 175.952175 127.861422 
L 180.330146 127.861422 
L 184.708116 127.861422 
L 189.086087 127.861422 
L 193.464058 127.861422 
L 197.842028 127.861422 
L 202.219999 127.861422 
L 206.597969 127.861422 
L 210.97594 127.861422 
L 215.353911 125.947842 
L 219.731881 127.861422 
L 219.731881 127.861422 
L 219.731881 127.861422 
L 215.353911 127.861422 
L 210.97594 127.861422 
L 206.597969 127.861422 
L 202.219999 127.861422 
L 197.842028 127.861422 
L 193.464058 127.861422 
L 189.086087 127.861422 
L 184.708116 127.861422 
L 180.330146 127.861422 
L 175.952175 127.861422 
L 171.574204 127.861422 
L 167.196234 127.861422 
L 162.818263 127.861422 
L 158.440292 127.861422 
L 154.062322 127.861422 
L 149.684351 127.861422 
L 145.30638 127.861422 
L 140.92841 127.861422 
L 136.550439 127.861422 
L 132.172468 127.861422 
L 127.794498 127.861422 
L 123.416527 127.861422 
L 121.227542 127.861422 
L 119.038556 127.861422 
L 116.849571 127.861422 
L 114.660586 127.861422 
L 112.471601 127.861422 
L 110.282615 127.861422 
L 108.09363 127.861422 
L 105.904645 127.861422 
L 103.715659 127.861422 
L 101.526674 127.861422 
L 99.337689 127.861422 
L 97.148703 127.861422 
L 94.959718 127.861422 
L 92.770733 127.861422 
L 90.581747 127.861422 
L 88.392762 127.861422 
L 86.203777 127.861422 
L 84.014791 127.861422 
L 81.825806 127.861422 
L 79.636821 127.861422 
L 77.447835 127.861422 
L 75.25885 127.861422 
L 73.069865 127.861422 
L 70.880879 127.861422 
L 68.691894 127.861422 
L 66.502909 127.861422 
L 64.313923 127.861422 
L 62.124938 127.861422 
L 59.935953 127.861422 
L 57.746967 127.861422 
L 55.557982 127.861422 
L 53.368997 127.861422 
L 51.180011 127.861422 
L 48.991026 127.861422 
L 46.802041 127.861422 
L 44.613055 127.861422 
L 42.42407 127.861422 
L 40.235085 127.861422 
L 38.046099 127.861422 
L 35.857114 127.861422 
L 33.668129 127.861422 
L 31.479143 127.861422 
L 29.290158 127.861422 
L 27.101173 127.861422 
z
" clip-path="url(#p78906196d1)" style="fill: #30123b; fill-opacity: 0.5; stroke: #30123b; stroke-opacity: 0.5"/>
   </g>
   <g id="PolyCollection_2">
    <path d="M 94.959718 127.861422 
L 94.959718 -15528.560812 
L 99.337689 -17.348059 
L 103.715659 85.130372 
L 108.09363 99.67709 
L 112.471601 109.241089 
L 116.849571 116.768964 
L 121.227542 121.468207 
L 125.605512 122.741611 
L 129.983483 123.78814 
L 134.361454 120.483917 
L 138.739424 115.407179 
L 143.117395 114.456542 
L 147.495366 118.879544 
L 151.873336 125.72541 
L 156.251307 127.706969 
L 160.629278 117.743493 
L 165.007248 125.199789 
L 169.385219 123.889402 
L 173.76319 118.385879 
L 178.14116 116.258699 
L 182.519131 127.35292 
L 186.897102 125.029758 
L 191.275072 126.533173 
L 195.653043 127.861422 
L 200.031014 127.861422 
L 204.408984 127.861422 
L 208.786955 127.861422 
L 213.164925 127.861422 
L 217.542896 127.861422 
L 221.920867 127.861422 
L 221.920867 127.861422 
L 221.920867 127.861422 
L 217.542896 127.861422 
L 213.164925 127.861422 
L 208.786955 127.861422 
L 204.408984 127.861422 
L 200.031014 127.861422 
L 195.653043 127.861422 
L 191.275072 127.861422 
L 186.897102 127.861422 
L 182.519131 127.861422 
L 178.14116 127.861422 
L 173.76319 127.861422 
L 169.385219 127.861422 
L 165.007248 127.861422 
L 160.629278 127.861422 
L 156.251307 127.861422 
L 151.873336 127.861422 
L 147.495366 127.861422 
L 143.117395 127.861422 
L 138.739424 127.861422 
L 134.361454 127.861422 
L 129.983483 127.861422 
L 125.605512 127.861422 
L 121.227542 127.861422 
L 116.849571 127.861422 
L 112.471601 127.861422 
L 108.09363 127.861422 
L 103.715659 127.861422 
L 99.337689 127.861422 
L 94.959718 127.861422 
z
" clip-path="url(#p78906196d1)" style="fill: #a4fc3c; fill-opacity: 0.5; stroke: #a4fc3c; stroke-opacity: 0.5"/>
   </g>
   <g id="PolyCollection_3">
    <path d="M 129.983483 127.861422 
L 129.983483 -83698.361445 
L 132.172468 -33077.816632 
L 134.361454 -14532.56397 
L 136.550439 -226.866836 
L 138.739424 54.137763 
L 140.92841 80.98055 
L 143.117395 104.864896 
L 145.30638 115.000517 
L 147.495366 121.843654 
L 149.684351 113.215358 
L 151.873336 121.483227 
L 154.062322 120.793785 
L 156.251307 124.450864 
L 158.440292 122.651458 
L 160.629278 124.339704 
L 162.818263 126.99037 
L 165.007248 127.670347 
L 167.196234 125.852921 
L 169.385219 100.280151 
L 171.574204 110.006381 
L 173.76319 127.763184 
L 175.952175 127.793905 
L 178.14116 127.855362 
L 180.330146 127.836111 
L 182.519131 127.850199 
L 184.708116 127.809745 
L 186.897102 127.798996 
L 189.086087 126.633516 
L 191.275072 127.332826 
L 193.464058 127.855663 
L 195.653043 119.521583 
L 197.842028 127.580807 
L 200.031014 123.630748 
L 202.219999 126.799673 
L 204.408984 127.859337 
L 206.597969 127.861422 
L 208.786955 127.861422 
L 210.97594 127.861422 
L 213.164925 127.861422 
L 215.353911 127.861422 
L 217.542896 127.861422 
L 219.731881 127.861422 
L 221.920867 127.861422 
L 221.920867 127.861422 
L 221.920867 127.861422 
L 219.731881 127.861422 
L 217.542896 127.861422 
L 215.353911 127.861422 
L 213.164925 127.861422 
L 210.97594 127.861422 
L 208.786955 127.861422 
L 206.597969 127.861422 
L 204.408984 127.861422 
L 202.219999 127.861422 
L 200.031014 127.861422 
L 197.842028 127.861422 
L 195.653043 127.861422 
L 193.464058 127.861422 
L 191.275072 127.861422 
L 189.086087 127.861422 
L 186.897102 127.861422 
L 184.708116 127.861422 
L 182.519131 127.861422 
L 180.330146 127.861422 
L 178.14116 127.861422 
L 175.952175 127.861422 
L 173.76319 127.861422 
L 171.574204 127.861422 
L 169.385219 127.861422 
L 167.196234 127.861422 
L 165.007248 127.861422 
L 162.818263 127.861422 
L 160.629278 127.861422 
L 158.440292 127.861422 
L 156.251307 127.861422 
L 154.062322 127.861422 
L 151.873336 127.861422 
L 149.684351 127.861422 
L 147.495366 127.861422 
L 145.30638 127.861422 
L 143.117395 127.861422 
L 140.92841 127.861422 
L 138.739424 127.861422 
L 136.550439 127.861422 
L 134.361454 127.861422 
L 132.172468 127.861422 
L 129.983483 127.861422 
z
" clip-path="url(#p78906196d1)" style="fill: #7a0403; fill-opacity: 0.5; stroke: #7a0403; stroke-opacity: 0.5"/>
   </g>
   <g id="matplotlib.axis_1">
    <g id="xtick_1">
     <g id="line2d_1">
      <defs>
       <path id="mce920af29b" d="M 0 0 
L 0 2 
" style="stroke: #000000; stroke-width: 0.35"/>
      </defs>
      <g>
       <use xlink:href="#mce920af29b" x="46.802041" y="127.861422" style="stroke: #000000; stroke-width: 0.35"/>
      </g>
     </g>
     <g id="text_1">
      <!-- −120 -->
      <g transform="translate(37.730791 138.573922)scale(0.08 -0.08)">
       <defs>
        <path id="HelveticaNeue-Light-2212" d="M 3533 1440 
L 3533 1779 
L 314 1779 
L 314 1440 
L 3533 1440 
z
" transform="scale(0.015625)"/>
        <path id="HelveticaNeue-Light-31" d="M 621 3616 
L 621 3328 
L 1805 3328 
L 1805 0 
L 2208 0 
L 2208 4480 
L 1882 4480 
Q 1837 4173 1731 4003 
Q 1626 3834 1469 3750 
Q 1312 3667 1097 3644 
Q 883 3622 621 3616 
z
" transform="scale(0.015625)"/>
        <path id="HelveticaNeue-Light-32" d="M 3181 0 
L 3181 371 
L 691 371 
Q 730 595 883 784 
Q 1037 973 1238 1133 
Q 1440 1293 1657 1424 
Q 1875 1555 2035 1664 
Q 2259 1805 2460 1968 
Q 2662 2131 2819 2323 
Q 2976 2515 3069 2745 
Q 3162 2976 3162 3258 
Q 3162 3571 3056 3808 
Q 2950 4045 2761 4201 
Q 2573 4358 2320 4438 
Q 2067 4518 1773 4518 
Q 1408 4518 1136 4400 
Q 864 4282 685 4070 
Q 506 3859 419 3568 
Q 333 3277 339 2931 
L 742 2931 
Q 736 3181 790 3405 
Q 845 3629 966 3801 
Q 1088 3974 1283 4076 
Q 1478 4179 1754 4179 
Q 1958 4179 2140 4118 
Q 2323 4058 2460 3939 
Q 2598 3821 2678 3651 
Q 2758 3482 2758 3264 
Q 2758 2995 2665 2800 
Q 2573 2605 2387 2419 
Q 2202 2234 1968 2070 
Q 1734 1907 1497 1750 
Q 1261 1594 1037 1424 
Q 813 1254 633 1049 
Q 454 845 345 589 
Q 237 333 230 0 
L 3181 0 
z
" transform="scale(0.015625)"/>
        <path id="HelveticaNeue-Light-30" d="M 1779 4518 
Q 1293 4518 985 4304 
Q 678 4090 508 3757 
Q 339 3424 278 3014 
Q 218 2605 218 2208 
Q 218 1818 278 1408 
Q 339 998 508 665 
Q 678 333 985 121 
Q 1293 -90 1779 -90 
Q 2272 -90 2576 121 
Q 2880 333 3049 665 
Q 3219 998 3280 1408 
Q 3341 1818 3341 2214 
Q 3341 2605 3280 3014 
Q 3219 3424 3049 3757 
Q 2880 4090 2576 4304 
Q 2272 4518 1779 4518 
z
M 1779 4179 
Q 2163 4179 2393 3980 
Q 2624 3782 2742 3488 
Q 2861 3194 2899 2848 
Q 2938 2502 2938 2214 
Q 2938 1920 2899 1577 
Q 2861 1235 2742 937 
Q 2624 640 2393 441 
Q 2163 243 1779 243 
Q 1395 243 1164 441 
Q 934 640 816 937 
Q 698 1235 659 1577 
Q 621 1920 621 2214 
Q 621 2502 659 2848 
Q 698 3194 816 3488 
Q 934 3782 1164 3980 
Q 1395 4179 1779 4179 
z
" transform="scale(0.015625)"/>
       </defs>
       <use xlink:href="#HelveticaNeue-Light-2212"/>
       <use xlink:href="#HelveticaNeue-Light-31" x="59.999985"/>
       <use xlink:href="#HelveticaNeue-Light-32" x="115.599976"/>
       <use xlink:href="#HelveticaNeue-Light-30" x="171.199966"/>
      </g>
     </g>
    </g>
    <g id="xtick_2">
     <g id="line2d_2">
      <g>
       <use xlink:href="#mce920af29b" x="90.581747" y="127.861422" style="stroke: #000000; stroke-width: 0.35"/>
      </g>
     </g>
     <g id="text_2">
      <!-- −100 -->
      <g transform="translate(81.510497 138.573922)scale(0.08 -0.08)">
       <use xlink:href="#HelveticaNeue-Light-2212"/>
       <use xlink:href="#HelveticaNeue-Light-31" x="59.999985"/>
       <use xlink:href="#HelveticaNeue-Light-30" x="115.599976"/>
       <use xlink:href="#HelveticaNeue-Light-30" x="171.199966"/>
      </g>
     </g>
    </g>
    <g id="xtick_3">
     <g id="line2d_3">
      <g>
       <use xlink:href="#mce920af29b" x="134.361454" y="127.861422" style="stroke: #000000; stroke-width: 0.35"/>
      </g>
     </g>
     <g id="text_3">
      <!-- −80 -->
      <g transform="translate(127.513954 138.573922)scale(0.08 -0.08)">
       <defs>
        <path id="HelveticaNeue-Light-38" d="M 1779 2566 
Q 1600 2560 1427 2605 
Q 1254 2650 1120 2752 
Q 986 2854 902 3014 
Q 819 3174 819 3398 
Q 819 3590 899 3737 
Q 979 3885 1113 3981 
Q 1248 4077 1421 4128 
Q 1594 4179 1779 4179 
Q 1984 4179 2157 4128 
Q 2330 4077 2458 3981 
Q 2586 3885 2659 3737 
Q 2733 3590 2733 3398 
Q 2733 3181 2653 3021 
Q 2573 2861 2441 2758 
Q 2310 2656 2137 2608 
Q 1965 2560 1779 2566 
z
M 3136 3398 
Q 3136 3686 3017 3897 
Q 2899 4109 2704 4246 
Q 2509 4384 2265 4451 
Q 2022 4518 1773 4518 
Q 1523 4518 1280 4451 
Q 1037 4384 845 4246 
Q 653 4109 534 3897 
Q 416 3686 416 3398 
Q 416 3027 605 2774 
Q 794 2522 1146 2413 
L 1146 2400 
Q 723 2323 486 2009 
Q 250 1696 237 1254 
Q 237 915 358 662 
Q 480 410 691 243 
Q 902 77 1184 -6 
Q 1466 -90 1779 -90 
Q 2099 -90 2377 -6 
Q 2656 77 2867 243 
Q 3078 410 3200 662 
Q 3322 915 3322 1254 
Q 3322 1715 3085 2012 
Q 2848 2310 2406 2400 
L 2406 2413 
Q 2752 2515 2944 2774 
Q 3136 3034 3136 3398 
z
M 1779 243 
Q 1542 243 1334 307 
Q 1126 371 972 496 
Q 819 621 729 813 
Q 640 1005 640 1254 
Q 640 1498 733 1683 
Q 826 1869 979 1993 
Q 1133 2118 1341 2176 
Q 1549 2234 1779 2227 
Q 2003 2234 2211 2173 
Q 2419 2112 2576 1987 
Q 2733 1862 2825 1680 
Q 2918 1498 2918 1254 
Q 2918 998 2828 806 
Q 2739 614 2585 489 
Q 2432 365 2224 304 
Q 2016 243 1779 243 
z
" transform="scale(0.015625)"/>
       </defs>
       <use xlink:href="#HelveticaNeue-Light-2212"/>
       <use xlink:href="#HelveticaNeue-Light-38" x="59.999985"/>
       <use xlink:href="#HelveticaNeue-Light-30" x="115.599976"/>
      </g>
     </g>
    </g>
    <g id="xtick_4">
     <g id="line2d_4">
      <g>
       <use xlink:href="#mce920af29b" x="178.14116" y="127.861422" style="stroke: #000000; stroke-width: 0.35"/>
      </g>
     </g>
     <g id="text_4">
      <!-- −60 -->
      <g transform="translate(171.29366 138.573922)scale(0.08 -0.08)">
       <defs>
        <path id="HelveticaNeue-Light-36" d="M 2829 3347 
L 3232 3347 
Q 3162 3942 2810 4230 
Q 2458 4518 1856 4518 
Q 1491 4518 1228 4390 
Q 966 4262 790 4057 
Q 614 3853 508 3600 
Q 403 3347 345 3100 
Q 288 2854 272 2636 
Q 256 2419 256 2285 
Q 256 1626 349 1174 
Q 442 723 634 441 
Q 826 160 1120 35 
Q 1414 -90 1824 -90 
Q 2157 -90 2435 22 
Q 2714 134 2915 336 
Q 3117 538 3229 816 
Q 3341 1094 3341 1421 
Q 3341 1747 3235 2022 
Q 3130 2298 2938 2496 
Q 2746 2694 2474 2806 
Q 2202 2918 1862 2918 
Q 1478 2918 1155 2713 
Q 832 2509 672 2176 
L 659 2176 
Q 659 2483 704 2832 
Q 749 3181 883 3481 
Q 1018 3782 1261 3980 
Q 1504 4179 1894 4179 
Q 2285 4179 2531 3948 
Q 2778 3718 2829 3347 
z
M 1856 2579 
Q 2112 2579 2313 2486 
Q 2515 2394 2652 2234 
Q 2790 2074 2864 1856 
Q 2938 1638 2938 1395 
Q 2938 1165 2861 953 
Q 2784 742 2640 585 
Q 2496 429 2301 336 
Q 2106 243 1862 243 
Q 1568 243 1357 332 
Q 1146 422 1008 579 
Q 870 736 806 947 
Q 742 1158 742 1395 
Q 742 1645 816 1859 
Q 890 2074 1034 2234 
Q 1178 2394 1386 2486 
Q 1594 2579 1856 2579 
z
" transform="scale(0.015625)"/>
       </defs>
       <use xlink:href="#HelveticaNeue-Light-2212"/>
       <use xlink:href="#HelveticaNeue-Light-36" x="59.999985"/>
       <use xlink:href="#HelveticaNeue-Light-30" x="115.599976"/>
      </g>
     </g>
    </g>
    <g id="xtick_5">
     <g id="line2d_5">
      <g>
       <use xlink:href="#mce920af29b" x="221.920867" y="127.861422" style="stroke: #000000; stroke-width: 0.35"/>
      </g>
     </g>
     <g id="text_5">
      <!-- −40 -->
      <g transform="translate(215.073367 138.573922)scale(0.08 -0.08)">
       <defs>
        <path id="HelveticaNeue-Light-34" d="M 2259 1453 
L 557 1453 
L 2246 3891 
L 2259 3891 
L 2259 1453 
z
M 192 1504 
L 192 1114 
L 2259 1114 
L 2259 0 
L 2630 0 
L 2630 1114 
L 3302 1114 
L 3302 1453 
L 2630 1453 
L 2630 4480 
L 2266 4480 
L 192 1504 
z
" transform="scale(0.015625)"/>
       </defs>
       <use xlink:href="#HelveticaNeue-Light-2212"/>
       <use xlink:href="#HelveticaNeue-Light-34" x="59.999985"/>
       <use xlink:href="#HelveticaNeue-Light-30" x="115.599976"/>
      </g>
     </g>
    </g>
    <g id="text_6">
     <!-- chemical potential (K) -->
     <g transform="translate(102.269735 147.19736)scale(0.07 -0.07)">
      <defs>
       <path id="HelveticaNeue-Light-63" d="M 2714 2266 
L 3117 2266 
Q 3046 2835 2678 3116 
Q 2310 3398 1779 3398 
Q 1402 3398 1110 3257 
Q 819 3117 620 2880 
Q 422 2643 320 2326 
Q 218 2010 218 1651 
Q 218 1293 320 976 
Q 422 659 620 422 
Q 819 186 1110 48 
Q 1402 -90 1779 -90 
Q 2342 -90 2700 246 
Q 3059 582 3142 1184 
L 2739 1184 
Q 2720 979 2637 806 
Q 2554 634 2426 509 
Q 2298 384 2131 313 
Q 1965 243 1779 243 
Q 1491 243 1273 364 
Q 1056 486 912 684 
Q 768 883 694 1136 
Q 621 1389 621 1651 
Q 621 1914 694 2166 
Q 768 2419 912 2617 
Q 1056 2816 1273 2937 
Q 1491 3059 1779 3059 
Q 2182 3059 2406 2848 
Q 2630 2637 2714 2266 
z
" transform="scale(0.015625)"/>
       <path id="HelveticaNeue-Light-68" d="M 378 4570 
L 378 0 
L 781 0 
L 781 1926 
Q 787 2170 860 2378 
Q 934 2586 1065 2736 
Q 1197 2886 1385 2972 
Q 1574 3059 1818 3059 
Q 2061 3059 2224 2982 
Q 2387 2906 2483 2771 
Q 2579 2637 2617 2454 
Q 2656 2272 2656 2061 
L 2656 0 
L 3059 0 
L 3059 2125 
Q 3059 2419 3001 2656 
Q 2944 2893 2803 3056 
Q 2662 3219 2428 3308 
Q 2195 3398 1850 3398 
Q 1498 3398 1203 3216 
Q 909 3034 794 2733 
L 781 2733 
L 781 4570 
L 378 4570 
z
" transform="scale(0.015625)"/>
       <path id="HelveticaNeue-Light-65" d="M 2758 1882 
L 621 1882 
Q 646 2106 726 2320 
Q 806 2534 940 2697 
Q 1075 2861 1267 2960 
Q 1459 3059 1709 3059 
Q 1952 3059 2144 2960 
Q 2336 2861 2470 2697 
Q 2605 2534 2678 2323 
Q 2752 2112 2758 1882 
z
M 621 1542 
L 3162 1542 
Q 3174 1888 3097 2224 
Q 3021 2560 2845 2819 
Q 2669 3078 2387 3238 
Q 2106 3398 1709 3398 
Q 1318 3398 1033 3248 
Q 749 3098 569 2851 
Q 390 2605 304 2291 
Q 218 1978 218 1651 
Q 218 1299 304 982 
Q 390 666 569 426 
Q 749 186 1033 48 
Q 1318 -90 1709 -90 
Q 2336 -90 2678 217 
Q 3021 525 3149 1088 
L 2746 1088 
Q 2650 704 2400 473 
Q 2150 243 1709 243 
Q 1421 243 1216 364 
Q 1011 486 876 672 
Q 742 858 681 1091 
Q 621 1325 621 1542 
z
" transform="scale(0.015625)"/>
       <path id="HelveticaNeue-Light-6d" d="M 384 3302 
L 384 0 
L 787 0 
L 787 1843 
Q 787 2106 844 2326 
Q 902 2547 1020 2710 
Q 1139 2874 1328 2966 
Q 1517 3059 1773 3059 
Q 1965 3059 2099 2995 
Q 2234 2931 2314 2819 
Q 2394 2707 2429 2556 
Q 2464 2406 2464 2240 
L 2464 0 
L 2867 0 
L 2867 1869 
Q 2867 2099 2908 2313 
Q 2950 2528 3052 2694 
Q 3155 2861 3328 2960 
Q 3501 3059 3763 3059 
Q 4198 3059 4371 2844 
Q 4544 2630 4544 2221 
L 4544 0 
L 4947 0 
L 4947 2240 
Q 4947 3398 3853 3398 
Q 3526 3398 3238 3238 
Q 2950 3078 2803 2752 
Q 2714 3078 2448 3238 
Q 2182 3398 1856 3398 
Q 1453 3398 1193 3225 
Q 934 3053 774 2746 
L 755 2746 
L 755 3302 
L 384 3302 
z
" transform="scale(0.015625)"/>
       <path id="HelveticaNeue-Light-69" d="M 390 4570 
L 390 3923 
L 794 3923 
L 794 4570 
L 390 4570 
z
M 390 3302 
L 390 0 
L 794 0 
L 794 3302 
L 390 3302 
z
" transform="scale(0.015625)"/>
       <path id="HelveticaNeue-Light-61" d="M 346 2291 
L 749 2291 
Q 762 2694 1005 2876 
Q 1248 3059 1632 3059 
Q 1811 3059 1968 3030 
Q 2125 3002 2243 2925 
Q 2362 2848 2429 2717 
Q 2496 2586 2496 2381 
Q 2496 2246 2461 2163 
Q 2426 2080 2362 2032 
Q 2298 1984 2202 1965 
Q 2106 1946 1978 1933 
Q 1651 1894 1334 1852 
Q 1018 1811 765 1708 
Q 512 1606 358 1411 
Q 205 1216 205 870 
Q 205 621 291 438 
Q 378 256 528 137 
Q 678 19 880 -35 
Q 1082 -90 1312 -90 
Q 1555 -90 1731 -45 
Q 1907 0 2044 83 
Q 2182 166 2294 291 
Q 2406 416 2515 576 
L 2528 576 
Q 2528 448 2544 342 
Q 2560 237 2611 160 
Q 2662 83 2755 41 
Q 2848 0 3002 0 
Q 3085 0 3139 6 
Q 3194 13 3264 26 
L 3264 365 
Q 3206 339 3136 339 
Q 2899 339 2899 582 
L 2899 2336 
Q 2899 2669 2790 2877 
Q 2682 3085 2509 3200 
Q 2336 3315 2118 3356 
Q 1901 3398 1683 3398 
Q 1395 3398 1158 3334 
Q 922 3270 746 3136 
Q 570 3002 467 2790 
Q 365 2579 346 2291 
z
M 2496 1805 
L 2496 1280 
Q 2496 1037 2403 845 
Q 2310 653 2153 518 
Q 1997 384 1785 313 
Q 1574 243 1344 243 
Q 1203 243 1068 288 
Q 934 333 832 419 
Q 730 506 669 624 
Q 608 742 608 896 
Q 608 1139 752 1270 
Q 896 1402 1120 1472 
Q 1344 1542 1616 1577 
Q 1888 1613 2144 1658 
Q 2227 1670 2336 1702 
Q 2445 1734 2483 1805 
L 2496 1805 
z
" transform="scale(0.015625)"/>
       <path id="HelveticaNeue-Light-6c" d="M 390 4570 
L 390 0 
L 794 0 
L 794 4570 
L 390 4570 
z
" transform="scale(0.015625)"/>
       <path id="HelveticaNeue-Light-20" transform="scale(0.015625)"/>
       <path id="HelveticaNeue-Light-70" d="M 384 3302 
L 384 -1216 
L 787 -1216 
L 787 627 
L 800 627 
Q 864 448 982 313 
Q 1101 179 1254 89 
Q 1408 0 1587 -45 
Q 1766 -90 1946 -90 
Q 2323 -90 2601 48 
Q 2880 186 3065 426 
Q 3251 666 3340 982 
Q 3430 1299 3430 1651 
Q 3430 2003 3340 2320 
Q 3251 2637 3065 2877 
Q 2880 3117 2601 3257 
Q 2323 3398 1946 3398 
Q 1542 3398 1225 3209 
Q 909 3021 768 2675 
L 755 2675 
L 755 3302 
L 384 3302 
z
M 3027 1651 
Q 3027 1395 2966 1142 
Q 2906 890 2774 691 
Q 2643 493 2438 368 
Q 2234 243 1946 243 
Q 1626 243 1405 368 
Q 1184 493 1046 691 
Q 909 890 848 1142 
Q 787 1395 787 1651 
Q 787 1933 841 2189 
Q 896 2445 1030 2637 
Q 1165 2829 1389 2944 
Q 1613 3059 1946 3059 
Q 2234 3059 2438 2934 
Q 2643 2810 2774 2611 
Q 2906 2413 2966 2160 
Q 3027 1907 3027 1651 
z
" transform="scale(0.015625)"/>
       <path id="HelveticaNeue-Light-6f" d="M 1779 3059 
Q 2067 3059 2284 2937 
Q 2502 2816 2646 2617 
Q 2790 2419 2864 2166 
Q 2938 1914 2938 1651 
Q 2938 1389 2864 1136 
Q 2790 883 2646 684 
Q 2502 486 2284 364 
Q 2067 243 1779 243 
Q 1491 243 1273 364 
Q 1056 486 912 684 
Q 768 883 694 1136 
Q 621 1389 621 1651 
Q 621 1914 694 2166 
Q 768 2419 912 2617 
Q 1056 2816 1273 2937 
Q 1491 3059 1779 3059 
z
M 1779 3398 
Q 1402 3398 1110 3257 
Q 819 3117 620 2880 
Q 422 2643 320 2326 
Q 218 2010 218 1651 
Q 218 1293 320 976 
Q 422 659 620 422 
Q 819 186 1110 48 
Q 1402 -90 1779 -90 
Q 2157 -90 2448 48 
Q 2739 186 2937 422 
Q 3136 659 3238 976 
Q 3341 1293 3341 1651 
Q 3341 2010 3238 2326 
Q 3136 2643 2937 2880 
Q 2739 3117 2448 3257 
Q 2157 3398 1779 3398 
z
" transform="scale(0.015625)"/>
       <path id="HelveticaNeue-Light-74" d="M 1024 3302 
L 1024 4294 
L 621 4294 
L 621 3302 
L 45 3302 
L 45 2963 
L 621 2963 
L 621 704 
Q 614 282 774 125 
Q 934 -32 1338 -32 
Q 1427 -32 1516 -25 
Q 1606 -19 1696 -19 
L 1696 320 
Q 1523 301 1350 301 
Q 1133 314 1078 426 
Q 1024 538 1024 736 
L 1024 2963 
L 1696 2963 
L 1696 3302 
L 1024 3302 
z
" transform="scale(0.015625)"/>
       <path id="HelveticaNeue-Light-6e" d="M 378 3302 
L 378 0 
L 781 0 
L 781 1926 
Q 787 2170 860 2378 
Q 934 2586 1065 2736 
Q 1197 2886 1385 2972 
Q 1574 3059 1818 3059 
Q 2061 3059 2224 2982 
Q 2387 2906 2483 2771 
Q 2579 2637 2617 2454 
Q 2656 2272 2656 2061 
L 2656 0 
L 3059 0 
L 3059 2125 
Q 3059 2419 3001 2656 
Q 2944 2893 2803 3056 
Q 2662 3219 2428 3308 
Q 2195 3398 1850 3398 
Q 1498 3398 1203 3216 
Q 909 3034 794 2733 
L 781 2733 
L 781 3302 
L 378 3302 
z
" transform="scale(0.015625)"/>
       <path id="HelveticaNeue-Light-28" d="M 1229 -1216 
L 1549 -1216 
Q 1363 -922 1212 -582 
Q 1062 -243 953 118 
Q 845 480 787 845 
Q 730 1210 730 1555 
Q 730 2413 925 3193 
Q 1120 3974 1549 4666 
L 1229 4666 
Q 806 4006 566 3267 
Q 326 2528 326 1702 
Q 326 1280 387 905 
Q 448 531 563 179 
Q 678 -173 848 -518 
Q 1018 -864 1229 -1216 
z
" transform="scale(0.015625)"/>
       <path id="HelveticaNeue-Light-4b" d="M 461 4570 
L 461 0 
L 896 0 
L 896 1568 
L 1773 2381 
L 3674 0 
L 4237 0 
L 2099 2682 
L 4141 4570 
L 3552 4570 
L 896 2112 
L 896 4570 
L 461 4570 
z
" transform="scale(0.015625)"/>
       <path id="HelveticaNeue-Light-29" d="M 314 4666 
L 0 4666 
Q 173 4358 323 4019 
Q 474 3680 582 3325 
Q 691 2970 752 2605 
Q 813 2240 813 1888 
Q 813 1030 617 252 
Q 422 -525 0 -1216 
L 314 -1216 
Q 736 -557 976 179 
Q 1216 915 1216 1741 
Q 1216 2157 1155 2534 
Q 1094 2912 979 3267 
Q 864 3622 694 3968 
Q 525 4314 314 4666 
z
" transform="scale(0.015625)"/>
      </defs>
      <use xlink:href="#HelveticaNeue-Light-63"/>
      <use xlink:href="#HelveticaNeue-Light-68" x="51.899994"/>
      <use xlink:href="#HelveticaNeue-Light-65" x="105.599991"/>
      <use xlink:href="#HelveticaNeue-Light-6d" x="157.499985"/>
      <use xlink:href="#HelveticaNeue-Light-69" x="240.799973"/>
      <use xlink:href="#HelveticaNeue-Light-63" x="259.299957"/>
      <use xlink:href="#HelveticaNeue-Light-61" x="311.199951"/>
      <use xlink:href="#HelveticaNeue-Light-6c" x="363.099945"/>
      <use xlink:href="#HelveticaNeue-Light-20" x="381.59993"/>
      <use xlink:href="#HelveticaNeue-Light-70" x="409.399918"/>
      <use xlink:href="#HelveticaNeue-Light-6f" x="466.799911"/>
      <use xlink:href="#HelveticaNeue-Light-74" x="522.399902"/>
      <use xlink:href="#HelveticaNeue-Light-65" x="551.999893"/>
      <use xlink:href="#HelveticaNeue-Light-6e" x="603.899887"/>
      <use xlink:href="#HelveticaNeue-Light-74" x="657.599884"/>
      <use xlink:href="#HelveticaNeue-Light-69" x="687.199875"/>
      <use xlink:href="#HelveticaNeue-Light-61" x="705.69986"/>
      <use xlink:href="#HelveticaNeue-Light-6c" x="757.599854"/>
      <use xlink:href="#HelveticaNeue-Light-20" x="776.099838"/>
      <use xlink:href="#HelveticaNeue-Light-28" x="803.899826"/>
      <use xlink:href="#HelveticaNeue-Light-4b" x="827.999817"/>
      <use xlink:href="#HelveticaNeue-Light-29" x="892.799805"/>
     </g>
    </g>
   </g>
   <g id="matplotlib.axis_2">
    <g id="ytick_1">
     <g id="line2d_6">
      <defs>
       <path id="mb820470900" d="M 0 0 
L -2 0 
" style="stroke: #000000; stroke-width: 0.35"/>
      </defs>
      <g>
       <use xlink:href="#mb820470900" x="24.912188" y="104.760763" style="stroke: #000000; stroke-width: 0.35"/>
      </g>
     </g>
     <g id="text_7">
      <!-- 0.2 -->
      <g transform="translate(8.793438 107.617013)scale(0.08 -0.08)">
       <defs>
        <path id="HelveticaNeue-Light-2e" d="M 621 0 
L 1158 0 
L 1158 678 
L 621 678 
L 621 0 
z
" transform="scale(0.015625)"/>
       </defs>
       <use xlink:href="#HelveticaNeue-Light-30"/>
       <use xlink:href="#HelveticaNeue-Light-2e" x="55.599991"/>
       <use xlink:href="#HelveticaNeue-Light-32" x="83.399979"/>
      </g>
     </g>
    </g>
    <g id="ytick_2">
     <g id="line2d_7">
      <g>
       <use xlink:href="#mb820470900" x="24.912188" y="81.660103" style="stroke: #000000; stroke-width: 0.35"/>
      </g>
     </g>
     <g id="text_8">
      <!-- 0.4 -->
      <g transform="translate(8.793438 84.516353)scale(0.08 -0.08)">
       <use xlink:href="#HelveticaNeue-Light-30"/>
       <use xlink:href="#HelveticaNeue-Light-2e" x="55.599991"/>
       <use xlink:href="#HelveticaNeue-Light-34" x="83.399979"/>
      </g>
     </g>
    </g>
    <g id="ytick_3">
     <g id="line2d_8">
      <g>
       <use xlink:href="#mb820470900" x="24.912188" y="58.559444" style="stroke: #000000; stroke-width: 0.35"/>
      </g>
     </g>
     <g id="text_9">
      <!-- 0.6 -->
      <g transform="translate(8.793438 61.415694)scale(0.08 -0.08)">
       <use xlink:href="#HelveticaNeue-Light-30"/>
       <use xlink:href="#HelveticaNeue-Light-2e" x="55.599991"/>
       <use xlink:href="#HelveticaNeue-Light-36" x="83.399979"/>
      </g>
     </g>
    </g>
    <g id="ytick_4">
     <g id="line2d_9">
      <g>
       <use xlink:href="#mb820470900" x="24.912188" y="35.458784" style="stroke: #000000; stroke-width: 0.35"/>
      </g>
     </g>
     <g id="text_10">
      <!-- 0.8 -->
      <g transform="translate(8.793438 38.315034)scale(0.08 -0.08)">
       <use xlink:href="#HelveticaNeue-Light-30"/>
       <use xlink:href="#HelveticaNeue-Light-2e" x="55.599991"/>
       <use xlink:href="#HelveticaNeue-Light-38" x="83.399979"/>
      </g>
     </g>
    </g>
    <g id="text_11">
     <!-- filling fraction -->
     <g transform="translate(5.358437 89.556102)rotate(-90)scale(0.07 -0.07)">
      <defs>
       <path id="HelveticaNeue-Light-66" d="M 1658 2963 
L 1658 3302 
L 1005 3302 
L 1005 3590 
Q 1005 3725 1011 3840 
Q 1018 3955 1059 4041 
Q 1101 4128 1190 4179 
Q 1280 4230 1446 4230 
Q 1517 4230 1587 4220 
Q 1658 4211 1741 4198 
L 1741 4544 
Q 1645 4557 1568 4563 
Q 1491 4570 1402 4570 
Q 1158 4570 1001 4499 
Q 845 4429 755 4301 
Q 666 4173 634 3993 
Q 602 3814 602 3603 
L 602 3302 
L 38 3302 
L 38 2963 
L 602 2963 
L 602 0 
L 1005 0 
L 1005 2963 
L 1658 2963 
z
" transform="scale(0.015625)"/>
       <path id="HelveticaNeue-Light-67" d="M 3174 269 
L 3174 3302 
L 2771 3302 
L 2771 2733 
L 2758 2733 
Q 2701 2867 2595 2988 
Q 2490 3110 2355 3203 
Q 2221 3296 2057 3347 
Q 1894 3398 1709 3398 
Q 1350 3398 1072 3267 
Q 794 3136 605 2909 
Q 416 2682 317 2378 
Q 218 2074 218 1734 
Q 218 1382 301 1072 
Q 384 762 566 531 
Q 749 301 1030 169 
Q 1312 38 1709 38 
Q 2074 38 2346 224 
Q 2618 410 2758 717 
L 2771 717 
L 2771 269 
Q 2771 -333 2521 -653 
Q 2272 -973 1709 -973 
Q 1542 -973 1382 -937 
Q 1222 -902 1091 -825 
Q 960 -749 867 -624 
Q 774 -499 742 -314 
L 339 -314 
Q 358 -576 483 -765 
Q 608 -954 797 -1075 
Q 986 -1197 1222 -1254 
Q 1459 -1312 1709 -1312 
Q 2112 -1312 2390 -1203 
Q 2669 -1094 2841 -889 
Q 3014 -685 3094 -390 
Q 3174 -96 3174 269 
z
M 1709 378 
Q 1427 378 1222 490 
Q 1018 602 883 784 
Q 749 966 685 1203 
Q 621 1440 621 1690 
Q 621 1946 681 2192 
Q 742 2438 876 2630 
Q 1011 2822 1216 2940 
Q 1421 3059 1709 3059 
Q 1997 3059 2198 2937 
Q 2400 2816 2528 2617 
Q 2656 2419 2713 2176 
Q 2771 1933 2771 1690 
Q 2771 1440 2704 1203 
Q 2637 966 2502 784 
Q 2368 602 2169 490 
Q 1971 378 1709 378 
z
" transform="scale(0.015625)"/>
       <path id="HelveticaNeue-Light-72" d="M 384 3302 
L 384 0 
L 787 0 
L 787 1760 
Q 787 2022 876 2243 
Q 966 2464 1129 2624 
Q 1293 2784 1517 2870 
Q 1741 2957 2016 2944 
L 2016 3347 
Q 1568 3366 1245 3148 
Q 922 2931 768 2528 
L 755 2528 
L 755 3302 
L 384 3302 
z
" transform="scale(0.015625)"/>
      </defs>
      <use xlink:href="#HelveticaNeue-Light-66"/>
      <use xlink:href="#HelveticaNeue-Light-69" x="25.899994"/>
      <use xlink:href="#HelveticaNeue-Light-6c" x="44.399979"/>
      <use xlink:href="#HelveticaNeue-Light-6c" x="62.899963"/>
      <use xlink:href="#HelveticaNeue-Light-69" x="81.399948"/>
      <use xlink:href="#HelveticaNeue-Light-6e" x="99.899933"/>
      <use xlink:href="#HelveticaNeue-Light-67" x="153.59993"/>
      <use xlink:href="#HelveticaNeue-Light-20" x="209.199921"/>
      <use xlink:href="#HelveticaNeue-Light-66" x="236.999908"/>
      <use xlink:href="#HelveticaNeue-Light-72" x="262.899902"/>
      <use xlink:href="#HelveticaNeue-Light-61" x="294.399887"/>
      <use xlink:href="#HelveticaNeue-Light-63" x="346.299881"/>
      <use xlink:href="#HelveticaNeue-Light-74" x="398.199875"/>
      <use xlink:href="#HelveticaNeue-Light-69" x="427.799866"/>
      <use xlink:href="#HelveticaNeue-Light-6f" x="446.29985"/>
      <use xlink:href="#HelveticaNeue-Light-6e" x="501.899841"/>
     </g>
    </g>
   </g>
   <g id="LineCollection_1">
    <path d="M 27.101173 127.834099 
L 27.101173 127.827491 
" clip-path="url(#p78906196d1)" style="fill: none; stroke: #30123b; stroke-width: 0.75"/>
    <path d="M 29.290158 127.770719 
L 29.290158 127.757359 
" clip-path="url(#p78906196d1)" style="fill: none; stroke: #30123b; stroke-width: 0.75"/>
    <path d="M 31.479143 127.647841 
L 31.479143 127.626718 
" clip-path="url(#p78906196d1)" style="fill: none; stroke: #30123b; stroke-width: 0.75"/>
    <path d="M 33.668129 127.227311 
L 33.668129 127.189026 
" clip-path="url(#p78906196d1)" style="fill: none; stroke: #30123b; stroke-width: 0.75"/>
    <path d="M 35.857114 125.844694 
L 35.857114 125.762175 
" clip-path="url(#p78906196d1)" style="fill: none; stroke: #30123b; stroke-width: 0.75"/>
    <path d="M 38.046099 90.314414 
L 38.046099 90.184251 
" clip-path="url(#p78906196d1)" style="fill: none; stroke: #30123b; stroke-width: 0.75"/>
    <path d="M 40.235085 89.439905 
L 40.235085 89.427768 
" clip-path="url(#p78906196d1)" style="fill: none; stroke: #30123b; stroke-width: 0.75"/>
    <path d="M 42.42407 89.392686 
L 42.42407 89.385669 
" clip-path="url(#p78906196d1)" style="fill: none; stroke: #30123b; stroke-width: 0.75"/>
    <path d="M 44.613055 89.367323 
L 44.613055 89.365003 
" clip-path="url(#p78906196d1)" style="fill: none; stroke: #30123b; stroke-width: 0.75"/>
    <path d="M 46.802041 89.36479 
L 46.802041 89.363103 
" clip-path="url(#p78906196d1)" style="fill: none; stroke: #30123b; stroke-width: 0.75"/>
    <path d="M 48.991026 89.36278 
L 48.991026 89.36131 
" clip-path="url(#p78906196d1)" style="fill: none; stroke: #30123b; stroke-width: 0.75"/>
    <path d="M 51.180011 89.360768 
L 51.180011 89.360451 
" clip-path="url(#p78906196d1)" style="fill: none; stroke: #30123b; stroke-width: 0.75"/>
    <path d="M 53.368997 89.360478 
L 53.368997 89.360323 
" clip-path="url(#p78906196d1)" style="fill: none; stroke: #30123b; stroke-width: 0.75"/>
    <path d="M 55.557982 89.360323 
L 55.557982 89.360323 
" clip-path="url(#p78906196d1)" style="fill: none; stroke: #30123b; stroke-width: 0.75"/>
    <path d="M 57.746967 89.341007 
L 57.746967 89.333252 
" clip-path="url(#p78906196d1)" style="fill: none; stroke: #30123b; stroke-width: 0.75"/>
    <path d="M 59.935953 89.352464 
L 59.935953 89.347259 
" clip-path="url(#p78906196d1)" style="fill: none; stroke: #30123b; stroke-width: 0.75"/>
    <path d="M 62.124938 89.344148 
L 62.124938 89.337227 
" clip-path="url(#p78906196d1)" style="fill: none; stroke: #30123b; stroke-width: 0.75"/>
    <path d="M 64.313923 89.283672 
L 64.313923 89.269164 
" clip-path="url(#p78906196d1)" style="fill: none; stroke: #30123b; stroke-width: 0.75"/>
    <path d="M 66.502909 89.03824 
L 66.502909 89.007793 
" clip-path="url(#p78906196d1)" style="fill: none; stroke: #30123b; stroke-width: 0.75"/>
    <path d="M 68.691894 88.370302 
L 68.691894 88.307445 
" clip-path="url(#p78906196d1)" style="fill: none; stroke: #30123b; stroke-width: 0.75"/>
    <path d="M 70.880879 83.66002 
L 70.880879 83.54475 
" clip-path="url(#p78906196d1)" style="fill: none; stroke: #30123b; stroke-width: 0.75"/>
    <path d="M 73.069865 82.744395 
L 73.069865 82.705281 
" clip-path="url(#p78906196d1)" style="fill: none; stroke: #30123b; stroke-width: 0.75"/>
    <path d="M 75.25885 81.15865 
L 75.25885 81.108108 
" clip-path="url(#p78906196d1)" style="fill: none; stroke: #30123b; stroke-width: 0.75"/>
    <path d="M 77.447835 81.088096 
L 77.447835 81.048084 
" clip-path="url(#p78906196d1)" style="fill: none; stroke: #30123b; stroke-width: 0.75"/>
    <path d="M 79.636821 80.98394 
L 79.636821 80.914123 
" clip-path="url(#p78906196d1)" style="fill: none; stroke: #30123b; stroke-width: 0.75"/>
    <path d="M 81.825806 77.970979 
L 81.825806 77.940227 
" clip-path="url(#p78906196d1)" style="fill: none; stroke: #30123b; stroke-width: 0.75"/>
    <path d="M 84.014791 77.786433 
L 84.014791 77.761538 
" clip-path="url(#p78906196d1)" style="fill: none; stroke: #30123b; stroke-width: 0.75"/>
    <path d="M 86.203777 77.4237 
L 86.203777 77.413546 
" clip-path="url(#p78906196d1)" style="fill: none; stroke: #30123b; stroke-width: 0.75"/>
    <path d="M 88.392762 77.426444 
L 88.392762 77.416643 
" clip-path="url(#p78906196d1)" style="fill: none; stroke: #30123b; stroke-width: 0.75"/>
    <path d="M 90.581747 77.365001 
L 90.581747 77.357903 
" clip-path="url(#p78906196d1)" style="fill: none; stroke: #30123b; stroke-width: 0.75"/>
    <path d="M 92.770733 77.350978 
L 92.770733 77.345172 
" clip-path="url(#p78906196d1)" style="fill: none; stroke: #30123b; stroke-width: 0.75"/>
    <path d="M 94.959718 77.339144 
L 94.959718 77.336101 
" clip-path="url(#p78906196d1)" style="fill: none; stroke: #30123b; stroke-width: 0.75"/>
    <path d="M 97.148703 77.332706 
L 97.148703 77.331143 
" clip-path="url(#p78906196d1)" style="fill: none; stroke: #30123b; stroke-width: 0.75"/>
    <path d="M 99.337689 77.335094 
L 99.337689 77.332778 
" clip-path="url(#p78906196d1)" style="fill: none; stroke: #30123b; stroke-width: 0.75"/>
    <path d="M 101.526674 77.329866 
L 101.526674 77.329167 
" clip-path="url(#p78906196d1)" style="fill: none; stroke: #30123b; stroke-width: 0.75"/>
    <path d="M 103.715659 77.329155 
L 103.715659 77.328802 
" clip-path="url(#p78906196d1)" style="fill: none; stroke: #30123b; stroke-width: 0.75"/>
    <path d="M 105.904645 77.32763 
L 105.904645 77.326015 
" clip-path="url(#p78906196d1)" style="fill: none; stroke: #30123b; stroke-width: 0.75"/>
    <path d="M 108.09363 76.64314 
L 108.09363 76.604209 
" clip-path="url(#p78906196d1)" style="fill: none; stroke: #30123b; stroke-width: 0.75"/>
    <path d="M 110.282615 77.114337 
L 110.282615 77.093399 
" clip-path="url(#p78906196d1)" style="fill: none; stroke: #30123b; stroke-width: 0.75"/>
    <path d="M 112.471601 77.215778 
L 112.471601 77.205199 
" clip-path="url(#p78906196d1)" style="fill: none; stroke: #30123b; stroke-width: 0.75"/>
    <path d="M 114.660586 74.87466 
L 114.660586 74.834908 
" clip-path="url(#p78906196d1)" style="fill: none; stroke: #30123b; stroke-width: 0.75"/>
    <path d="M 116.849571 75.645007 
L 116.849571 75.602835 
" clip-path="url(#p78906196d1)" style="fill: none; stroke: #30123b; stroke-width: 0.75"/>
    <path d="M 119.038556 76.385388 
L 119.038556 76.350823 
" clip-path="url(#p78906196d1)" style="fill: none; stroke: #30123b; stroke-width: 0.75"/>
    <path d="M 121.227542 75.824935 
L 121.227542 75.786796 
" clip-path="url(#p78906196d1)" style="fill: none; stroke: #30123b; stroke-width: 0.75"/>
    <path d="M 123.416527 73.720641 
L 123.416527 73.719701 
" clip-path="url(#p78906196d1)" style="fill: none; stroke: #30123b; stroke-width: 0.75"/>
    <path d="M 127.794498 73.959884 
L 127.794498 73.959884 
" clip-path="url(#p78906196d1)" style="fill: none; stroke: #30123b; stroke-width: 0.75"/>
    <path d="M 132.172468 73.959884 
L 132.172468 73.959884 
" clip-path="url(#p78906196d1)" style="fill: none; stroke: #30123b; stroke-width: 0.75"/>
    <path d="M 136.550439 70.111263 
L 136.550439 70.110163 
" clip-path="url(#p78906196d1)" style="fill: none; stroke: #30123b; stroke-width: 0.75"/>
    <path d="M 140.92841 70.109774 
L 140.92841 70.109774 
" clip-path="url(#p78906196d1)" style="fill: none; stroke: #30123b; stroke-width: 0.75"/>
    <path d="M 145.30638 70.109774 
L 145.30638 70.109774 
" clip-path="url(#p78906196d1)" style="fill: none; stroke: #30123b; stroke-width: 0.75"/>
    <path d="M 149.684351 70.109774 
L 149.684351 70.109774 
" clip-path="url(#p78906196d1)" style="fill: none; stroke: #30123b; stroke-width: 0.75"/>
    <path d="M 154.062322 68.827826 
L 154.062322 68.826777 
" clip-path="url(#p78906196d1)" style="fill: none; stroke: #30123b; stroke-width: 0.75"/>
    <path d="M 158.440292 70.109774 
L 158.440292 70.109774 
" clip-path="url(#p78906196d1)" style="fill: none; stroke: #30123b; stroke-width: 0.75"/>
    <path d="M 162.818263 70.109774 
L 162.818263 70.109774 
" clip-path="url(#p78906196d1)" style="fill: none; stroke: #30123b; stroke-width: 0.75"/>
    <path d="M 167.196234 70.109774 
L 167.196234 70.109774 
" clip-path="url(#p78906196d1)" style="fill: none; stroke: #30123b; stroke-width: 0.75"/>
    <path d="M 171.574204 70.109774 
L 171.574204 70.109774 
" clip-path="url(#p78906196d1)" style="fill: none; stroke: #30123b; stroke-width: 0.75"/>
    <path d="M 175.952175 68.826404 
L 175.952175 68.826404 
" clip-path="url(#p78906196d1)" style="fill: none; stroke: #30123b; stroke-width: 0.75"/>
    <path d="M 180.330146 68.826404 
L 180.330146 68.826404 
" clip-path="url(#p78906196d1)" style="fill: none; stroke: #30123b; stroke-width: 0.75"/>
    <path d="M 184.708116 70.109774 
L 184.708116 70.109774 
" clip-path="url(#p78906196d1)" style="fill: none; stroke: #30123b; stroke-width: 0.75"/>
    <path d="M 189.086087 68.826404 
L 189.086087 68.826404 
" clip-path="url(#p78906196d1)" style="fill: none; stroke: #30123b; stroke-width: 0.75"/>
    <path d="M 193.464058 70.109774 
L 193.464058 70.109774 
" clip-path="url(#p78906196d1)" style="fill: none; stroke: #30123b; stroke-width: 0.75"/>
    <path d="M 197.842028 68.826404 
L 197.842028 68.826404 
" clip-path="url(#p78906196d1)" style="fill: none; stroke: #30123b; stroke-width: 0.75"/>
    <path d="M 202.219999 70.109774 
L 202.219999 70.109774 
" clip-path="url(#p78906196d1)" style="fill: none; stroke: #30123b; stroke-width: 0.75"/>
    <path d="M 206.597969 68.826404 
L 206.597969 68.826404 
" clip-path="url(#p78906196d1)" style="fill: none; stroke: #30123b; stroke-width: 0.75"/>
    <path d="M 210.97594 68.826404 
L 210.97594 68.826404 
" clip-path="url(#p78906196d1)" style="fill: none; stroke: #30123b; stroke-width: 0.75"/>
    <path d="M 215.353911 69.895084 
L 215.353911 69.874405 
" clip-path="url(#p78906196d1)" style="fill: none; stroke: #30123b; stroke-width: 0.75"/>
    <path d="M 219.731881 68.826404 
L 219.731881 68.826404 
" clip-path="url(#p78906196d1)" style="fill: none; stroke: #30123b; stroke-width: 0.75"/>
   </g>
   <g id="LineCollection_2">
    <path d="M 94.959718 124.684328 
L 94.959718 124.631957 
" clip-path="url(#p78906196d1)" style="fill: none; stroke: #a4fc3c; stroke-width: 0.75"/>
    <path d="M 99.337689 88.211938 
L 99.337689 88.146694 
" clip-path="url(#p78906196d1)" style="fill: none; stroke: #a4fc3c; stroke-width: 0.75"/>
    <path d="M 103.715659 81.197935 
L 103.715659 81.142354 
" clip-path="url(#p78906196d1)" style="fill: none; stroke: #a4fc3c; stroke-width: 0.75"/>
    <path d="M 108.09363 77.520495 
L 108.09363 77.481454 
" clip-path="url(#p78906196d1)" style="fill: none; stroke: #a4fc3c; stroke-width: 0.75"/>
    <path d="M 112.471601 74.232697 
L 112.471601 74.191851 
" clip-path="url(#p78906196d1)" style="fill: none; stroke: #a4fc3c; stroke-width: 0.75"/>
    <path d="M 116.849571 71.081232 
L 116.849571 71.044527 
" clip-path="url(#p78906196d1)" style="fill: none; stroke: #a4fc3c; stroke-width: 0.75"/>
    <path d="M 121.227542 69.956998 
L 121.227542 69.928893 
" clip-path="url(#p78906196d1)" style="fill: none; stroke: #a4fc3c; stroke-width: 0.75"/>
    <path d="M 125.605512 68.860235 
L 125.605512 68.833485 
" clip-path="url(#p78906196d1)" style="fill: none; stroke: #a4fc3c; stroke-width: 0.75"/>
    <path d="M 129.983483 67.640705 
L 129.983483 67.61566 
" clip-path="url(#p78906196d1)" style="fill: none; stroke: #a4fc3c; stroke-width: 0.75"/>
    <path d="M 134.361454 66.758911 
L 134.361454 66.725431 
" clip-path="url(#p78906196d1)" style="fill: none; stroke: #a4fc3c; stroke-width: 0.75"/>
    <path d="M 138.739424 65.56592 
L 138.739424 65.522977 
" clip-path="url(#p78906196d1)" style="fill: none; stroke: #a4fc3c; stroke-width: 0.75"/>
    <path d="M 143.117395 64.199475 
L 143.117395 64.145694 
" clip-path="url(#p78906196d1)" style="fill: none; stroke: #a4fc3c; stroke-width: 0.75"/>
    <path d="M 147.495366 60.661942 
L 147.495366 60.621339 
" clip-path="url(#p78906196d1)" style="fill: none; stroke: #a4fc3c; stroke-width: 0.75"/>
    <path d="M 151.873336 61.440389 
L 151.873336 61.417931 
" clip-path="url(#p78906196d1)" style="fill: none; stroke: #a4fc3c; stroke-width: 0.75"/>
    <path d="M 156.251307 59.866639 
L 156.251307 59.860576 
" clip-path="url(#p78906196d1)" style="fill: none; stroke: #a4fc3c; stroke-width: 0.75"/>
    <path d="M 160.629278 56.741332 
L 160.629278 56.694779 
" clip-path="url(#p78906196d1)" style="fill: none; stroke: #a4fc3c; stroke-width: 0.75"/>
    <path d="M 165.007248 59.465352 
L 165.007248 59.439705 
" clip-path="url(#p78906196d1)" style="fill: none; stroke: #a4fc3c; stroke-width: 0.75"/>
    <path d="M 169.385219 58.842843 
L 169.385219 58.81409 
" clip-path="url(#p78906196d1)" style="fill: none; stroke: #a4fc3c; stroke-width: 0.75"/>
    <path d="M 173.76319 58.404084 
L 173.76319 58.35186 
" clip-path="url(#p78906196d1)" style="fill: none; stroke: #a4fc3c; stroke-width: 0.75"/>
    <path d="M 178.14116 55.365483 
L 178.14116 55.305798 
" clip-path="url(#p78906196d1)" style="fill: none; stroke: #a4fc3c; stroke-width: 0.75"/>
    <path d="M 182.519131 53.519551 
L 182.519131 53.506361 
" clip-path="url(#p78906196d1)" style="fill: none; stroke: #a4fc3c; stroke-width: 0.75"/>
    <path d="M 186.897102 53.658434 
L 186.897102 53.630914 
" clip-path="url(#p78906196d1)" style="fill: none; stroke: #a4fc3c; stroke-width: 0.75"/>
    <path d="M 191.275072 53.677114 
L 191.275072 53.658467 
" clip-path="url(#p78906196d1)" style="fill: none; stroke: #a4fc3c; stroke-width: 0.75"/>
    <path d="M 195.653043 55.992704 
L 195.653043 55.992704 
" clip-path="url(#p78906196d1)" style="fill: none; stroke: #a4fc3c; stroke-width: 0.75"/>
    <path d="M 200.031014 53.425964 
L 200.031014 53.425964 
" clip-path="url(#p78906196d1)" style="fill: none; stroke: #a4fc3c; stroke-width: 0.75"/>
    <path d="M 204.408984 53.425964 
L 204.408984 53.425964 
" clip-path="url(#p78906196d1)" style="fill: none; stroke: #a4fc3c; stroke-width: 0.75"/>
    <path d="M 208.786955 53.425964 
L 208.786955 53.425964 
" clip-path="url(#p78906196d1)" style="fill: none; stroke: #a4fc3c; stroke-width: 0.75"/>
    <path d="M 213.164925 50.859224 
L 213.164925 50.859224 
" clip-path="url(#p78906196d1)" style="fill: none; stroke: #a4fc3c; stroke-width: 0.75"/>
    <path d="M 217.542896 53.425964 
L 217.542896 53.425964 
" clip-path="url(#p78906196d1)" style="fill: none; stroke: #a4fc3c; stroke-width: 0.75"/>
    <path d="M 221.920867 49.575854 
L 221.920867 49.575854 
" clip-path="url(#p78906196d1)" style="fill: none; stroke: #a4fc3c; stroke-width: 0.75"/>
   </g>
   <g id="LineCollection_3">
    <path d="M 129.983483 127.433056 
L 129.983483 127.418157 
" clip-path="url(#p78906196d1)" style="fill: none; stroke: #7a0403; stroke-width: 0.75"/>
    <path d="M 132.172468 126.631496 
L 132.172468 126.603244 
" clip-path="url(#p78906196d1)" style="fill: none; stroke: #7a0403; stroke-width: 0.75"/>
    <path d="M 134.361454 123.230114 
L 134.361454 123.153545 
" clip-path="url(#p78906196d1)" style="fill: none; stroke: #7a0403; stroke-width: 0.75"/>
    <path d="M 136.550439 78.366479 
L 136.550439 78.236139 
" clip-path="url(#p78906196d1)" style="fill: none; stroke: #7a0403; stroke-width: 0.75"/>
    <path d="M 138.739424 66.383733 
L 138.739424 66.297295 
" clip-path="url(#p78906196d1)" style="fill: none; stroke: #7a0403; stroke-width: 0.75"/>
    <path d="M 140.92841 60.404424 
L 140.92841 60.329212 
" clip-path="url(#p78906196d1)" style="fill: none; stroke: #7a0403; stroke-width: 0.75"/>
    <path d="M 143.117395 54.973541 
L 143.117395 54.905329 
" clip-path="url(#p78906196d1)" style="fill: none; stroke: #7a0403; stroke-width: 0.75"/>
    <path d="M 145.30638 52.263402 
L 145.30638 52.213201 
" clip-path="url(#p78906196d1)" style="fill: none; stroke: #7a0403; stroke-width: 0.75"/>
    <path d="M 147.495366 51.105412 
L 147.495366 51.070169 
" clip-path="url(#p78906196d1)" style="fill: none; stroke: #7a0403; stroke-width: 0.75"/>
    <path d="M 149.684351 49.236675 
L 149.684351 49.176715 
" clip-path="url(#p78906196d1)" style="fill: none; stroke: #7a0403; stroke-width: 0.75"/>
    <path d="M 151.873336 49.364351 
L 151.873336 49.320375 
" clip-path="url(#p78906196d1)" style="fill: none; stroke: #7a0403; stroke-width: 0.75"/>
    <path d="M 154.062322 43.778933 
L 154.062322 43.731546 
" clip-path="url(#p78906196d1)" style="fill: none; stroke: #7a0403; stroke-width: 0.75"/>
    <path d="M 156.251307 45.77736 
L 156.251307 45.746611 
" clip-path="url(#p78906196d1)" style="fill: none; stroke: #7a0403; stroke-width: 0.75"/>
    <path d="M 158.440292 42.735325 
L 158.440292 42.692165 
" clip-path="url(#p78906196d1)" style="fill: none; stroke: #7a0403; stroke-width: 0.75"/>
    <path d="M 160.629278 38.679737 
L 160.629278 38.639707 
" clip-path="url(#p78906196d1)" style="fill: none; stroke: #7a0403; stroke-width: 0.75"/>
    <path d="M 162.818263 35.513095 
L 162.818263 35.491374 
" clip-path="url(#p78906196d1)" style="fill: none; stroke: #7a0403; stroke-width: 0.75"/>
    <path d="M 165.007248 38.075875 
L 165.007248 38.067374 
" clip-path="url(#p78906196d1)" style="fill: none; stroke: #7a0403; stroke-width: 0.75"/>
    <path d="M 167.196234 35.158719 
L 167.196234 35.129479 
" clip-path="url(#p78906196d1)" style="fill: none; stroke: #7a0403; stroke-width: 0.75"/>
    <path d="M 169.385219 30.719185 
L 169.385219 30.6028 
" clip-path="url(#p78906196d1)" style="fill: none; stroke: #7a0403; stroke-width: 0.75"/>
    <path d="M 171.574204 31.233775 
L 171.574204 31.147334 
" clip-path="url(#p78906196d1)" style="fill: none; stroke: #7a0403; stroke-width: 0.75"/>
    <path d="M 173.76319 25.226195 
L 173.76319 25.21863 
" clip-path="url(#p78906196d1)" style="fill: none; stroke: #7a0403; stroke-width: 0.75"/>
    <path d="M 175.952175 25.21599 
L 175.952175 25.209388 
" clip-path="url(#p78906196d1)" style="fill: none; stroke: #7a0403; stroke-width: 0.75"/>
    <path d="M 178.14116 25.194533 
L 178.14116 25.192808 
" clip-path="url(#p78906196d1)" style="fill: none; stroke: #7a0403; stroke-width: 0.75"/>
    <path d="M 180.330146 25.201468 
L 180.330146 25.197668 
" clip-path="url(#p78906196d1)" style="fill: none; stroke: #7a0403; stroke-width: 0.75"/>
    <path d="M 182.519131 25.196509 
L 182.519131 25.193986 
" clip-path="url(#p78906196d1)" style="fill: none; stroke: #7a0403; stroke-width: 0.75"/>
    <path d="M 184.708116 25.210679 
L 184.708116 25.204787 
" clip-path="url(#p78906196d1)" style="fill: none; stroke: #7a0403; stroke-width: 0.75"/>
    <path d="M 186.897102 25.181321 
L 186.897102 25.175358 
" clip-path="url(#p78906196d1)" style="fill: none; stroke: #7a0403; stroke-width: 0.75"/>
    <path d="M 189.086087 24.901119 
L 189.086087 24.872469 
" clip-path="url(#p78906196d1)" style="fill: none; stroke: #7a0403; stroke-width: 0.75"/>
    <path d="M 191.275072 25.023959 
L 191.275072 25.004543 
" clip-path="url(#p78906196d1)" style="fill: none; stroke: #7a0403; stroke-width: 0.75"/>
    <path d="M 193.464058 25.194501 
L 193.464058 25.192657 
" clip-path="url(#p78906196d1)" style="fill: none; stroke: #7a0403; stroke-width: 0.75"/>
    <path d="M 195.653043 18.427889 
L 195.653043 18.344924 
" clip-path="url(#p78906196d1)" style="fill: none; stroke: #7a0403; stroke-width: 0.75"/>
    <path d="M 197.842028 16.106607 
L 197.842028 16.09049 
" clip-path="url(#p78906196d1)" style="fill: none; stroke: #7a0403; stroke-width: 0.75"/>
    <path d="M 200.031014 13.112929 
L 200.031014 13.049173 
" clip-path="url(#p78906196d1)" style="fill: none; stroke: #7a0403; stroke-width: 0.75"/>
    <path d="M 202.219999 12.534063 
L 202.219999 12.501489 
" clip-path="url(#p78906196d1)" style="fill: none; stroke: #7a0403; stroke-width: 0.75"/>
    <path d="M 204.408984 12.359595 
L 204.408984 12.358262 
" clip-path="url(#p78906196d1)" style="fill: none; stroke: #7a0403; stroke-width: 0.75"/>
    <path d="M 206.597969 12.358125 
L 206.597969 12.358125 
" clip-path="url(#p78906196d1)" style="fill: none; stroke: #7a0403; stroke-width: 0.75"/>
    <path d="M 208.786955 12.358125 
L 208.786955 12.358125 
" clip-path="url(#p78906196d1)" style="fill: none; stroke: #7a0403; stroke-width: 0.75"/>
    <path d="M 210.97594 12.358125 
L 210.97594 12.358125 
" clip-path="url(#p78906196d1)" style="fill: none; stroke: #7a0403; stroke-width: 0.75"/>
    <path d="M 213.164925 12.358125 
L 213.164925 12.358125 
" clip-path="url(#p78906196d1)" style="fill: none; stroke: #7a0403; stroke-width: 0.75"/>
    <path d="M 215.353911 12.358125 
L 215.353911 12.358125 
" clip-path="url(#p78906196d1)" style="fill: none; stroke: #7a0403; stroke-width: 0.75"/>
    <path d="M 217.542896 12.358125 
L 217.542896 12.358125 
" clip-path="url(#p78906196d1)" style="fill: none; stroke: #7a0403; stroke-width: 0.75"/>
    <path d="M 219.731881 12.358125 
L 219.731881 12.358125 
" clip-path="url(#p78906196d1)" style="fill: none; stroke: #7a0403; stroke-width: 0.75"/>
    <path d="M 221.920867 12.358125 
L 221.920867 12.358125 
" clip-path="url(#p78906196d1)" style="fill: none; stroke: #7a0403; stroke-width: 0.75"/>
   </g>
   <g id="line2d_10">
    <path d="M 24.912188 89.360323 
L 243.81072 89.360323 
" clip-path="url(#p78906196d1)" style="fill: none; stroke: #2ca02c; stroke-opacity: 0.5; stroke-width: 0.75; stroke-linecap: round"/>
   </g>
   <g id="line2d_11">
    <path d="M 24.912188 77.32873 
L 243.81072 77.32873 
" clip-path="url(#p78906196d1)" style="fill: none; stroke: #1f77b4; stroke-opacity: 0.5; stroke-width: 0.75; stroke-linecap: round"/>
   </g>
   <g id="line2d_12">
    <path d="M 27.101173 127.830795 
L 29.290158 127.764039 
L 31.479143 127.637279 
L 33.668129 127.208168 
L 35.857114 125.803434 
L 38.046099 90.249332 
L 40.235085 89.433836 
L 42.42407 89.389178 
L 44.613055 89.366163 
L 46.802041 89.363946 
L 48.991026 89.362045 
L 51.180011 89.360609 
L 53.368997 89.360401 
L 55.557982 89.360323 
L 57.746967 89.337129 
L 59.935953 89.349861 
L 62.124938 89.340688 
L 64.313923 89.276418 
L 66.502909 89.023016 
L 68.691894 88.338873 
L 70.880879 83.602385 
L 73.069865 82.724838 
L 75.25885 81.133379 
L 77.447835 81.06809 
L 79.636821 80.949032 
L 81.825806 77.955603 
L 84.014791 77.773986 
L 86.203777 77.418623 
L 88.392762 77.421543 
L 90.581747 77.361452 
L 92.770733 77.348075 
L 94.959718 77.337623 
L 97.148703 77.331924 
L 99.337689 77.333936 
L 101.526674 77.329517 
L 103.715659 77.328979 
L 105.904645 77.326823 
L 108.09363 76.623674 
L 110.282615 77.103868 
L 112.471601 77.210489 
L 114.660586 74.854784 
L 116.849571 75.623921 
L 119.038556 76.368105 
L 121.227542 75.805865 
L 123.416527 73.720171 
L 127.794498 73.959884 
L 132.172468 73.959884 
L 136.550439 70.110713 
L 140.92841 70.109774 
L 145.30638 70.109774 
L 149.684351 70.109774 
L 154.062322 68.827302 
L 158.440292 70.109774 
L 162.818263 70.109774 
L 167.196234 70.109774 
L 171.574204 70.109774 
L 175.952175 68.826404 
L 180.330146 68.826404 
L 184.708116 70.109774 
L 189.086087 68.826404 
L 193.464058 70.109774 
L 197.842028 68.826404 
L 202.219999 70.109774 
L 206.597969 68.826404 
L 210.97594 68.826404 
L 215.353911 69.884744 
L 219.731881 68.826404 
" clip-path="url(#p78906196d1)" style="fill: none; stroke: #30123b; stroke-width: 0.75; stroke-linecap: round"/>
    <defs>
     <path id="m1be7aebfbb" d="M 0 0.5 
C 0.132602 0.5 0.25979 0.447317 0.353553 0.353553 
C 0.447317 0.25979 0.5 0.132602 0.5 0 
C 0.5 -0.132602 0.447317 -0.25979 0.353553 -0.353553 
C 0.25979 -0.447317 0.132602 -0.5 0 -0.5 
C -0.132602 -0.5 -0.25979 -0.447317 -0.353553 -0.353553 
C -0.447317 -0.25979 -0.5 -0.132602 -0.5 0 
C -0.5 0.132602 -0.447317 0.25979 -0.353553 0.353553 
C -0.25979 0.447317 -0.132602 0.5 0 0.5 
z
" style="stroke: #30123b; stroke-width: 0.35"/>
    </defs>
    <g clip-path="url(#p78906196d1)">
     <use xlink:href="#m1be7aebfbb" x="27.101173" y="127.830795" style="fill: #30123b; stroke: #30123b; stroke-width: 0.35"/>
     <use xlink:href="#m1be7aebfbb" x="29.290158" y="127.764039" style="fill: #30123b; stroke: #30123b; stroke-width: 0.35"/>
     <use xlink:href="#m1be7aebfbb" x="31.479143" y="127.637279" style="fill: #30123b; stroke: #30123b; stroke-width: 0.35"/>
     <use xlink:href="#m1be7aebfbb" x="33.668129" y="127.208168" style="fill: #30123b; stroke: #30123b; stroke-width: 0.35"/>
     <use xlink:href="#m1be7aebfbb" x="35.857114" y="125.803434" style="fill: #30123b; stroke: #30123b; stroke-width: 0.35"/>
     <use xlink:href="#m1be7aebfbb" x="38.046099" y="90.249332" style="fill: #30123b; stroke: #30123b; stroke-width: 0.35"/>
     <use xlink:href="#m1be7aebfbb" x="40.235085" y="89.433836" style="fill: #30123b; stroke: #30123b; stroke-width: 0.35"/>
     <use xlink:href="#m1be7aebfbb" x="42.42407" y="89.389178" style="fill: #30123b; stroke: #30123b; stroke-width: 0.35"/>
     <use xlink:href="#m1be7aebfbb" x="44.613055" y="89.366163" style="fill: #30123b; stroke: #30123b; stroke-width: 0.35"/>
     <use xlink:href="#m1be7aebfbb" x="46.802041" y="89.363946" style="fill: #30123b; stroke: #30123b; stroke-width: 0.35"/>
     <use xlink:href="#m1be7aebfbb" x="48.991026" y="89.362045" style="fill: #30123b; stroke: #30123b; stroke-width: 0.35"/>
     <use xlink:href="#m1be7aebfbb" x="51.180011" y="89.360609" style="fill: #30123b; stroke: #30123b; stroke-width: 0.35"/>
     <use xlink:href="#m1be7aebfbb" x="53.368997" y="89.360401" style="fill: #30123b; stroke: #30123b; stroke-width: 0.35"/>
     <use xlink:href="#m1be7aebfbb" x="55.557982" y="89.360323" style="fill: #30123b; stroke: #30123b; stroke-width: 0.35"/>
     <use xlink:href="#m1be7aebfbb" x="57.746967" y="89.337129" style="fill: #30123b; stroke: #30123b; stroke-width: 0.35"/>
     <use xlink:href="#m1be7aebfbb" x="59.935953" y="89.349861" style="fill: #30123b; stroke: #30123b; stroke-width: 0.35"/>
     <use xlink:href="#m1be7aebfbb" x="62.124938" y="89.340688" style="fill: #30123b; stroke: #30123b; stroke-width: 0.35"/>
     <use xlink:href="#m1be7aebfbb" x="64.313923" y="89.276418" style="fill: #30123b; stroke: #30123b; stroke-width: 0.35"/>
     <use xlink:href="#m1be7aebfbb" x="66.502909" y="89.023016" style="fill: #30123b; stroke: #30123b; stroke-width: 0.35"/>
     <use xlink:href="#m1be7aebfbb" x="68.691894" y="88.338873" style="fill: #30123b; stroke: #30123b; stroke-width: 0.35"/>
     <use xlink:href="#m1be7aebfbb" x="70.880879" y="83.602385" style="fill: #30123b; stroke: #30123b; stroke-width: 0.35"/>
     <use xlink:href="#m1be7aebfbb" x="73.069865" y="82.724838" style="fill: #30123b; stroke: #30123b; stroke-width: 0.35"/>
     <use xlink:href="#m1be7aebfbb" x="75.25885" y="81.133379" style="fill: #30123b; stroke: #30123b; stroke-width: 0.35"/>
     <use xlink:href="#m1be7aebfbb" x="77.447835" y="81.06809" style="fill: #30123b; stroke: #30123b; stroke-width: 0.35"/>
     <use xlink:href="#m1be7aebfbb" x="79.636821" y="80.949032" style="fill: #30123b; stroke: #30123b; stroke-width: 0.35"/>
     <use xlink:href="#m1be7aebfbb" x="81.825806" y="77.955603" style="fill: #30123b; stroke: #30123b; stroke-width: 0.35"/>
     <use xlink:href="#m1be7aebfbb" x="84.014791" y="77.773986" style="fill: #30123b; stroke: #30123b; stroke-width: 0.35"/>
     <use xlink:href="#m1be7aebfbb" x="86.203777" y="77.418623" style="fill: #30123b; stroke: #30123b; stroke-width: 0.35"/>
     <use xlink:href="#m1be7aebfbb" x="88.392762" y="77.421543" style="fill: #30123b; stroke: #30123b; stroke-width: 0.35"/>
     <use xlink:href="#m1be7aebfbb" x="90.581747" y="77.361452" style="fill: #30123b; stroke: #30123b; stroke-width: 0.35"/>
     <use xlink:href="#m1be7aebfbb" x="92.770733" y="77.348075" style="fill: #30123b; stroke: #30123b; stroke-width: 0.35"/>
     <use xlink:href="#m1be7aebfbb" x="94.959718" y="77.337623" style="fill: #30123b; stroke: #30123b; stroke-width: 0.35"/>
     <use xlink:href="#m1be7aebfbb" x="97.148703" y="77.331924" style="fill: #30123b; stroke: #30123b; stroke-width: 0.35"/>
     <use xlink:href="#m1be7aebfbb" x="99.337689" y="77.333936" style="fill: #30123b; stroke: #30123b; stroke-width: 0.35"/>
     <use xlink:href="#m1be7aebfbb" x="101.526674" y="77.329517" style="fill: #30123b; stroke: #30123b; stroke-width: 0.35"/>
     <use xlink:href="#m1be7aebfbb" x="103.715659" y="77.328979" style="fill: #30123b; stroke: #30123b; stroke-width: 0.35"/>
     <use xlink:href="#m1be7aebfbb" x="105.904645" y="77.326823" style="fill: #30123b; stroke: #30123b; stroke-width: 0.35"/>
     <use xlink:href="#m1be7aebfbb" x="108.09363" y="76.623674" style="fill: #30123b; stroke: #30123b; stroke-width: 0.35"/>
     <use xlink:href="#m1be7aebfbb" x="110.282615" y="77.103868" style="fill: #30123b; stroke: #30123b; stroke-width: 0.35"/>
     <use xlink:href="#m1be7aebfbb" x="112.471601" y="77.210489" style="fill: #30123b; stroke: #30123b; stroke-width: 0.35"/>
     <use xlink:href="#m1be7aebfbb" x="114.660586" y="74.854784" style="fill: #30123b; stroke: #30123b; stroke-width: 0.35"/>
     <use xlink:href="#m1be7aebfbb" x="116.849571" y="75.623921" style="fill: #30123b; stroke: #30123b; stroke-width: 0.35"/>
     <use xlink:href="#m1be7aebfbb" x="119.038556" y="76.368105" style="fill: #30123b; stroke: #30123b; stroke-width: 0.35"/>
     <use xlink:href="#m1be7aebfbb" x="121.227542" y="75.805865" style="fill: #30123b; stroke: #30123b; stroke-width: 0.35"/>
     <use xlink:href="#m1be7aebfbb" x="123.416527" y="73.720171" style="fill: #30123b; stroke: #30123b; stroke-width: 0.35"/>
     <use xlink:href="#m1be7aebfbb" x="127.794498" y="73.959884" style="fill: #30123b; stroke: #30123b; stroke-width: 0.35"/>
     <use xlink:href="#m1be7aebfbb" x="132.172468" y="73.959884" style="fill: #30123b; stroke: #30123b; stroke-width: 0.35"/>
     <use xlink:href="#m1be7aebfbb" x="136.550439" y="70.110713" style="fill: #30123b; stroke: #30123b; stroke-width: 0.35"/>
     <use xlink:href="#m1be7aebfbb" x="140.92841" y="70.109774" style="fill: #30123b; stroke: #30123b; stroke-width: 0.35"/>
     <use xlink:href="#m1be7aebfbb" x="145.30638" y="70.109774" style="fill: #30123b; stroke: #30123b; stroke-width: 0.35"/>
     <use xlink:href="#m1be7aebfbb" x="149.684351" y="70.109774" style="fill: #30123b; stroke: #30123b; stroke-width: 0.35"/>
     <use xlink:href="#m1be7aebfbb" x="154.062322" y="68.827302" style="fill: #30123b; stroke: #30123b; stroke-width: 0.35"/>
     <use xlink:href="#m1be7aebfbb" x="158.440292" y="70.109774" style="fill: #30123b; stroke: #30123b; stroke-width: 0.35"/>
     <use xlink:href="#m1be7aebfbb" x="162.818263" y="70.109774" style="fill: #30123b; stroke: #30123b; stroke-width: 0.35"/>
     <use xlink:href="#m1be7aebfbb" x="167.196234" y="70.109774" style="fill: #30123b; stroke: #30123b; stroke-width: 0.35"/>
     <use xlink:href="#m1be7aebfbb" x="171.574204" y="70.109774" style="fill: #30123b; stroke: #30123b; stroke-width: 0.35"/>
     <use xlink:href="#m1be7aebfbb" x="175.952175" y="68.826404" style="fill: #30123b; stroke: #30123b; stroke-width: 0.35"/>
     <use xlink:href="#m1be7aebfbb" x="180.330146" y="68.826404" style="fill: #30123b; stroke: #30123b; stroke-width: 0.35"/>
     <use xlink:href="#m1be7aebfbb" x="184.708116" y="70.109774" style="fill: #30123b; stroke: #30123b; stroke-width: 0.35"/>
     <use xlink:href="#m1be7aebfbb" x="189.086087" y="68.826404" style="fill: #30123b; stroke: #30123b; stroke-width: 0.35"/>
     <use xlink:href="#m1be7aebfbb" x="193.464058" y="70.109774" style="fill: #30123b; stroke: #30123b; stroke-width: 0.35"/>
     <use xlink:href="#m1be7aebfbb" x="197.842028" y="68.826404" style="fill: #30123b; stroke: #30123b; stroke-width: 0.35"/>
     <use xlink:href="#m1be7aebfbb" x="202.219999" y="70.109774" style="fill: #30123b; stroke: #30123b; stroke-width: 0.35"/>
     <use xlink:href="#m1be7aebfbb" x="206.597969" y="68.826404" style="fill: #30123b; stroke: #30123b; stroke-width: 0.35"/>
     <use xlink:href="#m1be7aebfbb" x="210.97594" y="68.826404" style="fill: #30123b; stroke: #30123b; stroke-width: 0.35"/>
     <use xlink:href="#m1be7aebfbb" x="215.353911" y="69.884744" style="fill: #30123b; stroke: #30123b; stroke-width: 0.35"/>
     <use xlink:href="#m1be7aebfbb" x="219.731881" y="68.826404" style="fill: #30123b; stroke: #30123b; stroke-width: 0.35"/>
    </g>
   </g>
   <g id="line2d_13">
    <path d="M 94.959718 124.658143 
L 99.337689 88.179316 
L 103.715659 81.170145 
L 108.09363 77.500975 
L 112.471601 74.212274 
L 116.849571 71.06288 
L 121.227542 69.942946 
L 125.605512 68.84686 
L 129.983483 67.628182 
L 134.361454 66.742171 
L 138.739424 65.544449 
L 143.117395 64.172584 
L 147.495366 60.641641 
L 151.873336 61.42916 
L 156.251307 59.863608 
L 160.629278 56.718055 
L 165.007248 59.452528 
L 169.385219 58.828467 
L 173.76319 58.377972 
L 178.14116 55.335641 
L 182.519131 53.512956 
L 186.897102 53.644674 
L 191.275072 53.66779 
L 195.653043 55.992704 
L 200.031014 53.425964 
L 204.408984 53.425964 
L 208.786955 53.425964 
L 213.164925 50.859224 
L 217.542896 53.425964 
L 221.920867 49.575854 
" clip-path="url(#p78906196d1)" style="fill: none; stroke: #a4fc3c; stroke-width: 0.75; stroke-linecap: round"/>
    <defs>
     <path id="m5b1a96af95" d="M 0 0.5 
C 0.132602 0.5 0.25979 0.447317 0.353553 0.353553 
C 0.447317 0.25979 0.5 0.132602 0.5 0 
C 0.5 -0.132602 0.447317 -0.25979 0.353553 -0.353553 
C 0.25979 -0.447317 0.132602 -0.5 0 -0.5 
C -0.132602 -0.5 -0.25979 -0.447317 -0.353553 -0.353553 
C -0.447317 -0.25979 -0.5 -0.132602 -0.5 0 
C -0.5 0.132602 -0.447317 0.25979 -0.353553 0.353553 
C -0.25979 0.447317 -0.132602 0.5 0 0.5 
z
" style="stroke: #a4fc3c; stroke-width: 0.35"/>
    </defs>
    <g clip-path="url(#p78906196d1)">
     <use xlink:href="#m5b1a96af95" x="94.959718" y="124.658143" style="fill: #a4fc3c; stroke: #a4fc3c; stroke-width: 0.35"/>
     <use xlink:href="#m5b1a96af95" x="99.337689" y="88.179316" style="fill: #a4fc3c; stroke: #a4fc3c; stroke-width: 0.35"/>
     <use xlink:href="#m5b1a96af95" x="103.715659" y="81.170145" style="fill: #a4fc3c; stroke: #a4fc3c; stroke-width: 0.35"/>
     <use xlink:href="#m5b1a96af95" x="108.09363" y="77.500975" style="fill: #a4fc3c; stroke: #a4fc3c; stroke-width: 0.35"/>
     <use xlink:href="#m5b1a96af95" x="112.471601" y="74.212274" style="fill: #a4fc3c; stroke: #a4fc3c; stroke-width: 0.35"/>
     <use xlink:href="#m5b1a96af95" x="116.849571" y="71.06288" style="fill: #a4fc3c; stroke: #a4fc3c; stroke-width: 0.35"/>
     <use xlink:href="#m5b1a96af95" x="121.227542" y="69.942946" style="fill: #a4fc3c; stroke: #a4fc3c; stroke-width: 0.35"/>
     <use xlink:href="#m5b1a96af95" x="125.605512" y="68.84686" style="fill: #a4fc3c; stroke: #a4fc3c; stroke-width: 0.35"/>
     <use xlink:href="#m5b1a96af95" x="129.983483" y="67.628182" style="fill: #a4fc3c; stroke: #a4fc3c; stroke-width: 0.35"/>
     <use xlink:href="#m5b1a96af95" x="134.361454" y="66.742171" style="fill: #a4fc3c; stroke: #a4fc3c; stroke-width: 0.35"/>
     <use xlink:href="#m5b1a96af95" x="138.739424" y="65.544449" style="fill: #a4fc3c; stroke: #a4fc3c; stroke-width: 0.35"/>
     <use xlink:href="#m5b1a96af95" x="143.117395" y="64.172584" style="fill: #a4fc3c; stroke: #a4fc3c; stroke-width: 0.35"/>
     <use xlink:href="#m5b1a96af95" x="147.495366" y="60.641641" style="fill: #a4fc3c; stroke: #a4fc3c; stroke-width: 0.35"/>
     <use xlink:href="#m5b1a96af95" x="151.873336" y="61.42916" style="fill: #a4fc3c; stroke: #a4fc3c; stroke-width: 0.35"/>
     <use xlink:href="#m5b1a96af95" x="156.251307" y="59.863608" style="fill: #a4fc3c; stroke: #a4fc3c; stroke-width: 0.35"/>
     <use xlink:href="#m5b1a96af95" x="160.629278" y="56.718055" style="fill: #a4fc3c; stroke: #a4fc3c; stroke-width: 0.35"/>
     <use xlink:href="#m5b1a96af95" x="165.007248" y="59.452528" style="fill: #a4fc3c; stroke: #a4fc3c; stroke-width: 0.35"/>
     <use xlink:href="#m5b1a96af95" x="169.385219" y="58.828467" style="fill: #a4fc3c; stroke: #a4fc3c; stroke-width: 0.35"/>
     <use xlink:href="#m5b1a96af95" x="173.76319" y="58.377972" style="fill: #a4fc3c; stroke: #a4fc3c; stroke-width: 0.35"/>
     <use xlink:href="#m5b1a96af95" x="178.14116" y="55.335641" style="fill: #a4fc3c; stroke: #a4fc3c; stroke-width: 0.35"/>
     <use xlink:href="#m5b1a96af95" x="182.519131" y="53.512956" style="fill: #a4fc3c; stroke: #a4fc3c; stroke-width: 0.35"/>
     <use xlink:href="#m5b1a96af95" x="186.897102" y="53.644674" style="fill: #a4fc3c; stroke: #a4fc3c; stroke-width: 0.35"/>
     <use xlink:href="#m5b1a96af95" x="191.275072" y="53.66779" style="fill: #a4fc3c; stroke: #a4fc3c; stroke-width: 0.35"/>
     <use xlink:href="#m5b1a96af95" x="195.653043" y="55.992704" style="fill: #a4fc3c; stroke: #a4fc3c; stroke-width: 0.35"/>
     <use xlink:href="#m5b1a96af95" x="200.031014" y="53.425964" style="fill: #a4fc3c; stroke: #a4fc3c; stroke-width: 0.35"/>
     <use xlink:href="#m5b1a96af95" x="204.408984" y="53.425964" style="fill: #a4fc3c; stroke: #a4fc3c; stroke-width: 0.35"/>
     <use xlink:href="#m5b1a96af95" x="208.786955" y="53.425964" style="fill: #a4fc3c; stroke: #a4fc3c; stroke-width: 0.35"/>
     <use xlink:href="#m5b1a96af95" x="213.164925" y="50.859224" style="fill: #a4fc3c; stroke: #a4fc3c; stroke-width: 0.35"/>
     <use xlink:href="#m5b1a96af95" x="217.542896" y="53.425964" style="fill: #a4fc3c; stroke: #a4fc3c; stroke-width: 0.35"/>
     <use xlink:href="#m5b1a96af95" x="221.920867" y="49.575854" style="fill: #a4fc3c; stroke: #a4fc3c; stroke-width: 0.35"/>
    </g>
   </g>
   <g id="line2d_14">
    <path d="M 129.983483 127.425606 
L 132.172468 126.61737 
L 134.361454 123.191829 
L 136.550439 78.301309 
L 138.739424 66.340514 
L 140.92841 60.366818 
L 143.117395 54.939435 
L 145.30638 52.238302 
L 147.495366 51.087791 
L 149.684351 49.206695 
L 151.873336 49.342363 
L 154.062322 43.75524 
L 156.251307 45.761985 
L 158.440292 42.713745 
L 160.629278 38.659722 
L 162.818263 35.502235 
L 165.007248 38.071625 
L 167.196234 35.144099 
L 169.385219 30.660992 
L 171.574204 31.190554 
L 173.76319 25.222412 
L 175.952175 25.212689 
L 178.14116 25.193671 
L 180.330146 25.199568 
L 182.519131 25.195247 
L 184.708116 25.207733 
L 186.897102 25.17834 
L 189.086087 24.886794 
L 191.275072 25.014251 
L 193.464058 25.193579 
L 195.653043 18.386406 
L 197.842028 16.098549 
L 200.031014 13.081051 
L 202.219999 12.517776 
L 204.408984 12.358928 
L 206.597969 12.358125 
L 208.786955 12.358125 
L 210.97594 12.358125 
L 213.164925 12.358125 
L 215.353911 12.358125 
L 217.542896 12.358125 
L 219.731881 12.358125 
L 221.920867 12.358125 
" clip-path="url(#p78906196d1)" style="fill: none; stroke: #7a0403; stroke-width: 0.75; stroke-linecap: round"/>
    <defs>
     <path id="mde34811223" d="M 0 0.5 
C 0.132602 0.5 0.25979 0.447317 0.353553 0.353553 
C 0.447317 0.25979 0.5 0.132602 0.5 0 
C 0.5 -0.132602 0.447317 -0.25979 0.353553 -0.353553 
C 0.25979 -0.447317 0.132602 -0.5 0 -0.5 
C -0.132602 -0.5 -0.25979 -0.447317 -0.353553 -0.353553 
C -0.447317 -0.25979 -0.5 -0.132602 -0.5 0 
C -0.5 0.132602 -0.447317 0.25979 -0.353553 0.353553 
C -0.25979 0.447317 -0.132602 0.5 0 0.5 
z
" style="stroke: #7a0403; stroke-width: 0.35"/>
    </defs>
    <g clip-path="url(#p78906196d1)">
     <use xlink:href="#mde34811223" x="129.983483" y="127.425606" style="fill: #7a0403; stroke: #7a0403; stroke-width: 0.35"/>
     <use xlink:href="#mde34811223" x="132.172468" y="126.61737" style="fill: #7a0403; stroke: #7a0403; stroke-width: 0.35"/>
     <use xlink:href="#mde34811223" x="134.361454" y="123.191829" style="fill: #7a0403; stroke: #7a0403; stroke-width: 0.35"/>
     <use xlink:href="#mde34811223" x="136.550439" y="78.301309" style="fill: #7a0403; stroke: #7a0403; stroke-width: 0.35"/>
     <use xlink:href="#mde34811223" x="138.739424" y="66.340514" style="fill: #7a0403; stroke: #7a0403; stroke-width: 0.35"/>
     <use xlink:href="#mde34811223" x="140.92841" y="60.366818" style="fill: #7a0403; stroke: #7a0403; stroke-width: 0.35"/>
     <use xlink:href="#mde34811223" x="143.117395" y="54.939435" style="fill: #7a0403; stroke: #7a0403; stroke-width: 0.35"/>
     <use xlink:href="#mde34811223" x="145.30638" y="52.238302" style="fill: #7a0403; stroke: #7a0403; stroke-width: 0.35"/>
     <use xlink:href="#mde34811223" x="147.495366" y="51.087791" style="fill: #7a0403; stroke: #7a0403; stroke-width: 0.35"/>
     <use xlink:href="#mde34811223" x="149.684351" y="49.206695" style="fill: #7a0403; stroke: #7a0403; stroke-width: 0.35"/>
     <use xlink:href="#mde34811223" x="151.873336" y="49.342363" style="fill: #7a0403; stroke: #7a0403; stroke-width: 0.35"/>
     <use xlink:href="#mde34811223" x="154.062322" y="43.75524" style="fill: #7a0403; stroke: #7a0403; stroke-width: 0.35"/>
     <use xlink:href="#mde34811223" x="156.251307" y="45.761985" style="fill: #7a0403; stroke: #7a0403; stroke-width: 0.35"/>
     <use xlink:href="#mde34811223" x="158.440292" y="42.713745" style="fill: #7a0403; stroke: #7a0403; stroke-width: 0.35"/>
     <use xlink:href="#mde34811223" x="160.629278" y="38.659722" style="fill: #7a0403; stroke: #7a0403; stroke-width: 0.35"/>
     <use xlink:href="#mde34811223" x="162.818263" y="35.502235" style="fill: #7a0403; stroke: #7a0403; stroke-width: 0.35"/>
     <use xlink:href="#mde34811223" x="165.007248" y="38.071625" style="fill: #7a0403; stroke: #7a0403; stroke-width: 0.35"/>
     <use xlink:href="#mde34811223" x="167.196234" y="35.144099" style="fill: #7a0403; stroke: #7a0403; stroke-width: 0.35"/>
     <use xlink:href="#mde34811223" x="169.385219" y="30.660992" style="fill: #7a0403; stroke: #7a0403; stroke-width: 0.35"/>
     <use xlink:href="#mde34811223" x="171.574204" y="31.190554" style="fill: #7a0403; stroke: #7a0403; stroke-width: 0.35"/>
     <use xlink:href="#mde34811223" x="173.76319" y="25.222412" style="fill: #7a0403; stroke: #7a0403; stroke-width: 0.35"/>
     <use xlink:href="#mde34811223" x="175.952175" y="25.212689" style="fill: #7a0403; stroke: #7a0403; stroke-width: 0.35"/>
     <use xlink:href="#mde34811223" x="178.14116" y="25.193671" style="fill: #7a0403; stroke: #7a0403; stroke-width: 0.35"/>
     <use xlink:href="#mde34811223" x="180.330146" y="25.199568" style="fill: #7a0403; stroke: #7a0403; stroke-width: 0.35"/>
     <use xlink:href="#mde34811223" x="182.519131" y="25.195247" style="fill: #7a0403; stroke: #7a0403; stroke-width: 0.35"/>
     <use xlink:href="#mde34811223" x="184.708116" y="25.207733" style="fill: #7a0403; stroke: #7a0403; stroke-width: 0.35"/>
     <use xlink:href="#mde34811223" x="186.897102" y="25.17834" style="fill: #7a0403; stroke: #7a0403; stroke-width: 0.35"/>
     <use xlink:href="#mde34811223" x="189.086087" y="24.886794" style="fill: #7a0403; stroke: #7a0403; stroke-width: 0.35"/>
     <use xlink:href="#mde34811223" x="191.275072" y="25.014251" style="fill: #7a0403; stroke: #7a0403; stroke-width: 0.35"/>
     <use xlink:href="#mde34811223" x="193.464058" y="25.193579" style="fill: #7a0403; stroke: #7a0403; stroke-width: 0.35"/>
     <use xlink:href="#mde34811223" x="195.653043" y="18.386406" style="fill: #7a0403; stroke: #7a0403; stroke-width: 0.35"/>
     <use xlink:href="#mde34811223" x="197.842028" y="16.098549" style="fill: #7a0403; stroke: #7a0403; stroke-width: 0.35"/>
     <use xlink:href="#mde34811223" x="200.031014" y="13.081051" style="fill: #7a0403; stroke: #7a0403; stroke-width: 0.35"/>
     <use xlink:href="#mde34811223" x="202.219999" y="12.517776" style="fill: #7a0403; stroke: #7a0403; stroke-width: 0.35"/>
     <use xlink:href="#mde34811223" x="204.408984" y="12.358928" style="fill: #7a0403; stroke: #7a0403; stroke-width: 0.35"/>
     <use xlink:href="#mde34811223" x="206.597969" y="12.358125" style="fill: #7a0403; stroke: #7a0403; stroke-width: 0.35"/>
     <use xlink:href="#mde34811223" x="208.786955" y="12.358125" style="fill: #7a0403; stroke: #7a0403; stroke-width: 0.35"/>
     <use xlink:href="#mde34811223" x="210.97594" y="12.358125" style="fill: #7a0403; stroke: #7a0403; stroke-width: 0.35"/>
     <use xlink:href="#mde34811223" x="213.164925" y="12.358125" style="fill: #7a0403; stroke: #7a0403; stroke-width: 0.35"/>
     <use xlink:href="#mde34811223" x="215.353911" y="12.358125" style="fill: #7a0403; stroke: #7a0403; stroke-width: 0.35"/>
     <use xlink:href="#mde34811223" x="217.542896" y="12.358125" style="fill: #7a0403; stroke: #7a0403; stroke-width: 0.35"/>
     <use xlink:href="#mde34811223" x="219.731881" y="12.358125" style="fill: #7a0403; stroke: #7a0403; stroke-width: 0.35"/>
     <use xlink:href="#mde34811223" x="221.920867" y="12.358125" style="fill: #7a0403; stroke: #7a0403; stroke-width: 0.35"/>
    </g>
   </g>
   <g id="patch_3">
    <path d="M 24.912188 127.861422 
L 24.912188 12.358125 
" style="fill: none; stroke: #000000; stroke-width: 0.35; stroke-linejoin: miter; stroke-linecap: square"/>
   </g>
   <g id="patch_4">
    <path d="M 243.81072 127.861422 
L 243.81072 12.358125 
" style="fill: none; stroke: #000000; stroke-width: 0.35; stroke-linejoin: miter; stroke-linecap: square"/>
   </g>
   <g id="patch_5">
    <path d="M 24.912188 127.861422 
L 243.81072 127.861422 
" style="fill: none; stroke: #000000; stroke-width: 0.35; stroke-linejoin: miter; stroke-linecap: square"/>
   </g>
   <g id="patch_6">
    <path d="M 24.912188 12.358125 
L 243.81072 12.358125 
" style="fill: none; stroke: #000000; stroke-width: 0.35; stroke-linejoin: miter; stroke-linecap: square"/>
   </g>
   <g id="text_12">
    <!-- Filling fraction and compressibility -->
    <g transform="translate(74.00286 6.358125)scale(0.084 -0.084)">
     <defs>
      <path id="HelveticaNeue-Light-46" d="M 461 4570 
L 461 0 
L 896 0 
L 896 2176 
L 3085 2176 
L 3085 2547 
L 896 2547 
L 896 4198 
L 3360 4198 
L 3360 4570 
L 461 4570 
z
" transform="scale(0.015625)"/>
      <path id="HelveticaNeue-Light-64" d="M 3290 0 
L 3290 4570 
L 2886 4570 
L 2886 2675 
L 2874 2675 
Q 2810 2854 2691 2988 
Q 2573 3123 2419 3216 
Q 2266 3309 2090 3353 
Q 1914 3398 1728 3398 
Q 1350 3398 1072 3257 
Q 794 3117 608 2877 
Q 422 2637 332 2320 
Q 243 2003 243 1651 
Q 243 1299 332 982 
Q 422 666 608 426 
Q 794 186 1072 48 
Q 1350 -90 1728 -90 
Q 1907 -90 2089 -38 
Q 2272 13 2432 105 
Q 2592 198 2717 332 
Q 2842 467 2906 627 
L 2918 627 
L 2918 0 
L 3290 0 
z
M 646 1651 
Q 646 1907 707 2160 
Q 768 2413 899 2611 
Q 1030 2810 1235 2934 
Q 1440 3059 1728 3059 
Q 2048 3059 2269 2934 
Q 2490 2810 2627 2611 
Q 2765 2413 2825 2160 
Q 2886 1907 2886 1651 
Q 2886 1395 2825 1142 
Q 2765 890 2627 691 
Q 2490 493 2269 368 
Q 2048 243 1728 243 
Q 1440 243 1235 368 
Q 1030 493 899 691 
Q 768 890 707 1142 
Q 646 1395 646 1651 
z
" transform="scale(0.015625)"/>
      <path id="HelveticaNeue-Light-73" d="M 2362 2336 
L 2765 2336 
Q 2752 2605 2656 2803 
Q 2560 3002 2397 3136 
Q 2234 3270 2019 3334 
Q 1805 3398 1555 3398 
Q 1338 3398 1117 3347 
Q 896 3296 717 3187 
Q 538 3078 426 2899 
Q 314 2720 314 2470 
Q 314 2259 384 2115 
Q 454 1971 579 1872 
Q 704 1773 870 1705 
Q 1037 1638 1235 1587 
L 1754 1472 
Q 1888 1440 2019 1395 
Q 2150 1350 2252 1283 
Q 2355 1216 2416 1117 
Q 2477 1018 2477 870 
Q 2477 698 2390 579 
Q 2304 461 2169 384 
Q 2035 307 1878 275 
Q 1722 243 1574 243 
Q 1171 243 899 451 
Q 627 659 602 1069 
L 198 1069 
Q 250 461 611 185 
Q 973 -90 1555 -90 
Q 1786 -90 2022 -38 
Q 2259 13 2448 131 
Q 2637 250 2758 438 
Q 2880 627 2880 896 
Q 2880 1114 2797 1274 
Q 2714 1434 2582 1542 
Q 2451 1651 2281 1718 
Q 2112 1786 1939 1811 
L 1402 1933 
Q 1299 1958 1177 2000 
Q 1056 2042 953 2106 
Q 851 2170 784 2262 
Q 717 2355 717 2490 
Q 717 2650 787 2758 
Q 858 2867 973 2934 
Q 1088 3002 1225 3030 
Q 1363 3059 1498 3059 
Q 1670 3059 1824 3017 
Q 1978 2976 2096 2886 
Q 2214 2797 2284 2659 
Q 2355 2522 2362 2336 
z
" transform="scale(0.015625)"/>
      <path id="HelveticaNeue-Light-62" d="M 384 4570 
L 384 0 
L 755 0 
L 755 627 
L 768 627 
Q 909 282 1225 96 
Q 1542 -90 1946 -90 
Q 2323 -90 2601 48 
Q 2880 186 3065 426 
Q 3251 666 3340 982 
Q 3430 1299 3430 1651 
Q 3430 2003 3340 2320 
Q 3251 2637 3065 2877 
Q 2880 3117 2601 3257 
Q 2323 3398 1946 3398 
Q 1766 3398 1587 3353 
Q 1408 3309 1254 3216 
Q 1101 3123 982 2988 
Q 864 2854 800 2675 
L 787 2675 
L 787 4570 
L 384 4570 
z
M 3027 1651 
Q 3027 1395 2966 1142 
Q 2906 890 2774 691 
Q 2643 493 2438 368 
Q 2234 243 1946 243 
Q 1626 243 1405 368 
Q 1184 493 1046 691 
Q 909 890 848 1142 
Q 787 1395 787 1651 
Q 787 1907 848 2160 
Q 909 2413 1046 2611 
Q 1184 2810 1405 2934 
Q 1626 3059 1946 3059 
Q 2234 3059 2438 2934 
Q 2643 2810 2774 2611 
Q 2906 2413 2966 2160 
Q 3027 1907 3027 1651 
z
" transform="scale(0.015625)"/>
      <path id="HelveticaNeue-Light-79" d="M 13 3302 
L 1331 13 
L 1190 -358 
Q 1139 -474 1094 -570 
Q 1050 -666 986 -733 
Q 922 -800 835 -838 
Q 749 -877 614 -877 
Q 544 -877 477 -867 
Q 410 -858 339 -845 
L 339 -1184 
Q 390 -1203 457 -1206 
Q 525 -1210 646 -1216 
Q 838 -1216 963 -1181 
Q 1088 -1146 1181 -1066 
Q 1274 -986 1350 -848 
Q 1427 -710 1517 -499 
L 2950 3302 
L 2547 3302 
L 1530 486 
L 442 3302 
L 13 3302 
z
" transform="scale(0.015625)"/>
     </defs>
     <use xlink:href="#HelveticaNeue-Light-46"/>
     <use xlink:href="#HelveticaNeue-Light-69" x="53.699997"/>
     <use xlink:href="#HelveticaNeue-Light-6c" x="72.199982"/>
     <use xlink:href="#HelveticaNeue-Light-6c" x="90.699966"/>
     <use xlink:href="#HelveticaNeue-Light-69" x="109.199951"/>
     <use xlink:href="#HelveticaNeue-Light-6e" x="127.699936"/>
     <use xlink:href="#HelveticaNeue-Light-67" x="181.399933"/>
     <use xlink:href="#HelveticaNeue-Light-20" x="236.999924"/>
     <use xlink:href="#HelveticaNeue-Light-66" x="264.799911"/>
     <use xlink:href="#HelveticaNeue-Light-72" x="290.699905"/>
     <use xlink:href="#HelveticaNeue-Light-61" x="322.19989"/>
     <use xlink:href="#HelveticaNeue-Light-63" x="374.099884"/>
     <use xlink:href="#HelveticaNeue-Light-74" x="425.999878"/>
     <use xlink:href="#HelveticaNeue-Light-69" x="455.599869"/>
     <use xlink:href="#HelveticaNeue-Light-6f" x="474.099854"/>
     <use xlink:href="#HelveticaNeue-Light-6e" x="529.699844"/>
     <use xlink:href="#HelveticaNeue-Light-20" x="583.399841"/>
     <use xlink:href="#HelveticaNeue-Light-61" x="611.199829"/>
     <use xlink:href="#HelveticaNeue-Light-6e" x="663.099823"/>
     <use xlink:href="#HelveticaNeue-Light-64" x="716.79982"/>
     <use xlink:href="#HelveticaNeue-Light-20" x="774.199814"/>
     <use xlink:href="#HelveticaNeue-Light-63" x="801.999802"/>
     <use xlink:href="#HelveticaNeue-Light-6f" x="853.899796"/>
     <use xlink:href="#HelveticaNeue-Light-6d" x="909.499786"/>
     <use xlink:href="#HelveticaNeue-Light-70" x="992.799774"/>
     <use xlink:href="#HelveticaNeue-Light-72" x="1050.199768"/>
     <use xlink:href="#HelveticaNeue-Light-65" x="1081.699753"/>
     <use xlink:href="#HelveticaNeue-Light-73" x="1133.599747"/>
     <use xlink:href="#HelveticaNeue-Light-73" x="1181.699738"/>
     <use xlink:href="#HelveticaNeue-Light-69" x="1229.799728"/>
     <use xlink:href="#HelveticaNeue-Light-62" x="1248.299713"/>
     <use xlink:href="#HelveticaNeue-Light-69" x="1305.699707"/>
     <use xlink:href="#HelveticaNeue-Light-6c" x="1324.199692"/>
     <use xlink:href="#HelveticaNeue-Light-69" x="1342.699677"/>
     <use xlink:href="#HelveticaNeue-Light-74" x="1361.199661"/>
     <use xlink:href="#HelveticaNeue-Light-79" x="1390.799652"/>
    </g>
   </g>
   <g id="legend_1">
    <g id="line2d_15">
     <path d="M 210.905251 107.952985 
L 214.405251 107.952985 
L 217.905251 107.952985 
" style="fill: none; stroke: #1f77b4; stroke-opacity: 0.5; stroke-width: 0.75; stroke-linecap: round"/>
    </g>
    <g id="text_13">
     <!-- 7/16 -->
     <g transform="translate(223.505251 110.402985)scale(0.07 -0.07)">
      <defs>
       <path id="HelveticaNeue-Light-37" d="M 326 4422 
L 326 4051 
L 2803 4051 
Q 2336 3520 2006 3033 
Q 1677 2547 1456 2064 
Q 1235 1581 1116 1075 
Q 998 570 960 0 
L 1395 0 
Q 1434 781 1642 1430 
Q 1850 2080 2128 2589 
Q 2406 3098 2700 3466 
Q 2995 3834 3206 4051 
L 3206 4422 
L 326 4422 
z
" transform="scale(0.015625)"/>
       <path id="HelveticaNeue-Light-2f" d="M -77 -90 
L 262 -90 
L 2214 4666 
L 1888 4666 
L -77 -90 
z
" transform="scale(0.015625)"/>
      </defs>
      <use xlink:href="#HelveticaNeue-Light-37"/>
      <use xlink:href="#HelveticaNeue-Light-2f" x="55.599991"/>
      <use xlink:href="#HelveticaNeue-Light-31" x="88.899979"/>
      <use xlink:href="#HelveticaNeue-Light-36" x="144.499969"/>
     </g>
    </g>
    <g id="line2d_16">
     <path d="M 210.905251 117.781422 
L 214.405251 117.781422 
L 217.905251 117.781422 
" style="fill: none; stroke: #2ca02c; stroke-opacity: 0.5; stroke-width: 0.75; stroke-linecap: round"/>
    </g>
    <g id="text_14">
     <!-- 1/3 -->
     <g transform="translate(223.505251 120.231422)scale(0.07 -0.07)">
      <defs>
       <path id="HelveticaNeue-Light-33" d="M 614 1427 
L 211 1427 
Q 186 1062 291 780 
Q 397 499 605 307 
Q 813 115 1104 12 
Q 1395 -90 1741 -90 
Q 2048 -90 2329 -3 
Q 2611 83 2822 256 
Q 3034 429 3158 681 
Q 3283 934 3283 1267 
Q 3283 1709 3043 2006 
Q 2803 2304 2362 2374 
L 2362 2387 
Q 2726 2477 2921 2745 
Q 3117 3014 3117 3379 
Q 3117 3680 2998 3894 
Q 2880 4109 2685 4246 
Q 2490 4384 2240 4451 
Q 1990 4518 1728 4518 
Q 1402 4518 1139 4406 
Q 877 4294 694 4099 
Q 512 3904 413 3635 
Q 314 3366 314 3046 
L 717 3046 
Q 710 3296 774 3504 
Q 838 3712 969 3862 
Q 1101 4013 1293 4096 
Q 1485 4179 1734 4179 
Q 1939 4179 2115 4131 
Q 2291 4083 2425 3977 
Q 2560 3872 2637 3715 
Q 2714 3558 2714 3334 
Q 2714 3123 2630 2969 
Q 2547 2816 2416 2717 
Q 2285 2618 2121 2570 
Q 1958 2522 1805 2522 
L 1466 2522 
L 1466 2182 
L 1805 2182 
Q 2029 2182 2224 2124 
Q 2419 2067 2566 1948 
Q 2714 1830 2797 1654 
Q 2880 1478 2880 1235 
Q 2880 998 2784 812 
Q 2688 627 2528 499 
Q 2368 371 2163 307 
Q 1958 243 1734 243 
Q 1466 243 1251 329 
Q 1037 416 893 569 
Q 749 723 675 940 
Q 602 1158 614 1427 
z
" transform="scale(0.015625)"/>
      </defs>
      <use xlink:href="#HelveticaNeue-Light-31"/>
      <use xlink:href="#HelveticaNeue-Light-2f" x="55.599991"/>
      <use xlink:href="#HelveticaNeue-Light-33" x="88.899979"/>
     </g>
    </g>
   </g>
   <g id="legend_2">
    <g id="LineCollection_4">
     <path d="M 49.36363 24.706562 
L 49.36363 17.706562 
" style="fill: none; stroke: #30123b; stroke-width: 0.75"/>
    </g>
    <g id="line2d_17">
     <path d="M 45.86363 21.206562 
L 52.86363 21.206562 
" style="fill: none; stroke: #30123b; stroke-width: 0.75; stroke-linecap: round"/>
    </g>
    <g id="line2d_18">
     <g>
      <use xlink:href="#m1be7aebfbb" x="49.36363" y="21.206562" style="fill: #30123b; stroke: #30123b; stroke-width: 0.35"/>
     </g>
    </g>
    <g id="text_15">
     <!-- $\delta$=0.0 -->
     <g transform="translate(58.46363 23.656562)scale(0.07 -0.07)">
      <defs>
       <path id="DejaVuSans-Oblique-3b4" d="M 3472 4053 
Q 3197 4272 2450 4272 
Q 1659 4272 1588 3906 
Q 1531 3619 2328 3469 
Q 2953 3353 3253 3003 
Q 3616 2581 3447 1716 
Q 3284 888 2763 400 
Q 2238 -91 1488 -91 
Q 741 -91 406 400 
Q 72 888 241 1747 
Q 363 2384 891 2900 
Q 1097 3100 1353 3213 
Q 913 3459 1000 3900 
Q 1166 4750 2544 4750 
Q 3234 4750 3566 4531 
L 3472 4053 
z
M 1753 3056 
Q 1525 2966 1306 2738 
Q 969 2384 847 1747 
Q 722 1113 919 756 
Q 1119 397 1584 397 
Q 2044 397 2381 759 
Q 2722 1122 2838 1716 
Q 2956 2338 2731 2638 
Q 2491 2959 2103 2994 
Q 1906 3013 1753 3056 
z
" transform="scale(0.015625)"/>
       <path id="HelveticaNeue-Light-3d" d="M 3533 819 
L 3533 1158 
L 314 1158 
L 314 819 
L 3533 819 
z
M 3533 2080 
L 3533 2419 
L 314 2419 
L 314 2080 
L 3533 2080 
z
" transform="scale(0.015625)"/>
      </defs>
      <use xlink:href="#DejaVuSans-Oblique-3b4" transform="translate(0 0.78125)"/>
      <use xlink:href="#HelveticaNeue-Light-3d" transform="translate(61.181641 0.78125)"/>
      <use xlink:href="#HelveticaNeue-Light-30" transform="translate(121.181625 0.78125)"/>
      <use xlink:href="#HelveticaNeue-Light-2e" transform="translate(176.781616 0.78125)"/>
      <use xlink:href="#HelveticaNeue-Light-30" transform="translate(204.581604 0.78125)"/>
     </g>
    </g>
    <g id="LineCollection_5">
     <path d="M 94.23363 24.706562 
L 94.23363 17.706562 
" style="fill: none; stroke: #a4fc3c; stroke-width: 0.75"/>
    </g>
    <g id="line2d_19">
     <path d="M 90.73363 21.206562 
L 97.73363 21.206562 
" style="fill: none; stroke: #a4fc3c; stroke-width: 0.75; stroke-linecap: round"/>
    </g>
    <g id="line2d_20">
     <g>
      <use xlink:href="#m5b1a96af95" x="94.23363" y="21.206562" style="fill: #a4fc3c; stroke: #a4fc3c; stroke-width: 0.35"/>
     </g>
    </g>
    <g id="text_16">
     <!-- $\delta$=0.15 -->
     <g transform="translate(103.33363 23.656562)scale(0.07 -0.07)">
      <defs>
       <path id="HelveticaNeue-Light-35" d="M 634 1280 
L 230 1280 
Q 237 960 352 704 
Q 467 448 662 272 
Q 858 96 1123 3 
Q 1389 -90 1702 -90 
Q 2022 -90 2307 22 
Q 2592 134 2803 336 
Q 3014 538 3136 816 
Q 3258 1094 3258 1421 
Q 3258 1760 3152 2045 
Q 3046 2330 2851 2534 
Q 2656 2739 2377 2854 
Q 2099 2970 1754 2970 
Q 1485 2970 1229 2861 
Q 973 2752 806 2554 
L 794 2566 
L 1082 4051 
L 3040 4051 
L 3040 4422 
L 800 4422 
L 365 2099 
L 710 2099 
Q 877 2355 1139 2492 
Q 1402 2630 1709 2630 
Q 1958 2630 2169 2540 
Q 2381 2451 2531 2294 
Q 2682 2138 2768 1926 
Q 2854 1715 2854 1466 
Q 2854 1222 2777 1001 
Q 2701 781 2553 611 
Q 2406 442 2201 342 
Q 1997 243 1734 243 
Q 1504 243 1305 316 
Q 1107 390 960 528 
Q 813 666 726 858 
Q 640 1050 634 1280 
z
" transform="scale(0.015625)"/>
      </defs>
      <use xlink:href="#DejaVuSans-Oblique-3b4" transform="translate(0 0.78125)"/>
      <use xlink:href="#HelveticaNeue-Light-3d" transform="translate(61.181641 0.78125)"/>
      <use xlink:href="#HelveticaNeue-Light-30" transform="translate(121.181625 0.78125)"/>
      <use xlink:href="#HelveticaNeue-Light-2e" transform="translate(176.781616 0.78125)"/>
      <use xlink:href="#HelveticaNeue-Light-31" transform="translate(204.581604 0.78125)"/>
      <use xlink:href="#HelveticaNeue-Light-35" transform="translate(260.181595 0.78125)"/>
     </g>
    </g>
    <g id="LineCollection_6">
     <path d="M 142.95363 24.706562 
L 142.95363 17.706562 
" style="fill: none; stroke: #7a0403; stroke-width: 0.75"/>
    </g>
    <g id="line2d_21">
     <path d="M 139.45363 21.206562 
L 146.45363 21.206562 
" style="fill: none; stroke: #7a0403; stroke-width: 0.75; stroke-linecap: round"/>
    </g>
    <g id="line2d_22">
     <g>
      <use xlink:href="#mde34811223" x="142.95363" y="21.206562" style="fill: #7a0403; stroke: #7a0403; stroke-width: 0.35"/>
     </g>
    </g>
    <g id="text_17">
     <!-- $\delta$=0.3 -->
     <g transform="translate(152.05363 23.656562)scale(0.07 -0.07)">
      <use xlink:href="#DejaVuSans-Oblique-3b4" transform="translate(0 0.78125)"/>
      <use xlink:href="#HelveticaNeue-Light-3d" transform="translate(61.181641 0.78125)"/>
      <use xlink:href="#HelveticaNeue-Light-30" transform="translate(121.181625 0.78125)"/>
      <use xlink:href="#HelveticaNeue-Light-2e" transform="translate(176.781616 0.78125)"/>
      <use xlink:href="#HelveticaNeue-Light-33" transform="translate(204.581604 0.78125)"/>
     </g>
    </g>
   </g>
   <g id="legend_3">
    <g id="LineCollection_7">
     <path d="M 49.36363 24.706562 
L 49.36363 17.706562 
" style="fill: none; stroke: #30123b; stroke-width: 0.75"/>
    </g>
    <g id="line2d_23">
     <path d="M 45.86363 21.206562 
L 52.86363 21.206562 
" style="fill: none; stroke: #30123b; stroke-width: 0.75; stroke-linecap: round"/>
    </g>
    <g id="line2d_24">
     <g>
      <use xlink:href="#m1be7aebfbb" x="49.36363" y="21.206562" style="fill: #30123b; stroke: #30123b; stroke-width: 0.35"/>
     </g>
    </g>
    <g id="text_18">
     <!-- $\delta$=0.0 -->
     <g transform="translate(58.46363 23.656562)scale(0.07 -0.07)">
      <use xlink:href="#DejaVuSans-Oblique-3b4" transform="translate(0 0.78125)"/>
      <use xlink:href="#HelveticaNeue-Light-3d" transform="translate(61.181641 0.78125)"/>
      <use xlink:href="#HelveticaNeue-Light-30" transform="translate(121.181625 0.78125)"/>
      <use xlink:href="#HelveticaNeue-Light-2e" transform="translate(176.781616 0.78125)"/>
      <use xlink:href="#HelveticaNeue-Light-30" transform="translate(204.581604 0.78125)"/>
     </g>
    </g>
    <g id="LineCollection_8">
     <path d="M 94.23363 24.706562 
L 94.23363 17.706562 
" style="fill: none; stroke: #a4fc3c; stroke-width: 0.75"/>
    </g>
    <g id="line2d_25">
     <path d="M 90.73363 21.206562 
L 97.73363 21.206562 
" style="fill: none; stroke: #a4fc3c; stroke-width: 0.75; stroke-linecap: round"/>
    </g>
    <g id="line2d_26">
     <g>
      <use xlink:href="#m5b1a96af95" x="94.23363" y="21.206562" style="fill: #a4fc3c; stroke: #a4fc3c; stroke-width: 0.35"/>
     </g>
    </g>
    <g id="text_19">
     <!-- $\delta$=0.15 -->
     <g transform="translate(103.33363 23.656562)scale(0.07 -0.07)">
      <use xlink:href="#DejaVuSans-Oblique-3b4" transform="translate(0 0.78125)"/>
      <use xlink:href="#HelveticaNeue-Light-3d" transform="translate(61.181641 0.78125)"/>
      <use xlink:href="#HelveticaNeue-Light-30" transform="translate(121.181625 0.78125)"/>
      <use xlink:href="#HelveticaNeue-Light-2e" transform="translate(176.781616 0.78125)"/>
      <use xlink:href="#HelveticaNeue-Light-31" transform="translate(204.581604 0.78125)"/>
      <use xlink:href="#HelveticaNeue-Light-35" transform="translate(260.181595 0.78125)"/>
     </g>
    </g>
    <g id="LineCollection_9">
     <path d="M 142.95363 24.706562 
L 142.95363 17.706562 
" style="fill: none; stroke: #7a0403; stroke-width: 0.75"/>
    </g>
    <g id="line2d_27">
     <path d="M 139.45363 21.206562 
L 146.45363 21.206562 
" style="fill: none; stroke: #7a0403; stroke-width: 0.75; stroke-linecap: round"/>
    </g>
    <g id="line2d_28">
     <g>
      <use xlink:href="#mde34811223" x="142.95363" y="21.206562" style="fill: #7a0403; stroke: #7a0403; stroke-width: 0.35"/>
     </g>
    </g>
    <g id="text_20">
     <!-- $\delta$=0.3 -->
     <g transform="translate(152.05363 23.656562)scale(0.07 -0.07)">
      <use xlink:href="#DejaVuSans-Oblique-3b4" transform="translate(0 0.78125)"/>
      <use xlink:href="#HelveticaNeue-Light-3d" transform="translate(61.181641 0.78125)"/>
      <use xlink:href="#HelveticaNeue-Light-30" transform="translate(121.181625 0.78125)"/>
      <use xlink:href="#HelveticaNeue-Light-2e" transform="translate(176.781616 0.78125)"/>
      <use xlink:href="#HelveticaNeue-Light-33" transform="translate(204.581604 0.78125)"/>
     </g>
    </g>
   </g>
  </g>
 </g>
 <defs>
  <clipPath id="p78906196d1">
   <rect x="24.912188" y="12.358125" width="218.898532" height="115.503298"/>
  </clipPath>
 </defs>
</svg>
