<?xml version="1.0" encoding="utf-8" standalone="no"?>
<!DOCTYPE svg PUBLIC "-//W3C//DTD SVG 1.1//EN"
  "http://www.w3.org/Graphics/SVG/1.1/DTD/svg11.dtd">
<svg xmlns:xlink="http://www.w3.org/1999/xlink" width="255.70233pt" height="156.988521pt" viewBox="0 0 255.70233 156.988521" xmlns="http://www.w3.org/2000/svg" version="1.1">
 <metadata>
  <rdf:RDF xmlns:dc="http://purl.org/dc/elements/1.1/" xmlns:cc="http://creativecommons.org/ns#" xmlns:rdf="http://www.w3.org/1999/02/22-rdf-syntax-ns#">
   <cc:Work>
    <dc:type rdf:resource="http://purl.org/dc/dcmitype/StillImage"/>
    <dc:date>2022-11-01T17:58:52.753238</dc:date>
    <dc:format>image/svg+xml</dc:format>
    <dc:creator>
     <cc:Agent>
      <dc:title>Matplotlib v3.5.2, https://matplotlib.org/</dc:title>
     </cc:Agent>
    </dc:creator>
   </cc:Work>
  </rdf:RDF>
 </metadata>
 <defs>
  <style type="text/css">*{stroke-linejoin: round; stroke-linecap: butt}</style>
 </defs>
 <g id="figure_1">
  <g id="patch_1">
   <path d="M 0 156.988521 
L 255.70233 156.988521 
L 255.70233 0 
L 0 0 
L 0 156.988521 
z
" style="fill: none"/>
  </g>
  <g id="axes_1">
   <g id="patch_2">
    <path d="M 30.83625 134.486021 
L 255.34233 134.486021 
L 255.34233 0.36 
L 30.83625 0.36 
L 30.83625 134.486021 
z
" style="fill: none"/>
   </g>
   <g id="matplotlib.axis_1">
    <g id="xtick_1">
     <g id="line2d_1">
      <defs>
       <path id="m9e3177a3a1" d="M 0 0 
L 0 2 
" style="stroke: #000000; stroke-width: 0.35"/>
      </defs>
      <g>
       <use xlink:href="#m9e3177a3a1" x="41.041072" y="134.486021" style="stroke: #000000; stroke-width: 0.35"/>
      </g>
     </g>
     <g id="text_1">
      <!-- 0 -->
      <g transform="translate(38.817322 145.198521)scale(0.08 -0.08)">
       <defs>
        <path id="HelveticaNeue-Light-30" d="M 1779 4518 
Q 1293 4518 985 4304 
Q 678 4090 508 3757 
Q 339 3424 278 3014 
Q 218 2605 218 2208 
Q 218 1818 278 1408 
Q 339 998 508 665 
Q 678 333 985 121 
Q 1293 -90 1779 -90 
Q 2272 -90 2576 121 
Q 2880 333 3049 665 
Q 3219 998 3280 1408 
Q 3341 1818 3341 2214 
Q 3341 2605 3280 3014 
Q 3219 3424 3049 3757 
Q 2880 4090 2576 4304 
Q 2272 4518 1779 4518 
z
M 1779 4179 
Q 2163 4179 2393 3980 
Q 2624 3782 2742 3488 
Q 2861 3194 2899 2848 
Q 2938 2502 2938 2214 
Q 2938 1920 2899 1577 
Q 2861 1235 2742 937 
Q 2624 640 2393 441 
Q 2163 243 1779 243 
Q 1395 243 1164 441 
Q 934 640 816 937 
Q 698 1235 659 1577 
Q 621 1920 621 2214 
Q 621 2502 659 2848 
Q 698 3194 816 3488 
Q 934 3782 1164 3980 
Q 1395 4179 1779 4179 
z
" transform="scale(0.015625)"/>
       </defs>
       <use xlink:href="#HelveticaNeue-Light-30"/>
      </g>
     </g>
    </g>
    <g id="xtick_2">
     <g id="line2d_2">
      <g>
       <use xlink:href="#m9e3177a3a1" x="82.268552" y="134.486021" style="stroke: #000000; stroke-width: 0.35"/>
      </g>
     </g>
     <g id="text_2">
      <!-- 2 -->
      <g transform="translate(80.044802 145.198521)scale(0.08 -0.08)">
       <defs>
        <path id="HelveticaNeue-Light-32" d="M 3181 0 
L 3181 371 
L 691 371 
Q 730 595 883 784 
Q 1037 973 1238 1133 
Q 1440 1293 1657 1424 
Q 1875 1555 2035 1664 
Q 2259 1805 2460 1968 
Q 2662 2131 2819 2323 
Q 2976 2515 3069 2745 
Q 3162 2976 3162 3258 
Q 3162 3571 3056 3808 
Q 2950 4045 2761 4201 
Q 2573 4358 2320 4438 
Q 2067 4518 1773 4518 
Q 1408 4518 1136 4400 
Q 864 4282 685 4070 
Q 506 3859 419 3568 
Q 333 3277 339 2931 
L 742 2931 
Q 736 3181 790 3405 
Q 845 3629 966 3801 
Q 1088 3974 1283 4076 
Q 1478 4179 1754 4179 
Q 1958 4179 2140 4118 
Q 2323 4058 2460 3939 
Q 2598 3821 2678 3651 
Q 2758 3482 2758 3264 
Q 2758 2995 2665 2800 
Q 2573 2605 2387 2419 
Q 2202 2234 1968 2070 
Q 1734 1907 1497 1750 
Q 1261 1594 1037 1424 
Q 813 1254 633 1049 
Q 454 845 345 589 
Q 237 333 230 0 
L 3181 0 
z
" transform="scale(0.015625)"/>
       </defs>
       <use xlink:href="#HelveticaNeue-Light-32"/>
      </g>
     </g>
    </g>
    <g id="xtick_3">
     <g id="line2d_3">
      <g>
       <use xlink:href="#m9e3177a3a1" x="123.496033" y="134.486021" style="stroke: #000000; stroke-width: 0.35"/>
      </g>
     </g>
     <g id="text_3">
      <!-- 4 -->
      <g transform="translate(121.272283 145.198521)scale(0.08 -0.08)">
       <defs>
        <path id="HelveticaNeue-Light-34" d="M 2259 1453 
L 557 1453 
L 2246 3891 
L 2259 3891 
L 2259 1453 
z
M 192 1504 
L 192 1114 
L 2259 1114 
L 2259 0 
L 2630 0 
L 2630 1114 
L 3302 1114 
L 3302 1453 
L 2630 1453 
L 2630 4480 
L 2266 4480 
L 192 1504 
z
" transform="scale(0.015625)"/>
       </defs>
       <use xlink:href="#HelveticaNeue-Light-34"/>
      </g>
     </g>
    </g>
    <g id="xtick_4">
     <g id="line2d_4">
      <g>
       <use xlink:href="#m9e3177a3a1" x="164.723513" y="134.486021" style="stroke: #000000; stroke-width: 0.35"/>
      </g>
     </g>
     <g id="text_4">
      <!-- 6 -->
      <g transform="translate(162.499763 145.198521)scale(0.08 -0.08)">
       <defs>
        <path id="HelveticaNeue-Light-36" d="M 2829 3347 
L 3232 3347 
Q 3162 3942 2810 4230 
Q 2458 4518 1856 4518 
Q 1491 4518 1228 4390 
Q 966 4262 790 4057 
Q 614 3853 508 3600 
Q 403 3347 345 3100 
Q 288 2854 272 2636 
Q 256 2419 256 2285 
Q 256 1626 349 1174 
Q 442 723 634 441 
Q 826 160 1120 35 
Q 1414 -90 1824 -90 
Q 2157 -90 2435 22 
Q 2714 134 2915 336 
Q 3117 538 3229 816 
Q 3341 1094 3341 1421 
Q 3341 1747 3235 2022 
Q 3130 2298 2938 2496 
Q 2746 2694 2474 2806 
Q 2202 2918 1862 2918 
Q 1478 2918 1155 2713 
Q 832 2509 672 2176 
L 659 2176 
Q 659 2483 704 2832 
Q 749 3181 883 3481 
Q 1018 3782 1261 3980 
Q 1504 4179 1894 4179 
Q 2285 4179 2531 3948 
Q 2778 3718 2829 3347 
z
M 1856 2579 
Q 2112 2579 2313 2486 
Q 2515 2394 2652 2234 
Q 2790 2074 2864 1856 
Q 2938 1638 2938 1395 
Q 2938 1165 2861 953 
Q 2784 742 2640 585 
Q 2496 429 2301 336 
Q 2106 243 1862 243 
Q 1568 243 1357 332 
Q 1146 422 1008 579 
Q 870 736 806 947 
Q 742 1158 742 1395 
Q 742 1645 816 1859 
Q 890 2074 1034 2234 
Q 1178 2394 1386 2486 
Q 1594 2579 1856 2579 
z
" transform="scale(0.015625)"/>
       </defs>
       <use xlink:href="#HelveticaNeue-Light-36"/>
      </g>
     </g>
    </g>
    <g id="xtick_5">
     <g id="line2d_5">
      <g>
       <use xlink:href="#m9e3177a3a1" x="205.950994" y="134.486021" style="stroke: #000000; stroke-width: 0.35"/>
      </g>
     </g>
     <g id="text_5">
      <!-- 8 -->
      <g transform="translate(203.727244 145.198521)scale(0.08 -0.08)">
       <defs>
        <path id="HelveticaNeue-Light-38" d="M 1779 2566 
Q 1600 2560 1427 2605 
Q 1254 2650 1120 2752 
Q 986 2854 902 3014 
Q 819 3174 819 3398 
Q 819 3590 899 3737 
Q 979 3885 1113 3981 
Q 1248 4077 1421 4128 
Q 1594 4179 1779 4179 
Q 1984 4179 2157 4128 
Q 2330 4077 2458 3981 
Q 2586 3885 2659 3737 
Q 2733 3590 2733 3398 
Q 2733 3181 2653 3021 
Q 2573 2861 2441 2758 
Q 2310 2656 2137 2608 
Q 1965 2560 1779 2566 
z
M 3136 3398 
Q 3136 3686 3017 3897 
Q 2899 4109 2704 4246 
Q 2509 4384 2265 4451 
Q 2022 4518 1773 4518 
Q 1523 4518 1280 4451 
Q 1037 4384 845 4246 
Q 653 4109 534 3897 
Q 416 3686 416 3398 
Q 416 3027 605 2774 
Q 794 2522 1146 2413 
L 1146 2400 
Q 723 2323 486 2009 
Q 250 1696 237 1254 
Q 237 915 358 662 
Q 480 410 691 243 
Q 902 77 1184 -6 
Q 1466 -90 1779 -90 
Q 2099 -90 2377 -6 
Q 2656 77 2867 243 
Q 3078 410 3200 662 
Q 3322 915 3322 1254 
Q 3322 1715 3085 2012 
Q 2848 2310 2406 2400 
L 2406 2413 
Q 2752 2515 2944 2774 
Q 3136 3034 3136 3398 
z
M 1779 243 
Q 1542 243 1334 307 
Q 1126 371 972 496 
Q 819 621 729 813 
Q 640 1005 640 1254 
Q 640 1498 733 1683 
Q 826 1869 979 1993 
Q 1133 2118 1341 2176 
Q 1549 2234 1779 2227 
Q 2003 2234 2211 2173 
Q 2419 2112 2576 1987 
Q 2733 1862 2825 1680 
Q 2918 1498 2918 1254 
Q 2918 998 2828 806 
Q 2739 614 2585 489 
Q 2432 365 2224 304 
Q 2016 243 1779 243 
z
" transform="scale(0.015625)"/>
       </defs>
       <use xlink:href="#HelveticaNeue-Light-38"/>
      </g>
     </g>
    </g>
    <g id="xtick_6">
     <g id="line2d_6">
      <g>
       <use xlink:href="#m9e3177a3a1" x="247.178475" y="134.486021" style="stroke: #000000; stroke-width: 0.35"/>
      </g>
     </g>
     <g id="text_6">
      <!-- 10 -->
      <g transform="translate(242.730975 145.198521)scale(0.08 -0.08)">
       <defs>
        <path id="HelveticaNeue-Light-31" d="M 621 3616 
L 621 3328 
L 1805 3328 
L 1805 0 
L 2208 0 
L 2208 4480 
L 1882 4480 
Q 1837 4173 1731 4003 
Q 1626 3834 1469 3750 
Q 1312 3667 1097 3644 
Q 883 3622 621 3616 
z
" transform="scale(0.015625)"/>
       </defs>
       <use xlink:href="#HelveticaNeue-Light-31"/>
       <use xlink:href="#HelveticaNeue-Light-30" x="55.599991"/>
      </g>
     </g>
    </g>
    <g id="text_7">
     <!-- Distance (${\rm \AA}$) -->
     <g transform="translate(125.09929 155.298521)scale(0.07 -0.07)">
      <defs>
       <path id="HelveticaNeue-Light-44" d="M 461 4570 
L 461 0 
L 2042 0 
Q 3085 26 3613 586 
Q 4141 1146 4141 2285 
Q 4141 3424 3613 3984 
Q 3085 4544 2042 4570 
L 461 4570 
z
M 896 371 
L 896 4198 
L 1824 4198 
Q 2317 4198 2672 4092 
Q 3027 3987 3257 3756 
Q 3488 3526 3597 3161 
Q 3706 2797 3706 2285 
Q 3706 1773 3597 1408 
Q 3488 1043 3257 812 
Q 3027 582 2672 476 
Q 2317 371 1824 371 
L 896 371 
z
" transform="scale(0.015625)"/>
       <path id="HelveticaNeue-Light-69" d="M 390 4570 
L 390 3923 
L 794 3923 
L 794 4570 
L 390 4570 
z
M 390 3302 
L 390 0 
L 794 0 
L 794 3302 
L 390 3302 
z
" transform="scale(0.015625)"/>
       <path id="HelveticaNeue-Light-73" d="M 2362 2336 
L 2765 2336 
Q 2752 2605 2656 2803 
Q 2560 3002 2397 3136 
Q 2234 3270 2019 3334 
Q 1805 3398 1555 3398 
Q 1338 3398 1117 3347 
Q 896 3296 717 3187 
Q 538 3078 426 2899 
Q 314 2720 314 2470 
Q 314 2259 384 2115 
Q 454 1971 579 1872 
Q 704 1773 870 1705 
Q 1037 1638 1235 1587 
L 1754 1472 
Q 1888 1440 2019 1395 
Q 2150 1350 2252 1283 
Q 2355 1216 2416 1117 
Q 2477 1018 2477 870 
Q 2477 698 2390 579 
Q 2304 461 2169 384 
Q 2035 307 1878 275 
Q 1722 243 1574 243 
Q 1171 243 899 451 
Q 627 659 602 1069 
L 198 1069 
Q 250 461 611 185 
Q 973 -90 1555 -90 
Q 1786 -90 2022 -38 
Q 2259 13 2448 131 
Q 2637 250 2758 438 
Q 2880 627 2880 896 
Q 2880 1114 2797 1274 
Q 2714 1434 2582 1542 
Q 2451 1651 2281 1718 
Q 2112 1786 1939 1811 
L 1402 1933 
Q 1299 1958 1177 2000 
Q 1056 2042 953 2106 
Q 851 2170 784 2262 
Q 717 2355 717 2490 
Q 717 2650 787 2758 
Q 858 2867 973 2934 
Q 1088 3002 1225 3030 
Q 1363 3059 1498 3059 
Q 1670 3059 1824 3017 
Q 1978 2976 2096 2886 
Q 2214 2797 2284 2659 
Q 2355 2522 2362 2336 
z
" transform="scale(0.015625)"/>
       <path id="HelveticaNeue-Light-74" d="M 1024 3302 
L 1024 4294 
L 621 4294 
L 621 3302 
L 45 3302 
L 45 2963 
L 621 2963 
L 621 704 
Q 614 282 774 125 
Q 934 -32 1338 -32 
Q 1427 -32 1516 -25 
Q 1606 -19 1696 -19 
L 1696 320 
Q 1523 301 1350 301 
Q 1133 314 1078 426 
Q 1024 538 1024 736 
L 1024 2963 
L 1696 2963 
L 1696 3302 
L 1024 3302 
z
" transform="scale(0.015625)"/>
       <path id="HelveticaNeue-Light-61" d="M 346 2291 
L 749 2291 
Q 762 2694 1005 2876 
Q 1248 3059 1632 3059 
Q 1811 3059 1968 3030 
Q 2125 3002 2243 2925 
Q 2362 2848 2429 2717 
Q 2496 2586 2496 2381 
Q 2496 2246 2461 2163 
Q 2426 2080 2362 2032 
Q 2298 1984 2202 1965 
Q 2106 1946 1978 1933 
Q 1651 1894 1334 1852 
Q 1018 1811 765 1708 
Q 512 1606 358 1411 
Q 205 1216 205 870 
Q 205 621 291 438 
Q 378 256 528 137 
Q 678 19 880 -35 
Q 1082 -90 1312 -90 
Q 1555 -90 1731 -45 
Q 1907 0 2044 83 
Q 2182 166 2294 291 
Q 2406 416 2515 576 
L 2528 576 
Q 2528 448 2544 342 
Q 2560 237 2611 160 
Q 2662 83 2755 41 
Q 2848 0 3002 0 
Q 3085 0 3139 6 
Q 3194 13 3264 26 
L 3264 365 
Q 3206 339 3136 339 
Q 2899 339 2899 582 
L 2899 2336 
Q 2899 2669 2790 2877 
Q 2682 3085 2509 3200 
Q 2336 3315 2118 3356 
Q 1901 3398 1683 3398 
Q 1395 3398 1158 3334 
Q 922 3270 746 3136 
Q 570 3002 467 2790 
Q 365 2579 346 2291 
z
M 2496 1805 
L 2496 1280 
Q 2496 1037 2403 845 
Q 2310 653 2153 518 
Q 1997 384 1785 313 
Q 1574 243 1344 243 
Q 1203 243 1068 288 
Q 934 333 832 419 
Q 730 506 669 624 
Q 608 742 608 896 
Q 608 1139 752 1270 
Q 896 1402 1120 1472 
Q 1344 1542 1616 1577 
Q 1888 1613 2144 1658 
Q 2227 1670 2336 1702 
Q 2445 1734 2483 1805 
L 2496 1805 
z
" transform="scale(0.015625)"/>
       <path id="HelveticaNeue-Light-6e" d="M 378 3302 
L 378 0 
L 781 0 
L 781 1926 
Q 787 2170 860 2378 
Q 934 2586 1065 2736 
Q 1197 2886 1385 2972 
Q 1574 3059 1818 3059 
Q 2061 3059 2224 2982 
Q 2387 2906 2483 2771 
Q 2579 2637 2617 2454 
Q 2656 2272 2656 2061 
L 2656 0 
L 3059 0 
L 3059 2125 
Q 3059 2419 3001 2656 
Q 2944 2893 2803 3056 
Q 2662 3219 2428 3308 
Q 2195 3398 1850 3398 
Q 1498 3398 1203 3216 
Q 909 3034 794 2733 
L 781 2733 
L 781 3302 
L 378 3302 
z
" transform="scale(0.015625)"/>
       <path id="HelveticaNeue-Light-63" d="M 2714 2266 
L 3117 2266 
Q 3046 2835 2678 3116 
Q 2310 3398 1779 3398 
Q 1402 3398 1110 3257 
Q 819 3117 620 2880 
Q 422 2643 320 2326 
Q 218 2010 218 1651 
Q 218 1293 320 976 
Q 422 659 620 422 
Q 819 186 1110 48 
Q 1402 -90 1779 -90 
Q 2342 -90 2700 246 
Q 3059 582 3142 1184 
L 2739 1184 
Q 2720 979 2637 806 
Q 2554 634 2426 509 
Q 2298 384 2131 313 
Q 1965 243 1779 243 
Q 1491 243 1273 364 
Q 1056 486 912 684 
Q 768 883 694 1136 
Q 621 1389 621 1651 
Q 621 1914 694 2166 
Q 768 2419 912 2617 
Q 1056 2816 1273 2937 
Q 1491 3059 1779 3059 
Q 2182 3059 2406 2848 
Q 2630 2637 2714 2266 
z
" transform="scale(0.015625)"/>
       <path id="HelveticaNeue-Light-65" d="M 2758 1882 
L 621 1882 
Q 646 2106 726 2320 
Q 806 2534 940 2697 
Q 1075 2861 1267 2960 
Q 1459 3059 1709 3059 
Q 1952 3059 2144 2960 
Q 2336 2861 2470 2697 
Q 2605 2534 2678 2323 
Q 2752 2112 2758 1882 
z
M 621 1542 
L 3162 1542 
Q 3174 1888 3097 2224 
Q 3021 2560 2845 2819 
Q 2669 3078 2387 3238 
Q 2106 3398 1709 3398 
Q 1318 3398 1033 3248 
Q 749 3098 569 2851 
Q 390 2605 304 2291 
Q 218 1978 218 1651 
Q 218 1299 304 982 
Q 390 666 569 426 
Q 749 186 1033 48 
Q 1318 -90 1709 -90 
Q 2336 -90 2678 217 
Q 3021 525 3149 1088 
L 2746 1088 
Q 2650 704 2400 473 
Q 2150 243 1709 243 
Q 1421 243 1216 364 
Q 1011 486 876 672 
Q 742 858 681 1091 
Q 621 1325 621 1542 
z
" transform="scale(0.015625)"/>
       <path id="HelveticaNeue-Light-20" transform="scale(0.015625)"/>
       <path id="HelveticaNeue-Light-28" d="M 1229 -1216 
L 1549 -1216 
Q 1363 -922 1212 -582 
Q 1062 -243 953 118 
Q 845 480 787 845 
Q 730 1210 730 1555 
Q 730 2413 925 3193 
Q 1120 3974 1549 4666 
L 1229 4666 
Q 806 4006 566 3267 
Q 326 2528 326 1702 
Q 326 1280 387 905 
Q 448 531 563 179 
Q 678 -173 848 -518 
Q 1018 -864 1229 -1216 
z
" transform="scale(0.015625)"/>
       <path id="HelveticaNeue-Light-c5" d="M -38 0 
L 1798 4378 
L 2285 4378 
L 4077 0 
L 3610 0 
L 3072 1357 
L 966 1357 
L 422 0 
L -38 0 
z
M 1114 1728 
L 2925 1728 
L 2022 4000 
L 1114 1728 
z
M 1581 5299 
Q 1581 5484 1705 5609 
Q 1830 5734 2016 5734 
Q 2202 5734 2326 5609 
Q 2451 5484 2451 5299 
Q 2451 5113 2326 4988 
Q 2202 4864 2016 4864 
Q 1830 4864 1705 4988 
Q 1581 5113 1581 5299 
z
M 1338 5299 
Q 1338 5158 1389 5033 
Q 1440 4908 1533 4815 
Q 1626 4723 1750 4668 
Q 1875 4614 2016 4614 
Q 2157 4614 2281 4668 
Q 2406 4723 2499 4815 
Q 2592 4908 2646 5033 
Q 2701 5158 2701 5299 
Q 2701 5440 2646 5564 
Q 2592 5689 2499 5782 
Q 2406 5875 2281 5929 
Q 2157 5984 2016 5984 
Q 1875 5984 1750 5929 
Q 1626 5875 1533 5782 
Q 1440 5689 1389 5564 
Q 1338 5440 1338 5299 
z
" transform="scale(0.015625)"/>
       <path id="HelveticaNeue-Light-29" d="M 314 4666 
L 0 4666 
Q 173 4358 323 4019 
Q 474 3680 582 3325 
Q 691 2970 752 2605 
Q 813 2240 813 1888 
Q 813 1030 617 252 
Q 422 -525 0 -1216 
L 314 -1216 
Q 736 -557 976 179 
Q 1216 915 1216 1741 
Q 1216 2157 1155 2534 
Q 1094 2912 979 3267 
Q 864 3622 694 3968 
Q 525 4314 314 4666 
z
" transform="scale(0.015625)"/>
      </defs>
      <use xlink:href="#HelveticaNeue-Light-44" transform="translate(0 0.5)"/>
      <use xlink:href="#HelveticaNeue-Light-69" transform="translate(68.499985 0.5)"/>
      <use xlink:href="#HelveticaNeue-Light-73" transform="translate(86.999969 0.5)"/>
      <use xlink:href="#HelveticaNeue-Light-74" transform="translate(135.09996 0.5)"/>
      <use xlink:href="#HelveticaNeue-Light-61" transform="translate(164.699951 0.5)"/>
      <use xlink:href="#HelveticaNeue-Light-6e" transform="translate(216.599945 0.5)"/>
      <use xlink:href="#HelveticaNeue-Light-63" transform="translate(270.299942 0.5)"/>
      <use xlink:href="#HelveticaNeue-Light-65" transform="translate(322.199936 0.5)"/>
      <use xlink:href="#HelveticaNeue-Light-20" transform="translate(374.09993 0.5)"/>
      <use xlink:href="#HelveticaNeue-Light-28" transform="translate(401.899918 0.5)"/>
      <use xlink:href="#HelveticaNeue-Light-c5" transform="translate(425.999908 0.5)"/>
      <use xlink:href="#HelveticaNeue-Light-29" transform="translate(488.999893 0.5)"/>
     </g>
    </g>
   </g>
   <g id="matplotlib.axis_2">
    <g id="ytick_1">
     <g id="line2d_7">
      <defs>
       <path id="mde614bc1aa" d="M 0 0 
L -2 0 
" style="stroke: #000000; stroke-width: 0.35"/>
      </defs>
      <g>
       <use xlink:href="#mde614bc1aa" x="30.83625" y="128.389383" style="stroke: #000000; stroke-width: 0.35"/>
      </g>
     </g>
     <g id="text_8">
      <!-- 0.00 -->
      <g transform="translate(10.27 131.245633)scale(0.08 -0.08)">
       <defs>
        <path id="HelveticaNeue-Light-2e" d="M 621 0 
L 1158 0 
L 1158 678 
L 621 678 
L 621 0 
z
" transform="scale(0.015625)"/>
       </defs>
       <use xlink:href="#HelveticaNeue-Light-30"/>
       <use xlink:href="#HelveticaNeue-Light-2e" x="55.599991"/>
       <use xlink:href="#HelveticaNeue-Light-30" x="83.399979"/>
       <use xlink:href="#HelveticaNeue-Light-30" x="138.999969"/>
      </g>
     </g>
    </g>
    <g id="ytick_2">
     <g id="line2d_8">
      <g>
       <use xlink:href="#mde614bc1aa" x="30.83625" y="109.472211" style="stroke: #000000; stroke-width: 0.35"/>
      </g>
     </g>
     <g id="text_9">
      <!-- 0.02 -->
      <g transform="translate(10.27 112.328461)scale(0.08 -0.08)">
       <use xlink:href="#HelveticaNeue-Light-30"/>
       <use xlink:href="#HelveticaNeue-Light-2e" x="55.599991"/>
       <use xlink:href="#HelveticaNeue-Light-30" x="83.399979"/>
       <use xlink:href="#HelveticaNeue-Light-32" x="138.999969"/>
      </g>
     </g>
    </g>
    <g id="ytick_3">
     <g id="line2d_9">
      <g>
       <use xlink:href="#mde614bc1aa" x="30.83625" y="90.555038" style="stroke: #000000; stroke-width: 0.35"/>
      </g>
     </g>
     <g id="text_10">
      <!-- 0.04 -->
      <g transform="translate(10.27 93.411288)scale(0.08 -0.08)">
       <use xlink:href="#HelveticaNeue-Light-30"/>
       <use xlink:href="#HelveticaNeue-Light-2e" x="55.599991"/>
       <use xlink:href="#HelveticaNeue-Light-30" x="83.399979"/>
       <use xlink:href="#HelveticaNeue-Light-34" x="138.999969"/>
      </g>
     </g>
    </g>
    <g id="ytick_4">
     <g id="line2d_10">
      <g>
       <use xlink:href="#mde614bc1aa" x="30.83625" y="71.637865" style="stroke: #000000; stroke-width: 0.35"/>
      </g>
     </g>
     <g id="text_11">
      <!-- 0.06 -->
      <g transform="translate(10.27 74.494115)scale(0.08 -0.08)">
       <use xlink:href="#HelveticaNeue-Light-30"/>
       <use xlink:href="#HelveticaNeue-Light-2e" x="55.599991"/>
       <use xlink:href="#HelveticaNeue-Light-30" x="83.399979"/>
       <use xlink:href="#HelveticaNeue-Light-36" x="138.999969"/>
      </g>
     </g>
    </g>
    <g id="ytick_5">
     <g id="line2d_11">
      <g>
       <use xlink:href="#mde614bc1aa" x="30.83625" y="52.720692" style="stroke: #000000; stroke-width: 0.35"/>
      </g>
     </g>
     <g id="text_12">
      <!-- 0.08 -->
      <g transform="translate(10.27 55.576942)scale(0.08 -0.08)">
       <use xlink:href="#HelveticaNeue-Light-30"/>
       <use xlink:href="#HelveticaNeue-Light-2e" x="55.599991"/>
       <use xlink:href="#HelveticaNeue-Light-30" x="83.399979"/>
       <use xlink:href="#HelveticaNeue-Light-38" x="138.999969"/>
      </g>
     </g>
    </g>
    <g id="ytick_6">
     <g id="line2d_12">
      <g>
       <use xlink:href="#mde614bc1aa" x="30.83625" y="33.803519" style="stroke: #000000; stroke-width: 0.35"/>
      </g>
     </g>
     <g id="text_13">
      <!-- 0.10 -->
      <g transform="translate(10.27 36.659769)scale(0.08 -0.08)">
       <use xlink:href="#HelveticaNeue-Light-30"/>
       <use xlink:href="#HelveticaNeue-Light-2e" x="55.599991"/>
       <use xlink:href="#HelveticaNeue-Light-31" x="83.399979"/>
       <use xlink:href="#HelveticaNeue-Light-30" x="138.999969"/>
      </g>
     </g>
    </g>
    <g id="ytick_7">
     <g id="line2d_13">
      <g>
       <use xlink:href="#mde614bc1aa" x="30.83625" y="14.886346" style="stroke: #000000; stroke-width: 0.35"/>
      </g>
     </g>
     <g id="text_14">
      <!-- 0.12 -->
      <g transform="translate(10.27 17.742596)scale(0.08 -0.08)">
       <use xlink:href="#HelveticaNeue-Light-30"/>
       <use xlink:href="#HelveticaNeue-Light-2e" x="55.599991"/>
       <use xlink:href="#HelveticaNeue-Light-31" x="83.399979"/>
       <use xlink:href="#HelveticaNeue-Light-32" x="138.999969"/>
      </g>
     </g>
    </g>
    <g id="text_15">
     <!-- Linear Density (${\rm \AA}^{-1}$) -->
     <g transform="translate(6.94 96.47301)rotate(-90)scale(0.07 -0.07)">
      <defs>
       <path id="HelveticaNeue-Light-4c" d="M 461 4570 
L 461 0 
L 3456 0 
L 3456 371 
L 896 371 
L 896 4570 
L 461 4570 
z
" transform="scale(0.015625)"/>
       <path id="HelveticaNeue-Light-72" d="M 384 3302 
L 384 0 
L 787 0 
L 787 1760 
Q 787 2022 876 2243 
Q 966 2464 1129 2624 
Q 1293 2784 1517 2870 
Q 1741 2957 2016 2944 
L 2016 3347 
Q 1568 3366 1245 3148 
Q 922 2931 768 2528 
L 755 2528 
L 755 3302 
L 384 3302 
z
" transform="scale(0.015625)"/>
       <path id="HelveticaNeue-Light-79" d="M 13 3302 
L 1331 13 
L 1190 -358 
Q 1139 -474 1094 -570 
Q 1050 -666 986 -733 
Q 922 -800 835 -838 
Q 749 -877 614 -877 
Q 544 -877 477 -867 
Q 410 -858 339 -845 
L 339 -1184 
Q 390 -1203 457 -1206 
Q 525 -1210 646 -1216 
Q 838 -1216 963 -1181 
Q 1088 -1146 1181 -1066 
Q 1274 -986 1350 -848 
Q 1427 -710 1517 -499 
L 2950 3302 
L 2547 3302 
L 1530 486 
L 442 3302 
L 13 3302 
z
" transform="scale(0.015625)"/>
       <path id="HelveticaNeue-Light-2212" d="M 3533 1440 
L 3533 1779 
L 314 1779 
L 314 1440 
L 3533 1440 
z
" transform="scale(0.015625)"/>
      </defs>
      <use xlink:href="#HelveticaNeue-Light-4c" transform="translate(0 0.5)"/>
      <use xlink:href="#HelveticaNeue-Light-69" transform="translate(53.699997 0.5)"/>
      <use xlink:href="#HelveticaNeue-Light-6e" transform="translate(72.199982 0.5)"/>
      <use xlink:href="#HelveticaNeue-Light-65" transform="translate(125.899979 0.5)"/>
      <use xlink:href="#HelveticaNeue-Light-61" transform="translate(177.799973 0.5)"/>
      <use xlink:href="#HelveticaNeue-Light-72" transform="translate(229.699966 0.5)"/>
      <use xlink:href="#HelveticaNeue-Light-20" transform="translate(261.199951 0.5)"/>
      <use xlink:href="#HelveticaNeue-Light-44" transform="translate(288.999939 0.5)"/>
      <use xlink:href="#HelveticaNeue-Light-65" transform="translate(357.499924 0.5)"/>
      <use xlink:href="#HelveticaNeue-Light-6e" transform="translate(409.399918 0.5)"/>
      <use xlink:href="#HelveticaNeue-Light-73" transform="translate(463.099915 0.5)"/>
      <use xlink:href="#HelveticaNeue-Light-69" transform="translate(511.199905 0.5)"/>
      <use xlink:href="#HelveticaNeue-Light-74" transform="translate(529.69989 0.5)"/>
      <use xlink:href="#HelveticaNeue-Light-79" transform="translate(559.299881 0.5)"/>
      <use xlink:href="#HelveticaNeue-Light-20" transform="translate(605.599869 0.5)"/>
      <use xlink:href="#HelveticaNeue-Light-28" transform="translate(633.399857 0.5)"/>
      <use xlink:href="#HelveticaNeue-Light-c5" transform="translate(657.499847 0.5)"/>
      <use xlink:href="#HelveticaNeue-Light-2212" transform="translate(721.402723 36.615625)scale(0.7)"/>
      <use xlink:href="#HelveticaNeue-Light-31" transform="translate(763.402712 36.615625)scale(0.7)"/>
      <use xlink:href="#HelveticaNeue-Light-29" transform="translate(804.902393 0.5)"/>
     </g>
    </g>
   </g>
   <g id="line2d_14">
    <path d="M 82.268552 128.302025 
L 83.583841 128.077677 
L 84.528044 127.694727 
L 85.26609 127.153664 
L 85.946411 126.369921 
L 86.61024 125.252975 
L 87.265823 123.690578 
L 87.942021 121.469076 
L 88.655328 118.313308 
L 89.426359 113.83344 
L 90.255114 107.632963 
L 91.191071 98.830258 
L 92.283709 86.329853 
L 93.776293 66.361164 
L 96.456347 30.384855 
L 97.50363 19.483854 
L 98.328262 13.021155 
L 99.000337 9.353044 
L 99.552841 7.441648 
L 99.981649 6.650722 
L 100.299133 6.457643 
L 100.558892 6.546259 
L 100.859882 6.915953 
L 101.243336 7.782441 
L 101.733992 9.497437 
L 102.348343 12.524093 
L 103.119374 17.53308 
L 104.121302 25.62901 
L 105.564408 39.306011 
L 109.57212 78.163643 
L 111.035842 89.792656 
L 112.355254 98.556272 
L 113.588079 105.316413 
L 114.759056 110.55168 
L 115.888802 114.619836 
L 117.002055 117.826179 
L 118.098816 120.330943 
L 119.183207 122.270613 
L 120.279968 123.788116 
L 121.426206 124.999942 
L 122.630169 125.952431 
L 123.496033 126.478022 
L 123.496033 126.478022 
" clip-path="url(#p7587ac2357)" style="fill: none; stroke: #5e4fa2; stroke-width: 0.75; stroke-linecap: round"/>
   </g>
   <g id="line2d_15">
    <defs>
     <path id="m4e41b54e09" d="M 0 1 
C 0.265203 1 0.51958 0.894634 0.707107 0.707107 
C 0.894634 0.51958 1 0.265203 1 0 
C 1 -0.265203 0.894634 -0.51958 0.707107 -0.707107 
C 0.51958 -0.894634 0.265203 -1 0 -1 
C -0.265203 -1 -0.51958 -0.894634 -0.707107 -0.707107 
C -0.894634 -0.51958 -1 -0.265203 -1 0 
C -1 0.265203 -0.894634 0.51958 -0.707107 0.707107 
C -0.51958 0.894634 -0.265203 1 0 1 
z
" style="stroke: #3c93b8; stroke-width: 0.35"/>
    </defs>
    <g clip-path="url(#p7587ac2357)">
     <use xlink:href="#m4e41b54e09" x="41.041072" y="128.389383" style="fill: #3c93b8; stroke: #3c93b8; stroke-width: 0.35"/>
     <use xlink:href="#m4e41b54e09" x="43.082036" y="128.389383" style="fill: #3c93b8; stroke: #3c93b8; stroke-width: 0.35"/>
     <use xlink:href="#m4e41b54e09" x="45.123001" y="128.389383" style="fill: #3c93b8; stroke: #3c93b8; stroke-width: 0.35"/>
     <use xlink:href="#m4e41b54e09" x="47.163965" y="128.389383" style="fill: #3c93b8; stroke: #3c93b8; stroke-width: 0.35"/>
     <use xlink:href="#m4e41b54e09" x="49.204929" y="128.389383" style="fill: #3c93b8; stroke: #3c93b8; stroke-width: 0.35"/>
     <use xlink:href="#m4e41b54e09" x="51.245894" y="128.389383" style="fill: #3c93b8; stroke: #3c93b8; stroke-width: 0.35"/>
     <use xlink:href="#m4e41b54e09" x="53.286858" y="128.389383" style="fill: #3c93b8; stroke: #3c93b8; stroke-width: 0.35"/>
     <use xlink:href="#m4e41b54e09" x="55.327822" y="128.389383" style="fill: #3c93b8; stroke: #3c93b8; stroke-width: 0.35"/>
     <use xlink:href="#m4e41b54e09" x="57.368787" y="128.389383" style="fill: #3c93b8; stroke: #3c93b8; stroke-width: 0.35"/>
     <use xlink:href="#m4e41b54e09" x="59.409751" y="128.389383" style="fill: #3c93b8; stroke: #3c93b8; stroke-width: 0.35"/>
     <use xlink:href="#m4e41b54e09" x="61.450715" y="128.389383" style="fill: #3c93b8; stroke: #3c93b8; stroke-width: 0.35"/>
     <use xlink:href="#m4e41b54e09" x="63.49168" y="128.389383" style="fill: #3c93b8; stroke: #3c93b8; stroke-width: 0.35"/>
     <use xlink:href="#m4e41b54e09" x="65.532644" y="128.389383" style="fill: #3c93b8; stroke: #3c93b8; stroke-width: 0.35"/>
     <use xlink:href="#m4e41b54e09" x="67.573609" y="128.389383" style="fill: #3c93b8; stroke: #3c93b8; stroke-width: 0.35"/>
     <use xlink:href="#m4e41b54e09" x="69.614573" y="128.389383" style="fill: #3c93b8; stroke: #3c93b8; stroke-width: 0.35"/>
     <use xlink:href="#m4e41b54e09" x="71.655537" y="128.389383" style="fill: #3c93b8; stroke: #3c93b8; stroke-width: 0.35"/>
     <use xlink:href="#m4e41b54e09" x="73.696502" y="128.389383" style="fill: #3c93b8; stroke: #3c93b8; stroke-width: 0.35"/>
     <use xlink:href="#m4e41b54e09" x="75.737466" y="128.389378" style="fill: #3c93b8; stroke: #3c93b8; stroke-width: 0.35"/>
     <use xlink:href="#m4e41b54e09" x="77.77843" y="128.389044" style="fill: #3c93b8; stroke: #3c93b8; stroke-width: 0.35"/>
     <use xlink:href="#m4e41b54e09" x="79.819395" y="128.384268" style="fill: #3c93b8; stroke: #3c93b8; stroke-width: 0.35"/>
     <use xlink:href="#m4e41b54e09" x="81.860359" y="128.331139" style="fill: #3c93b8; stroke: #3c93b8; stroke-width: 0.35"/>
     <use xlink:href="#m4e41b54e09" x="83.901323" y="127.976478" style="fill: #3c93b8; stroke: #3c93b8; stroke-width: 0.35"/>
     <use xlink:href="#m4e41b54e09" x="85.942288" y="126.375664" style="fill: #3c93b8; stroke: #3c93b8; stroke-width: 0.35"/>
     <use xlink:href="#m4e41b54e09" x="87.983252" y="121.310607" style="fill: #3c93b8; stroke: #3c93b8; stroke-width: 0.35"/>
     <use xlink:href="#m4e41b54e09" x="90.024217" y="109.513191" style="fill: #3c93b8; stroke: #3c93b8; stroke-width: 0.35"/>
     <use xlink:href="#m4e41b54e09" x="92.065181" y="89.008978" style="fill: #3c93b8; stroke: #3c93b8; stroke-width: 0.35"/>
     <use xlink:href="#m4e41b54e09" x="94.106145" y="61.723986" style="fill: #3c93b8; stroke: #3c93b8; stroke-width: 0.35"/>
     <use xlink:href="#m4e41b54e09" x="96.14711" y="34.084244" style="fill: #3c93b8; stroke: #3c93b8; stroke-width: 0.35"/>
     <use xlink:href="#m4e41b54e09" x="98.188074" y="13.970799" style="fill: #3c93b8; stroke: #3c93b8; stroke-width: 0.35"/>
     <use xlink:href="#m4e41b54e09" x="100.229038" y="6.471468" style="fill: #3c93b8; stroke: #3c93b8; stroke-width: 0.35"/>
     <use xlink:href="#m4e41b54e09" x="102.270003" y="12.087186" style="fill: #3c93b8; stroke: #3c93b8; stroke-width: 0.35"/>
     <use xlink:href="#m4e41b54e09" x="104.310967" y="27.318143" style="fill: #3c93b8; stroke: #3c93b8; stroke-width: 0.35"/>
     <use xlink:href="#m4e41b54e09" x="106.351931" y="47.246942" style="fill: #3c93b8; stroke: #3c93b8; stroke-width: 0.35"/>
     <use xlink:href="#m4e41b54e09" x="108.392896" y="67.486388" style="fill: #3c93b8; stroke: #3c93b8; stroke-width: 0.35"/>
     <use xlink:href="#m4e41b54e09" x="110.43386" y="85.25151" style="fill: #3c93b8; stroke: #3c93b8; stroke-width: 0.35"/>
     <use xlink:href="#m4e41b54e09" x="112.474825" y="99.271126" style="fill: #3c93b8; stroke: #3c93b8; stroke-width: 0.35"/>
     <use xlink:href="#m4e41b54e09" x="114.515789" y="109.554058" style="fill: #3c93b8; stroke: #3c93b8; stroke-width: 0.35"/>
     <use xlink:href="#m4e41b54e09" x="116.556753" y="116.630172" style="fill: #3c93b8; stroke: #3c93b8; stroke-width: 0.35"/>
     <use xlink:href="#m4e41b54e09" x="118.597718" y="121.283676" style="fill: #3c93b8; stroke: #3c93b8; stroke-width: 0.35"/>
     <use xlink:href="#m4e41b54e09" x="120.638682" y="124.203844" style="fill: #3c93b8; stroke: #3c93b8; stroke-width: 0.35"/>
     <use xlink:href="#m4e41b54e09" x="122.679646" y="125.985716" style="fill: #3c93b8; stroke: #3c93b8; stroke-width: 0.35"/>
     <use xlink:href="#m4e41b54e09" x="124.720611" y="127.041219" style="fill: #3c93b8; stroke: #3c93b8; stroke-width: 0.35"/>
     <use xlink:href="#m4e41b54e09" x="126.761575" y="127.640655" style="fill: #3c93b8; stroke: #3c93b8; stroke-width: 0.35"/>
     <use xlink:href="#m4e41b54e09" x="128.802539" y="127.982303" style="fill: #3c93b8; stroke: #3c93b8; stroke-width: 0.35"/>
     <use xlink:href="#m4e41b54e09" x="130.843504" y="128.17188" style="fill: #3c93b8; stroke: #3c93b8; stroke-width: 0.35"/>
     <use xlink:href="#m4e41b54e09" x="132.884468" y="128.274315" style="fill: #3c93b8; stroke: #3c93b8; stroke-width: 0.35"/>
     <use xlink:href="#m4e41b54e09" x="134.925433" y="128.328346" style="fill: #3c93b8; stroke: #3c93b8; stroke-width: 0.35"/>
     <use xlink:href="#m4e41b54e09" x="136.966397" y="128.358134" style="fill: #3c93b8; stroke: #3c93b8; stroke-width: 0.35"/>
     <use xlink:href="#m4e41b54e09" x="139.007361" y="128.37283" style="fill: #3c93b8; stroke: #3c93b8; stroke-width: 0.35"/>
     <use xlink:href="#m4e41b54e09" x="141.048326" y="128.380566" style="fill: #3c93b8; stroke: #3c93b8; stroke-width: 0.35"/>
     <use xlink:href="#m4e41b54e09" x="143.08929" y="128.385127" style="fill: #3c93b8; stroke: #3c93b8; stroke-width: 0.35"/>
     <use xlink:href="#m4e41b54e09" x="145.130254" y="128.387137" style="fill: #3c93b8; stroke: #3c93b8; stroke-width: 0.35"/>
     <use xlink:href="#m4e41b54e09" x="147.171219" y="128.387992" style="fill: #3c93b8; stroke: #3c93b8; stroke-width: 0.35"/>
     <use xlink:href="#m4e41b54e09" x="149.212183" y="128.388583" style="fill: #3c93b8; stroke: #3c93b8; stroke-width: 0.35"/>
     <use xlink:href="#m4e41b54e09" x="151.253147" y="128.389008" style="fill: #3c93b8; stroke: #3c93b8; stroke-width: 0.35"/>
     <use xlink:href="#m4e41b54e09" x="153.294112" y="128.388981" style="fill: #3c93b8; stroke: #3c93b8; stroke-width: 0.35"/>
     <use xlink:href="#m4e41b54e09" x="155.335076" y="128.389221" style="fill: #3c93b8; stroke: #3c93b8; stroke-width: 0.35"/>
     <use xlink:href="#m4e41b54e09" x="157.376041" y="128.389295" style="fill: #3c93b8; stroke: #3c93b8; stroke-width: 0.35"/>
     <use xlink:href="#m4e41b54e09" x="159.417005" y="128.389364" style="fill: #3c93b8; stroke: #3c93b8; stroke-width: 0.35"/>
     <use xlink:href="#m4e41b54e09" x="161.457969" y="128.389371" style="fill: #3c93b8; stroke: #3c93b8; stroke-width: 0.35"/>
     <use xlink:href="#m4e41b54e09" x="163.498934" y="128.389369" style="fill: #3c93b8; stroke: #3c93b8; stroke-width: 0.35"/>
     <use xlink:href="#m4e41b54e09" x="165.539898" y="128.389369" style="fill: #3c93b8; stroke: #3c93b8; stroke-width: 0.35"/>
     <use xlink:href="#m4e41b54e09" x="167.580862" y="128.389378" style="fill: #3c93b8; stroke: #3c93b8; stroke-width: 0.35"/>
     <use xlink:href="#m4e41b54e09" x="169.621827" y="128.389383" style="fill: #3c93b8; stroke: #3c93b8; stroke-width: 0.35"/>
     <use xlink:href="#m4e41b54e09" x="171.662791" y="128.389383" style="fill: #3c93b8; stroke: #3c93b8; stroke-width: 0.35"/>
     <use xlink:href="#m4e41b54e09" x="173.703755" y="128.389383" style="fill: #3c93b8; stroke: #3c93b8; stroke-width: 0.35"/>
     <use xlink:href="#m4e41b54e09" x="175.74472" y="128.389383" style="fill: #3c93b8; stroke: #3c93b8; stroke-width: 0.35"/>
     <use xlink:href="#m4e41b54e09" x="177.785684" y="128.389383" style="fill: #3c93b8; stroke: #3c93b8; stroke-width: 0.35"/>
     <use xlink:href="#m4e41b54e09" x="179.826649" y="128.389383" style="fill: #3c93b8; stroke: #3c93b8; stroke-width: 0.35"/>
     <use xlink:href="#m4e41b54e09" x="181.867613" y="128.389383" style="fill: #3c93b8; stroke: #3c93b8; stroke-width: 0.35"/>
     <use xlink:href="#m4e41b54e09" x="183.908577" y="128.389383" style="fill: #3c93b8; stroke: #3c93b8; stroke-width: 0.35"/>
     <use xlink:href="#m4e41b54e09" x="185.949542" y="128.389383" style="fill: #3c93b8; stroke: #3c93b8; stroke-width: 0.35"/>
     <use xlink:href="#m4e41b54e09" x="187.990506" y="128.389383" style="fill: #3c93b8; stroke: #3c93b8; stroke-width: 0.35"/>
     <use xlink:href="#m4e41b54e09" x="190.03147" y="128.389383" style="fill: #3c93b8; stroke: #3c93b8; stroke-width: 0.35"/>
     <use xlink:href="#m4e41b54e09" x="192.072435" y="128.389383" style="fill: #3c93b8; stroke: #3c93b8; stroke-width: 0.35"/>
     <use xlink:href="#m4e41b54e09" x="194.113399" y="128.389383" style="fill: #3c93b8; stroke: #3c93b8; stroke-width: 0.35"/>
     <use xlink:href="#m4e41b54e09" x="196.154363" y="128.389383" style="fill: #3c93b8; stroke: #3c93b8; stroke-width: 0.35"/>
     <use xlink:href="#m4e41b54e09" x="198.195328" y="128.389383" style="fill: #3c93b8; stroke: #3c93b8; stroke-width: 0.35"/>
     <use xlink:href="#m4e41b54e09" x="200.236292" y="128.389383" style="fill: #3c93b8; stroke: #3c93b8; stroke-width: 0.35"/>
     <use xlink:href="#m4e41b54e09" x="202.277257" y="128.389383" style="fill: #3c93b8; stroke: #3c93b8; stroke-width: 0.35"/>
     <use xlink:href="#m4e41b54e09" x="204.318221" y="128.389383" style="fill: #3c93b8; stroke: #3c93b8; stroke-width: 0.35"/>
     <use xlink:href="#m4e41b54e09" x="206.359185" y="128.389383" style="fill: #3c93b8; stroke: #3c93b8; stroke-width: 0.35"/>
     <use xlink:href="#m4e41b54e09" x="208.40015" y="128.389383" style="fill: #3c93b8; stroke: #3c93b8; stroke-width: 0.35"/>
     <use xlink:href="#m4e41b54e09" x="210.441114" y="128.389383" style="fill: #3c93b8; stroke: #3c93b8; stroke-width: 0.35"/>
     <use xlink:href="#m4e41b54e09" x="212.482078" y="128.389383" style="fill: #3c93b8; stroke: #3c93b8; stroke-width: 0.35"/>
     <use xlink:href="#m4e41b54e09" x="214.523043" y="128.389383" style="fill: #3c93b8; stroke: #3c93b8; stroke-width: 0.35"/>
     <use xlink:href="#m4e41b54e09" x="216.564007" y="128.389383" style="fill: #3c93b8; stroke: #3c93b8; stroke-width: 0.35"/>
     <use xlink:href="#m4e41b54e09" x="218.604971" y="128.389383" style="fill: #3c93b8; stroke: #3c93b8; stroke-width: 0.35"/>
     <use xlink:href="#m4e41b54e09" x="220.645936" y="128.389383" style="fill: #3c93b8; stroke: #3c93b8; stroke-width: 0.35"/>
     <use xlink:href="#m4e41b54e09" x="222.6869" y="128.389383" style="fill: #3c93b8; stroke: #3c93b8; stroke-width: 0.35"/>
     <use xlink:href="#m4e41b54e09" x="224.727865" y="128.389383" style="fill: #3c93b8; stroke: #3c93b8; stroke-width: 0.35"/>
     <use xlink:href="#m4e41b54e09" x="226.768829" y="128.389383" style="fill: #3c93b8; stroke: #3c93b8; stroke-width: 0.35"/>
     <use xlink:href="#m4e41b54e09" x="228.809793" y="128.389383" style="fill: #3c93b8; stroke: #3c93b8; stroke-width: 0.35"/>
     <use xlink:href="#m4e41b54e09" x="230.850758" y="128.389383" style="fill: #3c93b8; stroke: #3c93b8; stroke-width: 0.35"/>
     <use xlink:href="#m4e41b54e09" x="232.891722" y="128.389383" style="fill: #3c93b8; stroke: #3c93b8; stroke-width: 0.35"/>
     <use xlink:href="#m4e41b54e09" x="234.932686" y="128.389383" style="fill: #3c93b8; stroke: #3c93b8; stroke-width: 0.35"/>
     <use xlink:href="#m4e41b54e09" x="236.973651" y="128.389383" style="fill: #3c93b8; stroke: #3c93b8; stroke-width: 0.35"/>
     <use xlink:href="#m4e41b54e09" x="239.014615" y="128.389383" style="fill: #3c93b8; stroke: #3c93b8; stroke-width: 0.35"/>
     <use xlink:href="#m4e41b54e09" x="241.055579" y="128.389383" style="fill: #3c93b8; stroke: #3c93b8; stroke-width: 0.35"/>
     <use xlink:href="#m4e41b54e09" x="243.096544" y="128.389383" style="fill: #3c93b8; stroke: #3c93b8; stroke-width: 0.35"/>
     <use xlink:href="#m4e41b54e09" x="245.137508" y="128.389383" style="fill: #3c93b8; stroke: #3c93b8; stroke-width: 0.35"/>
    </g>
   </g>
   <g id="line2d_16">
    <path d="M 93.702066 67.42301 
L 108.388779 67.42301 
" clip-path="url(#p7587ac2357)" style="fill: none; stroke: #79c9a4; stroke-width: 0.75; stroke-linecap: round"/>
    <defs>
     <path id="mcd32942dd9" d="M -3 3 
L 3 -3 
M -3 -3 
L 3 3 
" style="stroke: #79c9a4; stroke-width: 0.35"/>
    </defs>
    <g clip-path="url(#p7587ac2357)">
     <use xlink:href="#mcd32942dd9" x="93.702066" y="67.42301" style="fill: #79c9a4; stroke: #79c9a4; stroke-width: 0.35"/>
     <use xlink:href="#mcd32942dd9" x="108.388779" y="67.42301" style="fill: #79c9a4; stroke: #79c9a4; stroke-width: 0.35"/>
    </g>
   </g>
   <g id="patch_3">
    <path d="M 30.83625 134.486021 
L 30.83625 0.36 
" style="fill: none; stroke: #000000; stroke-width: 0.35; stroke-linejoin: miter; stroke-linecap: square"/>
   </g>
   <g id="patch_4">
    <path d="M 255.34233 134.486021 
L 255.34233 0.36 
" style="fill: none; stroke: #000000; stroke-width: 0.35; stroke-linejoin: miter; stroke-linecap: square"/>
   </g>
   <g id="patch_5">
    <path d="M 30.83625 134.486021 
L 255.34233 134.486021 
" style="fill: none; stroke: #000000; stroke-width: 0.35; stroke-linejoin: miter; stroke-linecap: square"/>
   </g>
   <g id="patch_6">
    <path d="M 30.83625 0.36 
L 255.34233 0.36 
" style="fill: none; stroke: #000000; stroke-width: 0.35; stroke-linejoin: miter; stroke-linecap: square"/>
   </g>
   <g id="text_16">
    <!-- 0.71${\rm \AA}$ -->
    <g transform="translate(115.250537 71.637865)scale(0.07 -0.07)">
     <defs>
      <path id="HelveticaNeue-Light-37" d="M 326 4422 
L 326 4051 
L 2803 4051 
Q 2336 3520 2006 3033 
Q 1677 2547 1456 2064 
Q 1235 1581 1116 1075 
Q 998 570 960 0 
L 1395 0 
Q 1434 781 1642 1430 
Q 1850 2080 2128 2589 
Q 2406 3098 2700 3466 
Q 2995 3834 3206 4051 
L 3206 4422 
L 326 4422 
z
" transform="scale(0.015625)"/>
     </defs>
     <use xlink:href="#HelveticaNeue-Light-30" transform="translate(0 0.5)"/>
     <use xlink:href="#HelveticaNeue-Light-2e" transform="translate(55.599991 0.5)"/>
     <use xlink:href="#HelveticaNeue-Light-37" transform="translate(83.399979 0.5)"/>
     <use xlink:href="#HelveticaNeue-Light-31" transform="translate(138.999969 0.5)"/>
     <use xlink:href="#HelveticaNeue-Light-c5" transform="translate(194.59996 0.5)"/>
    </g>
   </g>
   <g id="legend_1">
    <g id="line2d_17">
     <path d="M 163.391861 9.208438 
L 166.891861 9.208438 
L 170.391861 9.208438 
" style="fill: none; stroke: #5e4fa2; stroke-width: 0.75; stroke-linecap: round"/>
    </g>
    <g id="text_17">
     <!-- linear density at T=0.6 K -->
     <g transform="translate(175.991861 11.658438)scale(0.07 -0.07)">
      <defs>
       <path id="HelveticaNeue-Light-6c" d="M 390 4570 
L 390 0 
L 794 0 
L 794 4570 
L 390 4570 
z
" transform="scale(0.015625)"/>
       <path id="HelveticaNeue-Light-64" d="M 3290 0 
L 3290 4570 
L 2886 4570 
L 2886 2675 
L 2874 2675 
Q 2810 2854 2691 2988 
Q 2573 3123 2419 3216 
Q 2266 3309 2090 3353 
Q 1914 3398 1728 3398 
Q 1350 3398 1072 3257 
Q 794 3117 608 2877 
Q 422 2637 332 2320 
Q 243 2003 243 1651 
Q 243 1299 332 982 
Q 422 666 608 426 
Q 794 186 1072 48 
Q 1350 -90 1728 -90 
Q 1907 -90 2089 -38 
Q 2272 13 2432 105 
Q 2592 198 2717 332 
Q 2842 467 2906 627 
L 2918 627 
L 2918 0 
L 3290 0 
z
M 646 1651 
Q 646 1907 707 2160 
Q 768 2413 899 2611 
Q 1030 2810 1235 2934 
Q 1440 3059 1728 3059 
Q 2048 3059 2269 2934 
Q 2490 2810 2627 2611 
Q 2765 2413 2825 2160 
Q 2886 1907 2886 1651 
Q 2886 1395 2825 1142 
Q 2765 890 2627 691 
Q 2490 493 2269 368 
Q 2048 243 1728 243 
Q 1440 243 1235 368 
Q 1030 493 899 691 
Q 768 890 707 1142 
Q 646 1395 646 1651 
z
" transform="scale(0.015625)"/>
       <path id="HelveticaNeue-Light-54" d="M -26 4570 
L -26 4198 
L 1562 4198 
L 1562 0 
L 1997 0 
L 1997 4198 
L 3590 4198 
L 3590 4570 
L -26 4570 
z
" transform="scale(0.015625)"/>
       <path id="HelveticaNeue-Light-3d" d="M 3533 819 
L 3533 1158 
L 314 1158 
L 314 819 
L 3533 819 
z
M 3533 2080 
L 3533 2419 
L 314 2419 
L 314 2080 
L 3533 2080 
z
" transform="scale(0.015625)"/>
       <path id="HelveticaNeue-Light-4b" d="M 461 4570 
L 461 0 
L 896 0 
L 896 1568 
L 1773 2381 
L 3674 0 
L 4237 0 
L 2099 2682 
L 4141 4570 
L 3552 4570 
L 896 2112 
L 896 4570 
L 461 4570 
z
" transform="scale(0.015625)"/>
      </defs>
      <use xlink:href="#HelveticaNeue-Light-6c"/>
      <use xlink:href="#HelveticaNeue-Light-69" x="18.499985"/>
      <use xlink:href="#HelveticaNeue-Light-6e" x="36.999969"/>
      <use xlink:href="#HelveticaNeue-Light-65" x="90.699966"/>
      <use xlink:href="#HelveticaNeue-Light-61" x="142.59996"/>
      <use xlink:href="#HelveticaNeue-Light-72" x="194.499954"/>
      <use xlink:href="#HelveticaNeue-Light-20" x="225.999939"/>
      <use xlink:href="#HelveticaNeue-Light-64" x="253.799927"/>
      <use xlink:href="#HelveticaNeue-Light-65" x="311.199921"/>
      <use xlink:href="#HelveticaNeue-Light-6e" x="363.099915"/>
      <use xlink:href="#HelveticaNeue-Light-73" x="416.799911"/>
      <use xlink:href="#HelveticaNeue-Light-69" x="464.899902"/>
      <use xlink:href="#HelveticaNeue-Light-74" x="483.399887"/>
      <use xlink:href="#HelveticaNeue-Light-79" x="512.999878"/>
      <use xlink:href="#HelveticaNeue-Light-20" x="559.299866"/>
      <use xlink:href="#HelveticaNeue-Light-61" x="587.099854"/>
      <use xlink:href="#HelveticaNeue-Light-74" x="638.999847"/>
      <use xlink:href="#HelveticaNeue-Light-20" x="668.599838"/>
      <use xlink:href="#HelveticaNeue-Light-54" x="696.399826"/>
      <use xlink:href="#HelveticaNeue-Light-3d" x="751.999817"/>
      <use xlink:href="#HelveticaNeue-Light-30" x="811.999802"/>
      <use xlink:href="#HelveticaNeue-Light-2e" x="867.599792"/>
      <use xlink:href="#HelveticaNeue-Light-36" x="895.39978"/>
      <use xlink:href="#HelveticaNeue-Light-20" x="950.999771"/>
      <use xlink:href="#HelveticaNeue-Light-4b" x="978.799759"/>
     </g>
    </g>
   </g>
  </g>
 </g>
 <defs>
  <clipPath id="p7587ac2357">
   <rect x="30.83625" y="0.36" width="224.50608" height="134.126021"/>
  </clipPath>
 </defs>
</svg>
